<?xml version="1.0" encoding="utf-8" standalone="no"?>
<!DOCTYPE svg PUBLIC "-//W3C//DTD SVG 1.1//EN"
  "http://www.w3.org/Graphics/SVG/1.1/DTD/svg11.dtd">
<svg xmlns:xlink="http://www.w3.org/1999/xlink" width="676.8pt" height="367.29pt" viewBox="0 0 676.8 367.29" xmlns="http://www.w3.org/2000/svg" version="1.1">
 <metadata>
  <rdf:RDF xmlns:dc="http://purl.org/dc/elements/1.1/" xmlns:cc="http://creativecommons.org/ns#" xmlns:rdf="http://www.w3.org/1999/02/22-rdf-syntax-ns#">
   <cc:Work>
    <dc:type rdf:resource="http://purl.org/dc/dcmitype/StillImage"/>
    <dc:date>2026-08-14T10:51:36.316298</dc:date>
    <dc:format>image/svg+xml</dc:format>
    <dc:creator>
     <cc:Agent>
      <dc:title>Matplotlib v3.11.1, https://matplotlib.org/</dc:title>
     </cc:Agent>
    </dc:creator>
   </cc:Work>
  </rdf:RDF>
 </metadata>
 <defs>
  <style type="text/css">*{stroke-linejoin: round; stroke-linecap: butt}</style>
 </defs>
 <g id="figure_1">
  <g id="patch_1">
   <path d="M 0 367.29 
L 676.8 367.29 
L 676.8 0 
L 0 0 
z
" style="fill: #ffffff"/>
  </g>
  <g id="axes_1">
   <g id="patch_2">
    <path d="M 245.664 346.8112 
L 298.656 346.8112 
Q 301.968 346.8112 301.968 345.1328 
L 301.968 314.9216 
Q 301.968 313.2432 298.656 313.2432 
L 245.664 313.2432 
Q 242.352 313.2432 242.352 314.9216 
L 242.352 345.1328 
Q 242.352 346.8112 245.664 346.8112 
z
" clip-path="url(#p63bb397c7b)" style="fill: #fffaf0; stroke: #b7791f; stroke-width: 1.4; stroke-linejoin: miter"/>
   </g>
   <g id="patch_3">
    <path d="M 298.656 346.8112 
L 351.648 346.8112 
Q 354.96 346.8112 354.96 345.1328 
L 354.96 314.9216 
Q 354.96 313.2432 351.648 313.2432 
L 298.656 313.2432 
Q 295.344 313.2432 295.344 314.9216 
L 295.344 345.1328 
Q 295.344 346.8112 298.656 346.8112 
z
" clip-path="url(#p63bb397c7b)" style="fill: #fffaf0; stroke: #b7791f; stroke-width: 1.4; stroke-linejoin: miter"/>
   </g>
   <g id="patch_4">
    <path d="M 351.648 346.8112 
L 404.64 346.8112 
Q 407.952 346.8112 407.952 345.1328 
L 407.952 314.9216 
Q 407.952 313.2432 404.64 313.2432 
L 351.648 313.2432 
Q 348.336 313.2432 348.336 314.9216 
L 348.336 345.1328 
Q 348.336 346.8112 351.648 346.8112 
z
" clip-path="url(#p63bb397c7b)" style="fill: #fffaf0; stroke: #b7791f; stroke-width: 1.4; stroke-linejoin: miter"/>
   </g>
   <g id="patch_5">
    <path d="M 404.64 346.8112 
L 457.632 346.8112 
Q 460.944 346.8112 460.944 345.1328 
L 460.944 314.9216 
Q 460.944 313.2432 457.632 313.2432 
L 404.64 313.2432 
Q 401.328 313.2432 401.328 314.9216 
L 401.328 345.1328 
Q 401.328 346.8112 404.64 346.8112 
z
" clip-path="url(#p63bb397c7b)" style="fill: #fffaf0; stroke: #b7791f; stroke-width: 1.4; stroke-linejoin: miter"/>
   </g>
   <g id="patch_6">
    <path d="M 457.632 346.8112 
L 510.624 346.8112 
Q 513.936 346.8112 513.936 345.1328 
L 513.936 314.9216 
Q 513.936 313.2432 510.624 313.2432 
L 457.632 313.2432 
Q 454.32 313.2432 454.32 314.9216 
L 454.32 345.1328 
Q 454.32 346.8112 457.632 346.8112 
z
" clip-path="url(#p63bb397c7b)" style="fill: #fffaf0; stroke: #b7791f; stroke-width: 1.4; stroke-linejoin: miter"/>
   </g>
   <g id="patch_7">
    <path d="M 510.624 346.8112 
L 563.616 346.8112 
Q 566.928 346.8112 566.928 345.1328 
L 566.928 314.9216 
Q 566.928 313.2432 563.616 313.2432 
L 510.624 313.2432 
Q 507.312 313.2432 507.312 314.9216 
L 507.312 345.1328 
Q 507.312 346.8112 510.624 346.8112 
z
" clip-path="url(#p63bb397c7b)" style="fill: #fffaf0; stroke: #b7791f; stroke-width: 1.4; stroke-linejoin: miter"/>
   </g>
   <g id="patch_8">
    <path d="M 272.16 71.5536 
L 404.64 71.5536 
Q 407.952 71.5536 407.952 69.8752 
L 407.952 32.9504 
Q 407.952 31.272 404.64 31.272 
L 272.16 31.272 
Q 268.848 31.272 268.848 32.9504 
L 268.848 69.8752 
Q 268.848 71.5536 272.16 71.5536 
z
" clip-path="url(#p63bb397c7b)" style="fill: #e6fffa; stroke: #2c7a7b; stroke-width: 1.4; stroke-linejoin: miter"/>
   </g>
   <g id="patch_9">
    <path d="M 113.184 152.1168 
L 232.416 152.1168 
Q 235.728 152.1168 235.728 150.4384 
L 235.728 116.8704 
Q 235.728 115.192 232.416 115.192 
L 113.184 115.192 
Q 109.872 115.192 109.872 116.8704 
L 109.872 150.4384 
Q 109.872 152.1168 113.184 152.1168 
z
" clip-path="url(#p63bb397c7b)" style="fill: #e6fffa; stroke: #2c7a7b; stroke-width: 1.4; stroke-linejoin: miter"/>
   </g>
   <g id="patch_10">
    <path d="M 444.384 152.1168 
L 563.616 152.1168 
Q 566.928 152.1168 566.928 150.4384 
L 566.928 116.8704 
Q 566.928 115.192 563.616 115.192 
L 444.384 115.192 
Q 441.072 115.192 441.072 116.8704 
L 441.072 150.4384 
Q 441.072 152.1168 444.384 152.1168 
z
" clip-path="url(#p63bb397c7b)" style="fill: #e6fffa; stroke: #2c7a7b; stroke-width: 1.4; stroke-linejoin: miter"/>
   </g>
   <g id="patch_11">
    <path d="M 33.696 232.68 
L 139.68 232.68 
Q 142.992 232.68 142.992 231.0016 
L 142.992 200.7904 
Q 142.992 199.112 139.68 199.112 
L 33.696 199.112 
Q 30.384 199.112 30.384 200.7904 
L 30.384 231.0016 
Q 30.384 232.68 33.696 232.68 
z
" clip-path="url(#p63bb397c7b)" style="fill: #e6fffa; stroke: #2c7a7b; stroke-width: 1.4; stroke-linejoin: miter"/>
   </g>
   <g id="patch_12">
    <path d="M 172.8 232.68 
L 232.416 232.68 
Q 235.728 232.68 235.728 231.0016 
L 235.728 200.7904 
Q 235.728 199.112 232.416 199.112 
L 172.8 199.112 
Q 169.488 199.112 169.488 200.7904 
L 169.488 231.0016 
Q 169.488 232.68 172.8 232.68 
z
" clip-path="url(#p63bb397c7b)" style="fill: #e6fffa; stroke: #2c7a7b; stroke-width: 1.4; stroke-linejoin: miter"/>
   </g>
   <g id="patch_13">
    <path d="M 378.144 232.68 
L 484.128 232.68 
Q 487.44 232.68 487.44 231.0016 
L 487.44 200.7904 
Q 487.44 199.112 484.128 199.112 
L 378.144 199.112 
Q 374.832 199.112 374.832 200.7904 
L 374.832 231.0016 
Q 374.832 232.68 378.144 232.68 
z
" clip-path="url(#p63bb397c7b)" style="fill: #e6fffa; stroke: #2c7a7b; stroke-width: 1.4; stroke-linejoin: miter"/>
   </g>
   <g id="patch_14">
    <path d="M 510.624 232.68 
L 570.24 232.68 
Q 573.552 232.68 573.552 231.0016 
L 573.552 200.7904 
Q 573.552 199.112 570.24 199.112 
L 510.624 199.112 
Q 507.312 199.112 507.312 200.7904 
L 507.312 231.0016 
Q 507.312 232.68 510.624 232.68 
z
" clip-path="url(#p63bb397c7b)" style="fill: #e6fffa; stroke: #2c7a7b; stroke-width: 1.4; stroke-linejoin: miter"/>
   </g>
   <g id="patch_15">
    <path d="M 33.696 306.5296 
L 83.376 306.5296 
Q 86.688 306.5296 86.688 304.8512 
L 86.688 277.9968 
Q 86.688 276.3184 83.376 276.3184 
L 33.696 276.3184 
Q 30.384 276.3184 30.384 277.9968 
L 30.384 304.8512 
Q 30.384 306.5296 33.696 306.5296 
z
" clip-path="url(#p63bb397c7b)" style="fill: #e6fffa; stroke: #2c7a7b; stroke-width: 1.4; stroke-linejoin: miter"/>
   </g>
   <g id="patch_16">
    <path d="M 106.56 306.5296 
L 156.24 306.5296 
Q 159.552 306.5296 159.552 304.8512 
L 159.552 277.9968 
Q 159.552 276.3184 156.24 276.3184 
L 106.56 276.3184 
Q 103.248 276.3184 103.248 277.9968 
L 103.248 304.8512 
Q 103.248 306.5296 106.56 306.5296 
z
" clip-path="url(#p63bb397c7b)" style="fill: #e6fffa; stroke: #2c7a7b; stroke-width: 1.4; stroke-linejoin: miter"/>
   </g>
   <g id="patch_17">
    <path d="M 232.416 306.5296 
L 282.096 306.5296 
Q 285.408 306.5296 285.408 304.8512 
L 285.408 277.9968 
Q 285.408 276.3184 282.096 276.3184 
L 232.416 276.3184 
Q 229.104 276.3184 229.104 277.9968 
L 229.104 304.8512 
Q 229.104 306.5296 232.416 306.5296 
z
" clip-path="url(#p63bb397c7b)" style="fill: #e6fffa; stroke: #2c7a7b; stroke-width: 1.4; stroke-linejoin: miter"/>
   </g>
   <g id="patch_18">
    <path d="M 378.144 306.5296 
L 427.824 306.5296 
Q 431.136 306.5296 431.136 304.8512 
L 431.136 277.9968 
Q 431.136 276.3184 427.824 276.3184 
L 378.144 276.3184 
Q 374.832 276.3184 374.832 277.9968 
L 374.832 304.8512 
Q 374.832 306.5296 378.144 306.5296 
z
" clip-path="url(#p63bb397c7b)" style="fill: #e6fffa; stroke: #2c7a7b; stroke-width: 1.4; stroke-linejoin: miter"/>
   </g>
   <g id="patch_19">
    <path d="M 451.008 306.5296 
L 500.688 306.5296 
Q 504 306.5296 504 304.8512 
L 504 277.9968 
Q 504 276.3184 500.688 276.3184 
L 451.008 276.3184 
Q 447.696 276.3184 447.696 277.9968 
L 447.696 304.8512 
Q 447.696 306.5296 451.008 306.5296 
z
" clip-path="url(#p63bb397c7b)" style="fill: #e6fffa; stroke: #2c7a7b; stroke-width: 1.4; stroke-linejoin: miter"/>
   </g>
   <g id="patch_20">
    <path d="M 537.12 306.5296 
L 586.8 306.5296 
Q 590.112 306.5296 590.112 304.8512 
L 590.112 277.9968 
Q 590.112 276.3184 586.8 276.3184 
L 537.12 276.3184 
Q 533.808 276.3184 533.808 277.9968 
L 533.808 304.8512 
Q 533.808 306.5296 537.12 306.5296 
z
" clip-path="url(#p63bb397c7b)" style="fill: #e6fffa; stroke: #2c7a7b; stroke-width: 1.4; stroke-linejoin: miter"/>
   </g>
   <g id="line2d_1">
    <path d="M 338.4 69.8752 
L 172.8 116.8704 
" clip-path="url(#p63bb397c7b)" style="fill: none; stroke: #8888aa; stroke-linecap: square"/>
   </g>
   <g id="line2d_2">
    <path d="M 338.4 69.8752 
L 504 116.8704 
" clip-path="url(#p63bb397c7b)" style="fill: none; stroke: #8888aa; stroke-linecap: square"/>
   </g>
   <g id="line2d_3">
    <path d="M 172.8 150.4384 
L 86.688 200.7904 
" clip-path="url(#p63bb397c7b)" style="fill: none; stroke: #8888aa; stroke-linecap: square"/>
   </g>
   <g id="line2d_4">
    <path d="M 172.8 150.4384 
L 202.608 200.7904 
" clip-path="url(#p63bb397c7b)" style="fill: none; stroke: #8888aa; stroke-linecap: square"/>
   </g>
   <g id="line2d_5">
    <path d="M 504 150.4384 
L 431.136 200.7904 
" clip-path="url(#p63bb397c7b)" style="fill: none; stroke: #8888aa; stroke-linecap: square"/>
   </g>
   <g id="line2d_6">
    <path d="M 504 150.4384 
L 540.432 200.7904 
" clip-path="url(#p63bb397c7b)" style="fill: none; stroke: #8888aa; stroke-linecap: square"/>
   </g>
   <g id="line2d_7">
    <path d="M 86.688 231.0016 
L 56.88 277.9968 
" clip-path="url(#p63bb397c7b)" style="fill: none; stroke: #8888aa; stroke-linecap: square"/>
   </g>
   <g id="line2d_8">
    <path d="M 86.688 231.0016 
L 129.744 277.9968 
" clip-path="url(#p63bb397c7b)" style="fill: none; stroke: #8888aa; stroke-linecap: square"/>
   </g>
   <g id="line2d_9">
    <path d="M 202.608 231.0016 
L 255.6 277.9968 
" clip-path="url(#p63bb397c7b)" style="fill: none; stroke: #8888aa; stroke-linecap: square"/>
   </g>
   <g id="line2d_10">
    <path d="M 431.136 231.0016 
L 401.328 277.9968 
" clip-path="url(#p63bb397c7b)" style="fill: none; stroke: #8888aa; stroke-linecap: square"/>
   </g>
   <g id="line2d_11">
    <path d="M 431.136 231.0016 
L 474.192 277.9968 
" clip-path="url(#p63bb397c7b)" style="fill: none; stroke: #8888aa; stroke-linecap: square"/>
   </g>
   <g id="line2d_12">
    <path d="M 540.432 231.0016 
L 560.304 277.9968 
" clip-path="url(#p63bb397c7b)" style="fill: none; stroke: #8888aa; stroke-linecap: square"/>
   </g>
   <g id="text_1">
    <text style="font-size: 8.5px; font-family: 'Noto Sans CJK SC', 'DejaVu Sans', sans-serif; text-anchor: middle" x="272.16" y="333.2572" transform="rotate(-0 272.16 333.2572)">1</text>
   </g>
   <g id="text_2">
    <text style="font-size: 8.5px; font-family: 'Noto Sans CJK SC', 'DejaVu Sans', sans-serif; text-anchor: middle" x="325.152" y="333.2572" transform="rotate(-0 325.152 333.2572)">3</text>
   </g>
   <g id="text_3">
    <text style="font-size: 8.5px; font-family: 'Noto Sans CJK SC', 'DejaVu Sans', sans-serif; text-anchor: middle" x="378.144" y="333.2572" transform="rotate(-0 378.144 333.2572)">5</text>
   </g>
   <g id="text_4">
    <text style="font-size: 8.5px; font-family: 'Noto Sans CJK SC', 'DejaVu Sans', sans-serif; text-anchor: middle" x="431.136" y="333.2572" transform="rotate(-0 431.136 333.2572)">7</text>
   </g>
   <g id="text_5">
    <text style="font-size: 8.5px; font-family: 'Noto Sans CJK SC', 'DejaVu Sans', sans-serif; text-anchor: middle" x="484.128" y="333.2572" transform="rotate(-0 484.128 333.2572)">9</text>
   </g>
   <g id="text_6">
    <text style="font-size: 8.5px; font-family: 'Noto Sans CJK SC', 'DejaVu Sans', sans-serif; text-anchor: middle" x="537.12" y="333.2572" transform="rotate(-0 537.12 333.2572)">11</text>
   </g>
   <g id="text_7">
    <text style="font-size: 9px; font-family: 'Noto Sans CJK SC', 'DejaVu Sans', sans-serif; text-anchor: start" x="272.16" y="358.56" transform="rotate(-0 272.16 358.56)">原始数组 a[0..5]</text>
   </g>
   <g id="text_8">
    <text style="font-size: 8.5px; font-family: 'Noto Sans CJK SC', 'DejaVu Sans', sans-serif" transform="translate(322.819766 50.3928)">sum=36</text>
    <text style="font-size: 8.5px; font-family: 'Noto Sans CJK SC', 'DejaVu Sans', sans-serif" transform="translate(309.513281 58.8928)">min=1 max=11</text>
   </g>
   <g id="text_9">
    <text style="font-size: 8.5px; font-family: 'Noto Sans CJK SC', 'DejaVu Sans', sans-serif" transform="translate(159.578516 132.6344)">sum=9</text>
    <text style="font-size: 8.5px; font-family: 'Noto Sans CJK SC', 'DejaVu Sans', sans-serif" transform="translate(146.272031 141.1344)">min=1 max=5</text>
   </g>
   <g id="text_10">
    <text style="font-size: 8.5px; font-family: 'Noto Sans CJK SC', 'DejaVu Sans', sans-serif" transform="translate(488.419766 132.6344)">sum=27</text>
    <text style="font-size: 8.5px; font-family: 'Noto Sans CJK SC', 'DejaVu Sans', sans-serif" transform="translate(475.113281 141.1344)">min=7 max=11</text>
   </g>
   <g id="text_11">
    <text style="font-size: 8.5px; font-family: 'Noto Sans CJK SC', 'DejaVu Sans', sans-serif" transform="translate(73.466516 210.626)">sum=4</text>
    <text style="font-size: 8.5px; font-family: 'Noto Sans CJK SC', 'DejaVu Sans', sans-serif" transform="translate(74.274016 219.126)">min=1</text>
    <text style="font-size: 8.5px; font-family: 'Noto Sans CJK SC', 'DejaVu Sans', sans-serif" transform="translate(73.526281 227.626)">max=3</text>
   </g>
   <g id="text_12">
    <text style="font-size: 8.5px; font-family: 'Noto Sans CJK SC', 'DejaVu Sans', sans-serif; text-anchor: middle" x="202.608" y="219.126" transform="rotate(-0 202.608 219.126)">5</text>
   </g>
   <g id="text_13">
    <text style="font-size: 8.5px; font-family: 'Noto Sans CJK SC', 'DejaVu Sans', sans-serif" transform="translate(415.555766 210.626)">sum=16</text>
    <text style="font-size: 8.5px; font-family: 'Noto Sans CJK SC', 'DejaVu Sans', sans-serif" transform="translate(418.722016 219.126)">min=7</text>
    <text style="font-size: 8.5px; font-family: 'Noto Sans CJK SC', 'DejaVu Sans', sans-serif" transform="translate(417.974281 227.626)">max=9</text>
   </g>
   <g id="text_14">
    <text style="font-size: 8.5px; font-family: 'Noto Sans CJK SC', 'DejaVu Sans', sans-serif; text-anchor: middle" x="540.432" y="219.126" transform="rotate(-0 540.432 219.126)">11</text>
   </g>
   <g id="text_15">
    <text style="font-size: 8.5px; font-family: 'Noto Sans CJK SC', 'DejaVu Sans', sans-serif; text-anchor: middle" x="58.536" y="294.654" transform="rotate(-0 58.536 294.654)">1</text>
   </g>
   <g id="text_16">
    <text style="font-size: 8.5px; font-family: 'Noto Sans CJK SC', 'DejaVu Sans', sans-serif; text-anchor: middle" x="131.4" y="294.654" transform="rotate(-0 131.4 294.654)">3</text>
   </g>
   <g id="text_17">
    <text style="font-size: 8.5px; font-family: 'Noto Sans CJK SC', 'DejaVu Sans', sans-serif; text-anchor: middle" x="257.256" y="294.654" transform="rotate(-0 257.256 294.654)">5</text>
   </g>
   <g id="text_18">
    <text style="font-size: 8.5px; font-family: 'Noto Sans CJK SC', 'DejaVu Sans', sans-serif; text-anchor: middle" x="402.984" y="294.654" transform="rotate(-0 402.984 294.654)">7</text>
   </g>
   <g id="text_19">
    <text style="font-size: 8.5px; font-family: 'Noto Sans CJK SC', 'DejaVu Sans', sans-serif; text-anchor: middle" x="475.848" y="294.654" transform="rotate(-0 475.848 294.654)">9</text>
   </g>
   <g id="text_20">
    <text style="font-size: 8.5px; font-family: 'Noto Sans CJK SC', 'DejaVu Sans', sans-serif; text-anchor: middle" x="561.96" y="294.654" transform="rotate(-0 561.96 294.654)">11</text>
   </g>
   <g id="text_21">
    <text style="font-size: 10px; font-family: 'Noto Sans CJK SC', 'DejaVu Sans', sans-serif; text-anchor: start; fill: #b7791f" x="13.824" y="46.3776" transform="rotate(-0 13.824 46.3776)">合并函数只是 m = max(l,r) / min / gcd / xor / +</text>
   </g>
   <g id="text_22">
    <text style="font-size: 11px; font-family: 'Noto Sans CJK SC', 'DejaVu Sans', sans-serif; text-anchor: middle" x="338.4" y="16.88" transform="rotate(-0 338.4 16.88)">线段树节点可存多种聚合：sum / min / max / gcd / xor（只需改合并函数）</text>
   </g>
  </g>
 </g>
 <defs>
  <clipPath id="p63bb397c7b">
   <rect x="7.2" y="22.88" width="662.4" height="335.68"/>
  </clipPath>
 </defs>
</svg>
