<?xml version="1.0" encoding="utf-8" standalone="no"?>
<!DOCTYPE svg PUBLIC "-//W3C//DTD SVG 1.1//EN"
  "http://www.w3.org/Graphics/SVG/1.1/DTD/svg11.dtd">
<svg xmlns:xlink="http://www.w3.org/1999/xlink" width="860.653125pt" height="424.5925pt" viewBox="0 0 860.653125 424.5925" xmlns="http://www.w3.org/2000/svg" version="1.1">
 <metadata>
  <rdf:RDF xmlns:dc="http://purl.org/dc/elements/1.1/" xmlns:cc="http://creativecommons.org/ns#" xmlns:rdf="http://www.w3.org/1999/02/22-rdf-syntax-ns#">
   <cc:Work>
    <dc:type rdf:resource="http://purl.org/dc/dcmitype/StillImage"/>
    <dc:date>2026-08-12T19:08:09.259023</dc:date>
    <dc:format>image/svg+xml</dc:format>
    <dc:creator>
     <cc:Agent>
      <dc:title>Matplotlib v3.11.1, https://matplotlib.org/</dc:title>
     </cc:Agent>
    </dc:creator>
   </cc:Work>
  </rdf:RDF>
 </metadata>
 <defs>
  <style type="text/css">*{stroke-linejoin: round; stroke-linecap: butt}</style>
 </defs>
 <g id="figure_1">
  <g id="patch_1">
   <path d="M 0 424.5925 
L 860.653125 424.5925 
L 860.653125 0 
L 0 0 
z
" style="fill: #ffffff"/>
  </g>
  <g id="axes_1">
   <g id="patch_2">
    <path d="M 35.408438 229.33625 
L 73.019688 229.33625 
L 73.019688 182.322187 
L 35.408438 182.322187 
z
" clip-path="url(#p9d5efd0f08)" style="fill: #55a868; opacity: 0.7; stroke: #000000; stroke-width: 1.5; stroke-linejoin: miter"/>
   </g>
   <g id="patch_3">
    <path d="M 82.4225 229.33625 
L 120.03375 229.33625 
L 120.03375 182.322187 
L 82.4225 182.322187 
z
" clip-path="url(#p9d5efd0f08)" style="fill: #c44e52; opacity: 0.7; stroke: #000000; stroke-width: 1.5; stroke-linejoin: miter"/>
   </g>
   <g id="patch_4">
    <path d="M 129.436563 229.33625 
L 167.047813 229.33625 
L 167.047813 182.322187 
L 129.436563 182.322187 
z
" clip-path="url(#p9d5efd0f08)" style="fill: #c44e52; opacity: 0.7; stroke: #000000; stroke-width: 1.5; stroke-linejoin: miter"/>
   </g>
   <g id="patch_5">
    <path d="M 176.450625 229.33625 
L 214.061875 229.33625 
L 214.061875 182.322187 
L 176.450625 182.322187 
z
" clip-path="url(#p9d5efd0f08)" style="fill: #c44e52; opacity: 0.7; stroke: #000000; stroke-width: 1.5; stroke-linejoin: miter"/>
   </g>
   <g id="patch_6">
    <path d="M 223.464687 229.33625 
L 261.075938 229.33625 
L 261.075938 182.322187 
L 223.464687 182.322187 
z
" clip-path="url(#p9d5efd0f08)" style="fill: #c44e52; opacity: 0.7; stroke: #000000; stroke-width: 1.5; stroke-linejoin: miter"/>
   </g>
   <g id="patch_7">
    <path d="M 270.47875 229.33625 
L 308.09 229.33625 
L 308.09 182.322187 
L 270.47875 182.322187 
z
" clip-path="url(#p9d5efd0f08)" style="fill: #c44e52; opacity: 0.7; stroke: #000000; stroke-width: 1.5; stroke-linejoin: miter"/>
   </g>
   <g id="patch_8">
    <path d="M 317.492812 229.33625 
L 355.104062 229.33625 
L 355.104062 182.322187 
L 317.492812 182.322187 
z
" clip-path="url(#p9d5efd0f08)" style="fill: #c44e52; opacity: 0.7; stroke: #000000; stroke-width: 1.5; stroke-linejoin: miter"/>
   </g>
   <g id="patch_9">
    <path d="M 364.506875 229.33625 
L 402.118125 229.33625 
L 402.118125 182.322187 
L 364.506875 182.322187 
z
" clip-path="url(#p9d5efd0f08)" style="fill: #c44e52; opacity: 0.7; stroke: #000000; stroke-width: 1.5; stroke-linejoin: miter"/>
   </g>
   <g id="patch_10">
    <path d="M 411.520937 229.33625 
L 449.132187 229.33625 
L 449.132187 182.322187 
L 411.520937 182.322187 
z
" clip-path="url(#p9d5efd0f08)" style="fill: #c44e52; opacity: 0.7; stroke: #000000; stroke-width: 1.5; stroke-linejoin: miter"/>
   </g>
   <g id="patch_11">
    <path d="M 458.535 229.33625 
L 496.14625 229.33625 
L 496.14625 182.322187 
L 458.535 182.322187 
z
" clip-path="url(#p9d5efd0f08)" style="fill: #c44e52; opacity: 0.7; stroke: #000000; stroke-width: 1.5; stroke-linejoin: miter"/>
   </g>
   <g id="patch_12">
    <path d="M 505.549062 229.33625 
L 543.160312 229.33625 
L 543.160312 182.322187 
L 505.549062 182.322187 
z
" clip-path="url(#p9d5efd0f08)" style="fill: #55a868; opacity: 0.7; stroke: #000000; stroke-width: 1.5; stroke-linejoin: miter"/>
   </g>
   <g id="patch_13">
    <path d="M 552.563125 229.33625 
L 590.174375 229.33625 
L 590.174375 182.322187 
L 552.563125 182.322187 
z
" clip-path="url(#p9d5efd0f08)" style="fill: #c44e52; opacity: 0.7; stroke: #000000; stroke-width: 1.5; stroke-linejoin: miter"/>
   </g>
   <g id="patch_14">
    <path d="M 599.577188 229.33625 
L 637.188438 229.33625 
L 637.188438 182.322187 
L 599.577188 182.322187 
z
" clip-path="url(#p9d5efd0f08)" style="fill: #55a868; opacity: 0.7; stroke: #000000; stroke-width: 1.5; stroke-linejoin: miter"/>
   </g>
   <g id="patch_15">
    <path d="M 646.59125 229.33625 
L 684.2025 229.33625 
L 684.2025 182.322187 
L 646.59125 182.322187 
z
" clip-path="url(#p9d5efd0f08)" style="fill: #c44e52; opacity: 0.7; stroke: #000000; stroke-width: 1.5; stroke-linejoin: miter"/>
   </g>
   <g id="patch_16">
    <path d="M 693.605312 229.33625 
L 731.216562 229.33625 
L 731.216562 182.322187 
L 693.605312 182.322187 
z
" clip-path="url(#p9d5efd0f08)" style="fill: #55a868; opacity: 0.7; stroke: #000000; stroke-width: 1.5; stroke-linejoin: miter"/>
   </g>
   <g id="patch_17">
    <path d="M 740.619375 229.33625 
L 778.230625 229.33625 
L 778.230625 182.322187 
L 740.619375 182.322187 
z
" clip-path="url(#p9d5efd0f08)" style="fill: #55a868; opacity: 0.7; stroke: #000000; stroke-width: 1.5; stroke-linejoin: miter"/>
   </g>
   <g id="text_1">
    <!-- 1 -->
    <g style="fill: #ffffff" transform="translate(50.674063 210.389219) scale(0.12 -0.12)">
     <defs>
      <path id="NotoSansCJKsc-Bold-12" d="M 525 0 
L 3373 0 
L 3373 768 
L 2483 768 
L 2483 4742 
L 1786 4742 
C 1485 4550 1165 4429 685 4346 
L 685 3757 
L 1549 3757 
L 1549 768 
L 525 768 
L 525 0 
z
" transform="scale(0.015625)"/>
     </defs>
     <use xlink:href="#NotoSansCJKsc-Bold-12"/>
    </g>
   </g>
   <g id="text_2">
    <!-- 0 -->
    <g transform="translate(51.716563 265.666094) scale(0.09 -0.09)">
     <defs>
      <path id="NotoSansCJKsc-Regular-11" d="M 1779 -83 
C 2669 -83 3238 723 3238 2362 
C 3238 3987 2669 4774 1779 4774 
C 883 4774 320 3987 320 2362 
C 320 723 883 -83 1779 -83 
z
M 1779 390 
C 1248 390 883 986 883 2362 
C 883 3731 1248 4314 1779 4314 
C 2310 4314 2675 3731 2675 2362 
C 2675 986 2310 390 1779 390 
z
" transform="scale(0.015625)"/>
     </defs>
     <use xlink:href="#NotoSansCJKsc-Regular-11"/>
    </g>
   </g>
   <g id="text_3">
    <!-- 0 -->
    <g style="fill: #ffffff" transform="translate(97.688125 210.389219) scale(0.12 -0.12)">
     <defs>
      <path id="NotoSansCJKsc-Bold-11" d="M 1888 -90 
C 2854 -90 3494 755 3494 2394 
C 3494 4019 2854 4826 1888 4826 
C 922 4826 282 4026 282 2394 
C 282 755 922 -90 1888 -90 
z
M 1888 646 
C 1478 646 1171 1056 1171 2394 
C 1171 3712 1478 4102 1888 4102 
C 2298 4102 2598 3712 2598 2394 
C 2598 1056 2298 646 1888 646 
z
" transform="scale(0.015625)"/>
     </defs>
     <use xlink:href="#NotoSansCJKsc-Bold-11"/>
    </g>
   </g>
   <g id="text_4">
    <!-- 1 -->
    <g transform="translate(98.730625 265.666094) scale(0.09 -0.09)">
     <defs>
      <path id="NotoSansCJKsc-Regular-12" d="M 563 0 
L 3136 0 
L 3136 486 
L 2195 486 
L 2195 4691 
L 1747 4691 
C 1491 4544 1190 4435 774 4358 
L 774 3987 
L 1613 3987 
L 1613 486 
L 563 486 
L 563 0 
z
" transform="scale(0.015625)"/>
     </defs>
     <use xlink:href="#NotoSansCJKsc-Regular-12"/>
    </g>
   </g>
   <g id="text_5">
    <!-- 0 -->
    <g style="fill: #ffffff" transform="translate(144.702188 210.389219) scale(0.12 -0.12)">
     <use xlink:href="#NotoSansCJKsc-Bold-11"/>
    </g>
   </g>
   <g id="text_6">
    <!-- 2 -->
    <g transform="translate(145.744687 265.666094) scale(0.09 -0.09)">
     <defs>
      <path id="NotoSansCJKsc-Regular-13" d="M 282 0 
L 3232 0 
L 3232 506 
L 1933 506 
C 1696 506 1408 480 1165 461 
C 2266 1504 3008 2458 3008 3398 
C 3008 4230 2477 4774 1638 4774 
C 1043 4774 634 4506 256 4090 
L 595 3757 
C 858 4070 1184 4301 1568 4301 
C 2150 4301 2432 3910 2432 3373 
C 2432 2566 1754 1632 282 346 
L 282 0 
z
" transform="scale(0.015625)"/>
     </defs>
     <use xlink:href="#NotoSansCJKsc-Regular-13"/>
    </g>
   </g>
   <g id="text_7">
    <!-- 0 -->
    <g style="fill: #ffffff" transform="translate(191.71625 210.389219) scale(0.12 -0.12)">
     <use xlink:href="#NotoSansCJKsc-Bold-11"/>
    </g>
   </g>
   <g id="text_8">
    <!-- 3 -->
    <g transform="translate(192.75875 265.666094) scale(0.09 -0.09)">
     <defs>
      <path id="NotoSansCJKsc-Regular-14" d="M 1683 -83 
C 2522 -83 3194 416 3194 1254 
C 3194 1901 2752 2310 2202 2445 
L 2202 2477 
C 2701 2650 3034 3034 3034 3603 
C 3034 4346 2458 4774 1664 4774 
C 1126 4774 710 4538 358 4218 
L 672 3846 
C 941 4115 1267 4301 1645 4301 
C 2138 4301 2438 4006 2438 3558 
C 2438 3053 2112 2662 1139 2662 
L 1139 2214 
C 2227 2214 2598 1843 2598 1274 
C 2598 736 2208 403 1645 403 
C 1114 403 762 659 486 941 
L 186 563 
C 493 224 954 -83 1683 -83 
z
" transform="scale(0.015625)"/>
     </defs>
     <use xlink:href="#NotoSansCJKsc-Regular-14"/>
    </g>
   </g>
   <g id="text_9">
    <!-- 0 -->
    <g style="fill: #ffffff" transform="translate(238.730312 210.389219) scale(0.12 -0.12)">
     <use xlink:href="#NotoSansCJKsc-Bold-11"/>
    </g>
   </g>
   <g id="text_10">
    <!-- 4 -->
    <g transform="translate(239.772812 265.666094) scale(0.09 -0.09)">
     <defs>
      <path id="NotoSansCJKsc-Regular-15" d="M 2176 0 
L 2726 0 
L 2726 1293 
L 3354 1293 
L 3354 1760 
L 2726 1760 
L 2726 4691 
L 2080 4691 
L 128 1677 
L 128 1293 
L 2176 1293 
L 2176 0 
z
M 2176 1760 
L 736 1760 
L 1805 3360 
C 1939 3590 2067 3827 2182 4051 
L 2208 4051 
C 2195 3814 2176 3430 2176 3200 
L 2176 1760 
z
" transform="scale(0.015625)"/>
     </defs>
     <use xlink:href="#NotoSansCJKsc-Regular-15"/>
    </g>
   </g>
   <g id="text_11">
    <!-- 0 -->
    <g style="fill: #ffffff" transform="translate(285.744375 210.389219) scale(0.12 -0.12)">
     <use xlink:href="#NotoSansCJKsc-Bold-11"/>
    </g>
   </g>
   <g id="text_12">
    <!-- 5 -->
    <g transform="translate(286.786875 265.666094) scale(0.09 -0.09)">
     <defs>
      <path id="NotoSansCJKsc-Regular-16" d="M 1677 -83 
C 2464 -83 3213 499 3213 1523 
C 3213 2560 2573 3021 1798 3021 
C 1517 3021 1306 2950 1094 2835 
L 1216 4192 
L 2982 4192 
L 2982 4691 
L 704 4691 
L 550 2502 
L 864 2304 
C 1133 2483 1331 2579 1645 2579 
C 2234 2579 2618 2182 2618 1510 
C 2618 826 2176 403 1619 403 
C 1075 403 730 653 467 922 
L 173 538 
C 493 224 941 -83 1677 -83 
z
" transform="scale(0.015625)"/>
     </defs>
     <use xlink:href="#NotoSansCJKsc-Regular-16"/>
    </g>
   </g>
   <g id="text_13">
    <!-- 0 -->
    <g style="fill: #ffffff" transform="translate(332.758437 210.389219) scale(0.12 -0.12)">
     <use xlink:href="#NotoSansCJKsc-Bold-11"/>
    </g>
   </g>
   <g id="text_14">
    <!-- 6 -->
    <g transform="translate(333.800937 265.666094) scale(0.09 -0.09)">
     <defs>
      <path id="NotoSansCJKsc-Regular-17" d="M 1926 -83 
C 2656 -83 3277 531 3277 1440 
C 3277 2426 2765 2912 1971 2912 
C 1606 2912 1197 2701 909 2349 
C 934 3802 1466 4294 2118 4294 
C 2400 4294 2682 4154 2861 3936 
L 3194 4294 
C 2931 4576 2579 4774 2093 4774 
C 1184 4774 358 4077 358 2240 
C 358 691 1030 -83 1926 -83 
z
M 922 1882 
C 1229 2317 1587 2477 1875 2477 
C 2445 2477 2720 2074 2720 1440 
C 2720 800 2374 378 1926 378 
C 1338 378 986 909 922 1882 
z
" transform="scale(0.015625)"/>
     </defs>
     <use xlink:href="#NotoSansCJKsc-Regular-17"/>
    </g>
   </g>
   <g id="text_15">
    <!-- 0 -->
    <g style="fill: #ffffff" transform="translate(379.7725 210.389219) scale(0.12 -0.12)">
     <use xlink:href="#NotoSansCJKsc-Bold-11"/>
    </g>
   </g>
   <g id="text_16">
    <!-- 7 -->
    <g transform="translate(380.815 265.666094) scale(0.09 -0.09)">
     <defs>
      <path id="NotoSansCJKsc-Regular-18" d="M 1267 0 
L 1875 0 
C 1952 1837 2150 2931 3251 4339 
L 3251 4691 
L 314 4691 
L 314 4192 
L 2592 4192 
C 1670 2912 1350 1779 1267 0 
z
" transform="scale(0.015625)"/>
     </defs>
     <use xlink:href="#NotoSansCJKsc-Regular-18"/>
    </g>
   </g>
   <g id="text_17">
    <!-- 0 -->
    <g style="fill: #ffffff" transform="translate(426.786562 210.389219) scale(0.12 -0.12)">
     <use xlink:href="#NotoSansCJKsc-Bold-11"/>
    </g>
   </g>
   <g id="text_18">
    <!-- 8 -->
    <g transform="translate(427.829062 265.666094) scale(0.09 -0.09)">
     <defs>
      <path id="NotoSansCJKsc-Regular-19" d="M 1792 -83 
C 2669 -83 3258 448 3258 1126 
C 3258 1773 2880 2125 2470 2362 
L 2470 2394 
C 2746 2611 3091 3034 3091 3526 
C 3091 4250 2605 4762 1805 4762 
C 1075 4762 518 4282 518 3571 
C 518 3078 813 2726 1152 2490 
L 1152 2464 
C 723 2234 294 1792 294 1165 
C 294 442 922 -83 1792 -83 
z
M 2112 2547 
C 1555 2765 1050 3014 1050 3571 
C 1050 4026 1363 4326 1798 4326 
C 2298 4326 2592 3962 2592 3494 
C 2592 3149 2426 2829 2112 2547 
z
M 1798 352 
C 1235 352 813 717 813 1216 
C 813 1664 1082 2035 1459 2278 
C 2125 2010 2701 1779 2701 1146 
C 2701 678 2342 352 1798 352 
z
" transform="scale(0.015625)"/>
     </defs>
     <use xlink:href="#NotoSansCJKsc-Regular-19"/>
    </g>
   </g>
   <g id="text_19">
    <!-- 0 -->
    <g style="fill: #ffffff" transform="translate(473.800625 210.389219) scale(0.12 -0.12)">
     <use xlink:href="#NotoSansCJKsc-Bold-11"/>
    </g>
   </g>
   <g id="text_20">
    <!-- 9 -->
    <g transform="translate(474.843125 265.666094) scale(0.09 -0.09)">
     <defs>
      <path id="NotoSansCJKsc-Regular-1a" d="M 1504 -83 
C 2381 -83 3206 646 3206 2547 
C 3206 4038 2528 4774 1626 4774 
C 896 4774 282 4166 282 3251 
C 282 2285 794 1779 1574 1779 
C 1965 1779 2368 2003 2656 2349 
C 2611 896 2086 403 1485 403 
C 1178 403 896 538 691 762 
L 371 397 
C 634 122 992 -83 1504 -83 
z
M 2650 2842 
C 2336 2394 1984 2214 1670 2214 
C 1114 2214 832 2624 832 3251 
C 832 3898 1178 4320 1632 4320 
C 2227 4320 2586 3808 2650 2842 
z
" transform="scale(0.015625)"/>
     </defs>
     <use xlink:href="#NotoSansCJKsc-Regular-1a"/>
    </g>
   </g>
   <g id="text_21">
    <!-- 1 -->
    <g style="fill: #ffffff" transform="translate(520.814687 210.389219) scale(0.12 -0.12)">
     <use xlink:href="#NotoSansCJKsc-Bold-12"/>
    </g>
   </g>
   <g id="text_22">
    <!-- 10 -->
    <g transform="translate(519.359687 265.666094) scale(0.09 -0.09)">
     <use xlink:href="#NotoSansCJKsc-Regular-12"/>
     <use xlink:href="#NotoSansCJKsc-Regular-11" transform="translate(55.5 0)"/>
    </g>
   </g>
   <g id="text_23">
    <!-- 0 -->
    <g style="fill: #ffffff" transform="translate(567.82875 210.389219) scale(0.12 -0.12)">
     <use xlink:href="#NotoSansCJKsc-Bold-11"/>
    </g>
   </g>
   <g id="text_24">
    <!-- 11 -->
    <g transform="translate(566.37375 265.666094) scale(0.09 -0.09)">
     <use xlink:href="#NotoSansCJKsc-Regular-12"/>
     <use xlink:href="#NotoSansCJKsc-Regular-12" transform="translate(55.5 0)"/>
    </g>
   </g>
   <g id="text_25">
    <!-- 1 -->
    <g style="fill: #ffffff" transform="translate(614.842813 210.389219) scale(0.12 -0.12)">
     <use xlink:href="#NotoSansCJKsc-Bold-12"/>
    </g>
   </g>
   <g id="text_26">
    <!-- 12 -->
    <g transform="translate(613.387812 265.666094) scale(0.09 -0.09)">
     <use xlink:href="#NotoSansCJKsc-Regular-12"/>
     <use xlink:href="#NotoSansCJKsc-Regular-13" transform="translate(55.5 0)"/>
    </g>
   </g>
   <g id="text_27">
    <!-- 0 -->
    <g style="fill: #ffffff" transform="translate(661.856875 210.389219) scale(0.12 -0.12)">
     <use xlink:href="#NotoSansCJKsc-Bold-11"/>
    </g>
   </g>
   <g id="text_28">
    <!-- 13 -->
    <g transform="translate(660.401875 265.666094) scale(0.09 -0.09)">
     <use xlink:href="#NotoSansCJKsc-Regular-12"/>
     <use xlink:href="#NotoSansCJKsc-Regular-14" transform="translate(55.5 0)"/>
    </g>
   </g>
   <g id="text_29">
    <!-- 1 -->
    <g style="fill: #ffffff" transform="translate(708.870937 210.389219) scale(0.12 -0.12)">
     <use xlink:href="#NotoSansCJKsc-Bold-12"/>
    </g>
   </g>
   <g id="text_30">
    <!-- 14 -->
    <g transform="translate(707.415937 265.666094) scale(0.09 -0.09)">
     <use xlink:href="#NotoSansCJKsc-Regular-12"/>
     <use xlink:href="#NotoSansCJKsc-Regular-15" transform="translate(55.5 0)"/>
    </g>
   </g>
   <g id="text_31">
    <!-- 1 -->
    <g style="fill: #ffffff" transform="translate(755.885 210.389219) scale(0.12 -0.12)">
     <use xlink:href="#NotoSansCJKsc-Bold-12"/>
    </g>
   </g>
   <g id="text_32">
    <!-- 15 -->
    <g transform="translate(754.43 265.666094) scale(0.09 -0.09)">
     <use xlink:href="#NotoSansCJKsc-Regular-12"/>
     <use xlink:href="#NotoSansCJKsc-Regular-16" transform="translate(55.5 0)"/>
    </g>
   </g>
   <g id="text_33">
    <!-- 插入 "apple": -->
    <g style="fill: #4c72b0" transform="translate(30.707031 138.965625) scale(0.11 -0.11)">
     <defs>
      <path id="NotoSansCJKsc-Bold-4b24" d="M 4749 1638 
L 4749 1011 
L 5248 1011 
L 5248 384 
L 4576 384 
L 4576 3258 
L 6131 3258 
L 6131 3949 
L 4576 3949 
L 4576 4550 
C 5062 4614 5523 4698 5914 4806 
L 5536 5427 
C 4768 5210 3565 5069 2515 5005 
C 2592 4838 2682 4570 2701 4397 
C 3072 4410 3475 4435 3872 4474 
L 3872 3949 
L 2342 3949 
L 2342 3258 
L 3872 3258 
L 3872 384 
L 3162 384 
L 3162 1005 
L 3680 1005 
L 3680 1638 
L 3162 1638 
L 3162 2227 
C 3373 2278 3590 2349 3802 2419 
L 3469 3053 
C 3200 2912 2816 2752 2490 2643 
L 2490 -563 
L 3162 -563 
L 3162 -301 
L 5248 -301 
L 5248 -582 
L 5926 -582 
L 5926 2835 
L 4755 2835 
L 4755 2189 
L 5248 2189 
L 5248 1638 
L 4749 1638 
z
M 883 5440 
L 883 4224 
L 282 4224 
L 282 3520 
L 883 3520 
L 883 2323 
L 154 2163 
L 314 1414 
L 883 1574 
L 883 275 
C 883 198 864 173 794 173 
C 730 173 538 173 358 179 
C 448 -19 538 -333 557 -525 
C 928 -525 1190 -506 1382 -384 
C 1574 -262 1626 -70 1626 275 
L 1626 1779 
L 2253 1958 
L 2163 2643 
L 1626 2509 
L 1626 3520 
L 2157 3520 
L 2157 4224 
L 1626 4224 
L 1626 5440 
L 883 5440 
z
" transform="scale(0.015625)"/>
      <path id="NotoSansCJKsc-Bold-2a8d" d="M 1734 4736 
C 2138 4467 2464 4128 2739 3744 
C 2362 2048 1574 806 205 128 
C 410 -19 768 -339 909 -499 
C 2067 186 2861 1267 3366 2733 
C 4019 1530 4570 218 5888 -518 
C 5933 -282 6138 154 6259 365 
C 4192 1670 4262 3910 2214 5402 
L 1734 4736 
z
" transform="scale(0.015625)"/>
      <path id="NotoSansCJKsc-Bold-1" transform="scale(0.015625)"/>
      <path id="NotoSansCJKsc-Bold-f686" d="M 781 3360 
L 1299 3360 
L 1491 4755 
L 1517 5632 
L 557 5632 
L 589 4755 
L 781 3360 
z
M 2374 3360 
L 2906 3360 
L 3091 4755 
L 3117 5632 
L 2163 5632 
L 2195 4755 
L 2374 3360 
z
" transform="scale(0.015625)"/>
      <path id="NotoSansCJKsc-Bold-42" d="M 1382 -90 
C 1798 -90 2157 109 2464 384 
L 2496 384 
L 2560 0 
L 3328 0 
L 3328 2093 
C 3328 3130 2861 3674 1952 3674 
C 1389 3674 877 3456 461 3200 
L 794 2573 
C 1126 2771 1446 2918 1779 2918 
C 2221 2918 2374 2650 2387 2298 
C 947 2144 326 1741 326 979 
C 326 365 742 -90 1382 -90 
z
M 1696 646 
C 1421 646 1222 768 1222 1050 
C 1222 1376 1510 1613 2387 1715 
L 2387 998 
C 2163 774 1965 646 1696 646 
z
" transform="scale(0.015625)"/>
      <path id="NotoSansCJKsc-Bold-51" d="M 506 -1376 
L 1446 -1376 
L 1446 -282 
L 1414 301 
C 1683 51 1990 -90 2304 -90 
C 3091 -90 3827 621 3827 1850 
C 3827 2950 3296 3674 2419 3674 
C 2029 3674 1664 3469 1363 3213 
L 1344 3213 
L 1274 3584 
L 506 3584 
L 506 -1376 
z
M 2099 685 
C 1901 685 1677 755 1446 954 
L 1446 2534 
C 1690 2778 1907 2899 2150 2899 
C 2643 2899 2861 2522 2861 1837 
C 2861 1056 2522 685 2099 685 
z
" transform="scale(0.015625)"/>
      <path id="NotoSansCJKsc-Bold-4d" d="M 1395 -90 
C 1613 -90 1766 -51 1875 -6 
L 1760 691 
C 1696 678 1670 678 1632 678 
C 1542 678 1446 749 1446 966 
L 1446 5107 
L 506 5107 
L 506 1005 
C 506 339 736 -90 1395 -90 
z
" transform="scale(0.015625)"/>
      <path id="NotoSansCJKsc-Bold-46" d="M 2067 -90 
C 2509 -90 2963 64 3315 307 
L 2995 883 
C 2733 723 2483 640 2195 640 
C 1658 640 1274 941 1197 1523 
L 3405 1523 
C 3430 1613 3450 1786 3450 1958 
C 3450 2957 2938 3674 1952 3674 
C 1101 3674 282 2950 282 1792 
C 282 608 1062 -90 2067 -90 
z
M 1178 2157 
C 1254 2675 1587 2944 1965 2944 
C 2432 2944 2643 2637 2643 2157 
L 1178 2157 
z
" transform="scale(0.015625)"/>
      <path id="NotoSansCJKsc-Bold-1b" d="M 1043 2342 
C 1376 2342 1626 2605 1626 2950 
C 1626 3302 1376 3565 1043 3565 
C 704 3565 454 3302 454 2950 
C 454 2605 704 2342 1043 2342 
z
M 1043 -90 
C 1376 -90 1626 179 1626 525 
C 1626 877 1376 1139 1043 1139 
C 704 1139 454 877 454 525 
C 454 179 704 -90 1043 -90 
z
" transform="scale(0.015625)"/>
     </defs>
     <use xlink:href="#NotoSansCJKsc-Bold-4b24"/>
     <use xlink:href="#NotoSansCJKsc-Bold-2a8d" transform="translate(100 0)"/>
     <use xlink:href="#NotoSansCJKsc-Bold-1" transform="translate(200 0)"/>
     <use xlink:href="#NotoSansCJKsc-Bold-f686" transform="translate(222.703125 0)"/>
     <use xlink:href="#NotoSansCJKsc-Bold-42" transform="translate(280.40625 0)"/>
     <use xlink:href="#NotoSansCJKsc-Bold-51" transform="translate(339.5 0)"/>
     <use xlink:href="#NotoSansCJKsc-Bold-51" transform="translate(403.90625 0)"/>
     <use xlink:href="#NotoSansCJKsc-Bold-4d" transform="translate(468.3125 0)"/>
     <use xlink:href="#NotoSansCJKsc-Bold-46" transform="translate(499.8125 0)"/>
     <use xlink:href="#NotoSansCJKsc-Bold-f686" transform="translate(557.90625 0)"/>
     <use xlink:href="#NotoSansCJKsc-Bold-1b" transform="translate(615.609375 0)"/>
    </g>
   </g>
   <g id="patch_18">
    <path d="M 512.218405 118.041982 
Q 518.086917 146.851371 523.620685 174.017457 
" style="fill: none; stroke: #4c72b0; stroke-width: 1.5; stroke-linecap: round"/>
    <path d="M 524.665896 170.130616 
L 523.620685 174.017457 
L 521.138339 170.849184 
" style="fill: none; stroke: #4c72b0; stroke-width: 1.5; stroke-linecap: round"/>
   </g>
   <g id="text_34">
    <g id="patch_19">
     <path d="M 497.528828 115.581094 
L 522.972109 115.581094 
Q 525.672109 115.581094 525.672109 112.881094 
L 525.672109 103.881094 
Q 525.672109 101.181094 522.972109 101.181094 
L 497.528828 101.181094 
Q 494.828828 101.181094 494.828828 103.881094 
L 494.828828 112.881094 
Q 494.828828 115.581094 497.528828 115.581094 
z
" style="fill: #ffffe0; opacity: 0.8; stroke: #000000; stroke-linejoin: miter"/>
    </g>
    <!-- h1=10 -->
    <g transform="translate(497.528828 111.801094) scale(0.09 -0.09)">
     <defs>
      <path id="NotoSansCJKsc-Regular-49" d="M 589 0 
L 1178 0 
L 1178 2522 
C 1523 2874 1766 3053 2125 3053 
C 2586 3053 2784 2778 2784 2125 
L 2784 0 
L 3366 0 
L 3366 2202 
C 3366 3085 3034 3565 2304 3565 
C 1830 3565 1472 3302 1152 2982 
L 1178 3699 
L 1178 5094 
L 589 5094 
L 589 0 
z
" transform="scale(0.015625)"/>
      <path id="NotoSansCJKsc-Regular-1e" d="M 243 2912 
L 3315 2912 
L 3315 3347 
L 243 3347 
L 243 2912 
z
M 243 1376 
L 3315 1376 
L 3315 1811 
L 243 1811 
L 243 1376 
z
" transform="scale(0.015625)"/>
     </defs>
     <use xlink:href="#NotoSansCJKsc-Regular-49"/>
     <use xlink:href="#NotoSansCJKsc-Regular-12" transform="translate(60.703125 0)"/>
     <use xlink:href="#NotoSansCJKsc-Regular-1e" transform="translate(116.203125 0)"/>
     <use xlink:href="#NotoSansCJKsc-Regular-12" transform="translate(171.703125 0)"/>
     <use xlink:href="#NotoSansCJKsc-Regular-11" transform="translate(227.203125 0)"/>
    </g>
   </g>
   <g id="patch_20">
    <path d="M 606.970647 136.813002 
Q 612.407516 156.254232 617.392716 174.080379 
" style="fill: none; stroke: #4c72b0; stroke-width: 1.5; stroke-linecap: round"/>
    <path d="M 618.156642 170.128618 
L 617.392716 174.080379 
L 614.689662 171.098182 
" style="fill: none; stroke: #4c72b0; stroke-width: 1.5; stroke-linecap: round"/>
   </g>
   <g id="text_35">
    <g id="patch_21">
     <path d="M 591.556953 134.386719 
L 617.000234 134.386719 
Q 619.700234 134.386719 619.700234 131.686719 
L 619.700234 122.686719 
Q 619.700234 119.986719 617.000234 119.986719 
L 591.556953 119.986719 
Q 588.856953 119.986719 588.856953 122.686719 
L 588.856953 131.686719 
Q 588.856953 134.386719 591.556953 134.386719 
z
" style="fill: #ffffe0; opacity: 0.8; stroke: #000000; stroke-linejoin: miter"/>
    </g>
    <!-- h2=12 -->
    <g transform="translate(591.556953 130.606719) scale(0.09 -0.09)">
     <use xlink:href="#NotoSansCJKsc-Regular-49"/>
     <use xlink:href="#NotoSansCJKsc-Regular-13" transform="translate(60.703125 0)"/>
     <use xlink:href="#NotoSansCJKsc-Regular-1e" transform="translate(116.203125 0)"/>
     <use xlink:href="#NotoSansCJKsc-Regular-12" transform="translate(171.703125 0)"/>
     <use xlink:href="#NotoSansCJKsc-Regular-13" transform="translate(227.203125 0)"/>
    </g>
   </g>
   <g id="patch_22">
    <path d="M 702.555535 155.520231 
Q 707.076003 165.657294 710.913451 174.262696 
" style="fill: none; stroke: #4c72b0; stroke-width: 1.5; stroke-linecap: round"/>
    <path d="M 711.091212 170.241701 
L 710.913451 174.262696 
L 707.803311 171.70789 
" style="fill: none; stroke: #4c72b0; stroke-width: 1.5; stroke-linecap: round"/>
   </g>
   <g id="text_36">
    <g id="patch_23">
     <path d="M 685.585078 153.192344 
L 711.028359 153.192344 
Q 713.728359 153.192344 713.728359 150.492344 
L 713.728359 141.492344 
Q 713.728359 138.792344 711.028359 138.792344 
L 685.585078 138.792344 
Q 682.885078 138.792344 682.885078 141.492344 
L 682.885078 150.492344 
Q 682.885078 153.192344 685.585078 153.192344 
z
" style="fill: #ffffe0; opacity: 0.8; stroke: #000000; stroke-linejoin: miter"/>
    </g>
    <!-- h3=14 -->
    <g transform="translate(685.585078 149.412344) scale(0.09 -0.09)">
     <use xlink:href="#NotoSansCJKsc-Regular-49"/>
     <use xlink:href="#NotoSansCJKsc-Regular-14" transform="translate(60.703125 0)"/>
     <use xlink:href="#NotoSansCJKsc-Regular-1e" transform="translate(116.203125 0)"/>
     <use xlink:href="#NotoSansCJKsc-Regular-12" transform="translate(171.703125 0)"/>
     <use xlink:href="#NotoSansCJKsc-Regular-15" transform="translate(227.203125 0)"/>
    </g>
   </g>
   <g id="text_37">
    <!-- 插入 "banana": -->
    <g style="fill: #dd8452" transform="translate(748.6475 139.488125) scale(0.11 -0.11)">
     <defs>
      <path id="NotoSansCJKsc-Bold-43" d="M 2304 -90 
C 3091 -90 3827 621 3827 1856 
C 3827 2950 3296 3674 2413 3674 
C 2061 3674 1702 3501 1414 3245 
L 1446 3821 
L 1446 5107 
L 506 5107 
L 506 0 
L 1242 0 
L 1318 378 
L 1350 378 
C 1638 77 1984 -90 2304 -90 
z
M 2099 685 
C 1901 685 1664 755 1446 954 
L 1446 2534 
C 1690 2778 1907 2899 2150 2899 
C 2643 2899 2861 2522 2861 1837 
C 2861 1056 2522 685 2099 685 
z
" transform="scale(0.015625)"/>
      <path id="NotoSansCJKsc-Bold-4f" d="M 506 0 
L 1446 0 
L 1446 2464 
C 1709 2726 1901 2867 2189 2867 
C 2541 2867 2694 2675 2694 2118 
L 2694 0 
L 3635 0 
L 3635 2234 
C 3635 3136 3302 3674 2528 3674 
C 2042 3674 1677 3418 1363 3110 
L 1344 3110 
L 1274 3584 
L 506 3584 
L 506 0 
z
" transform="scale(0.015625)"/>
     </defs>
     <use xlink:href="#NotoSansCJKsc-Bold-4b24"/>
     <use xlink:href="#NotoSansCJKsc-Bold-2a8d" transform="translate(100 0)"/>
     <use xlink:href="#NotoSansCJKsc-Bold-1" transform="translate(200 0)"/>
     <use xlink:href="#NotoSansCJKsc-Bold-f686" transform="translate(222.703125 0)"/>
     <use xlink:href="#NotoSansCJKsc-Bold-43" transform="translate(280.40625 0)"/>
     <use xlink:href="#NotoSansCJKsc-Bold-42" transform="translate(343.40625 0)"/>
     <use xlink:href="#NotoSansCJKsc-Bold-4f" transform="translate(402.5 0)"/>
     <use xlink:href="#NotoSansCJKsc-Bold-42" transform="translate(466.59375 0)"/>
     <use xlink:href="#NotoSansCJKsc-Bold-4f" transform="translate(525.6875 0)"/>
     <use xlink:href="#NotoSansCJKsc-Bold-42" transform="translate(589.78125 0)"/>
     <use xlink:href="#NotoSansCJKsc-Bold-f686" transform="translate(648.875 0)"/>
     <use xlink:href="#NotoSansCJKsc-Bold-1b" transform="translate(706.578125 0)"/>
    </g>
   </g>
   <g id="patch_24">
    <path d="M 724.54722 118.041982 
Q 718.678708 146.851371 713.14494 174.017457 
" style="fill: none; stroke: #dd8452; stroke-width: 1.5; stroke-linecap: round"/>
    <path d="M 715.627286 170.849184 
L 713.14494 174.017457 
L 712.099729 170.130616 
" style="fill: none; stroke: #dd8452; stroke-width: 1.5; stroke-linecap: round"/>
   </g>
   <g id="text_38">
    <g id="patch_25">
     <path d="M 713.793516 115.581094 
L 739.236797 115.581094 
Q 741.936797 115.581094 741.936797 112.881094 
L 741.936797 103.881094 
Q 741.936797 101.181094 739.236797 101.181094 
L 713.793516 101.181094 
Q 711.093516 101.181094 711.093516 103.881094 
L 711.093516 112.881094 
Q 711.093516 115.581094 713.793516 115.581094 
z
" style="fill: #ffffe0; opacity: 0.8; stroke: #000000; stroke-linejoin: miter"/>
    </g>
    <!-- h1=14 -->
    <g transform="translate(713.793516 111.801094) scale(0.09 -0.09)">
     <use xlink:href="#NotoSansCJKsc-Regular-49"/>
     <use xlink:href="#NotoSansCJKsc-Regular-12" transform="translate(60.703125 0)"/>
     <use xlink:href="#NotoSansCJKsc-Regular-1e" transform="translate(116.203125 0)"/>
     <use xlink:href="#NotoSansCJKsc-Regular-12" transform="translate(171.703125 0)"/>
     <use xlink:href="#NotoSansCJKsc-Regular-15" transform="translate(227.203125 0)"/>
    </g>
   </g>
   <g id="patch_26">
    <path d="M 770.837165 136.813002 
Q 765.400297 156.254232 760.415097 174.080379 
" style="fill: none; stroke: #dd8452; stroke-width: 1.5; stroke-linecap: round"/>
    <path d="M 763.11815 171.098182 
L 760.415097 174.080379 
L 759.651171 170.128618 
" style="fill: none; stroke: #dd8452; stroke-width: 1.5; stroke-linecap: round"/>
   </g>
   <g id="text_39">
    <g id="patch_27">
     <path d="M 760.807578 134.386719 
L 786.250859 134.386719 
Q 788.950859 134.386719 788.950859 131.686719 
L 788.950859 122.686719 
Q 788.950859 119.986719 786.250859 119.986719 
L 760.807578 119.986719 
Q 758.107578 119.986719 758.107578 122.686719 
L 758.107578 131.686719 
Q 758.107578 134.386719 760.807578 134.386719 
z
" style="fill: #ffffe0; opacity: 0.8; stroke: #000000; stroke-linejoin: miter"/>
    </g>
    <!-- h2=15 -->
    <g transform="translate(760.807578 130.606719) scale(0.09 -0.09)">
     <use xlink:href="#NotoSansCJKsc-Regular-49"/>
     <use xlink:href="#NotoSansCJKsc-Regular-13" transform="translate(60.703125 0)"/>
     <use xlink:href="#NotoSansCJKsc-Regular-1e" transform="translate(116.203125 0)"/>
     <use xlink:href="#NotoSansCJKsc-Regular-12" transform="translate(171.703125 0)"/>
     <use xlink:href="#NotoSansCJKsc-Regular-16" transform="translate(227.203125 0)"/>
    </g>
   </g>
   <g id="patch_28">
    <path d="M 64.069465 155.520231 
Q 59.548997 165.657294 55.711549 174.262696 
" style="fill: none; stroke: #dd8452; stroke-width: 1.5; stroke-linecap: round"/>
    <path d="M 58.821689 171.70789 
L 55.711549 174.262696 
L 55.533788 170.241701 
" style="fill: none; stroke: #dd8452; stroke-width: 1.5; stroke-linecap: round"/>
   </g>
   <g id="text_40">
    <g id="patch_29">
     <path d="M 58.094141 153.192344 
L 78.542422 153.192344 
Q 81.242422 153.192344 81.242422 150.492344 
L 81.242422 141.492344 
Q 81.242422 138.792344 78.542422 138.792344 
L 58.094141 138.792344 
Q 55.394141 138.792344 55.394141 141.492344 
L 55.394141 150.492344 
Q 55.394141 153.192344 58.094141 153.192344 
z
" style="fill: #ffffe0; opacity: 0.8; stroke: #000000; stroke-linejoin: miter"/>
    </g>
    <!-- h3=0 -->
    <g transform="translate(58.094141 149.412344) scale(0.09 -0.09)">
     <use xlink:href="#NotoSansCJKsc-Regular-49"/>
     <use xlink:href="#NotoSansCJKsc-Regular-14" transform="translate(60.703125 0)"/>
     <use xlink:href="#NotoSansCJKsc-Regular-1e" transform="translate(116.203125 0)"/>
     <use xlink:href="#NotoSansCJKsc-Regular-11" transform="translate(171.703125 0)"/>
    </g>
   </g>
   <g id="text_41">
    <g id="patch_30">
     <path d="M 268.460156 386.028437 
L 592.192969 386.028437 
Q 597.192969 386.028437 597.192969 381.028437 
L 597.192969 359.728437 
Q 597.192969 354.728437 592.192969 354.728437 
L 268.460156 354.728437 
Q 263.460156 354.728437 263.460156 359.728437 
L 263.460156 381.028437 
Q 263.460156 386.028437 268.460156 386.028437 
z
" style="fill: #d3d3d3; opacity: 0.5; stroke: #000000; stroke-linejoin: miter"/>
    </g>
    <!-- 查询 "orange" 时，如果 3 个哈希位置都是 1，则"可能存在"（可能误判） -->
    <g transform="translate(268.460156 368.528437) scale(0.1 -0.1)">
     <defs>
      <path id="NotoSansCJKsc-Regular-5227" d="M 1888 1395 
L 4480 1395 
L 4480 858 
L 1888 858 
L 1888 1395 
z
M 1888 2253 
L 4480 2253 
L 4480 1728 
L 1888 1728 
L 1888 2253 
z
M 1414 2598 
L 1414 512 
L 4979 512 
L 4979 2598 
L 1414 2598 
z
M 474 128 
L 474 -307 
L 5952 -307 
L 5952 128 
L 474 128 
z
M 2944 5376 
L 2944 4563 
L 365 4563 
L 365 4141 
L 2426 4141 
C 1875 3533 1018 2982 230 2714 
C 333 2624 474 2445 544 2330 
C 1414 2675 2362 3347 2944 4109 
L 2944 2797 
L 3418 2797 
L 3418 4115 
C 4006 3373 4966 2707 5850 2381 
C 5920 2502 6061 2688 6170 2778 
C 5363 3027 4493 3558 3936 4141 
L 6042 4141 
L 6042 4563 
L 3418 4563 
L 3418 5376 
L 2944 5376 
z
" transform="scale(0.015625)"/>
      <path id="NotoSansCJKsc-Regular-965f" d="M 730 4960 
C 1043 4666 1427 4250 1606 3981 
L 1952 4301 
C 1773 4563 1376 4960 1062 5242 
L 730 4960 
z
M 269 3373 
L 269 2906 
L 1171 2906 
L 1171 710 
C 1171 422 979 237 864 154 
C 947 64 1075 -141 1114 -256 
C 1210 -128 1382 13 2464 826 
C 2419 915 2342 1094 2304 1229 
L 1638 742 
L 1638 3373 
L 269 3373 
z
M 3238 5376 
C 2970 4563 2522 3757 1997 3238 
C 2118 3168 2323 3014 2413 2925 
C 2669 3213 2925 3571 3149 3974 
L 5542 3974 
C 5459 1299 5357 294 5146 64 
C 5075 -19 5011 -38 4883 -38 
C 4736 -38 4390 -38 4000 -6 
C 4083 -134 4141 -339 4154 -474 
C 4499 -486 4864 -499 5069 -474 
C 5286 -454 5434 -397 5574 -211 
C 5824 102 5920 1126 6016 4160 
C 6022 4237 6022 4416 6022 4416 
L 3386 4416 
C 3514 4685 3629 4966 3731 5248 
L 3238 5376 
z
M 4301 1869 
L 4301 1178 
L 3194 1178 
L 3194 1869 
L 4301 1869 
z
M 4301 2259 
L 3194 2259 
L 3194 2944 
L 4301 2944 
L 4301 2259 
z
M 2752 3347 
L 2752 390 
L 3194 390 
L 3194 781 
L 4730 781 
L 4730 3347 
L 2752 3347 
z
" transform="scale(0.015625)"/>
      <path id="NotoSansCJKsc-Regular-1" transform="scale(0.015625)"/>
      <path id="NotoSansCJKsc-Regular-f686" d="M 704 3782 
L 1062 3782 
L 1178 4979 
L 1197 5632 
L 576 5632 
L 589 4979 
L 704 3782 
z
M 1965 3782 
L 2323 3782 
L 2438 4979 
L 2451 5632 
L 1830 5632 
L 1850 4979 
L 1965 3782 
z
" transform="scale(0.015625)"/>
      <path id="NotoSansCJKsc-Regular-50" d="M 1939 -83 
C 2790 -83 3546 582 3546 1734 
C 3546 2893 2790 3565 1939 3565 
C 1088 3565 333 2893 333 1734 
C 333 582 1088 -83 1939 -83 
z
M 1939 403 
C 1338 403 934 934 934 1734 
C 934 2534 1338 3072 1939 3072 
C 2541 3072 2950 2534 2950 1734 
C 2950 934 2541 403 1939 403 
z
" transform="scale(0.015625)"/>
      <path id="NotoSansCJKsc-Regular-53" d="M 589 0 
L 1178 0 
L 1178 2234 
C 1408 2822 1760 3040 2048 3040 
C 2195 3040 2272 3021 2387 2982 
L 2496 3488 
C 2387 3546 2278 3565 2125 3565 
C 1741 3565 1382 3283 1139 2842 
L 1126 2842 
L 1069 3475 
L 589 3475 
L 589 0 
z
" transform="scale(0.015625)"/>
      <path id="NotoSansCJKsc-Regular-42" d="M 1389 -83 
C 1818 -83 2208 141 2541 416 
L 2560 416 
L 2611 0 
L 3091 0 
L 3091 2138 
C 3091 3002 2739 3565 1888 3565 
C 1325 3565 838 3315 525 3110 
L 749 2707 
C 1024 2893 1389 3078 1792 3078 
C 2362 3078 2509 2650 2509 2202 
C 1030 2035 378 1658 378 902 
C 378 275 806 -83 1389 -83 
z
M 1555 390 
C 1210 390 941 544 941 941 
C 941 1389 1338 1677 2509 1811 
L 2509 845 
C 2170 544 1888 390 1555 390 
z
" transform="scale(0.015625)"/>
      <path id="NotoSansCJKsc-Regular-4f" d="M 589 0 
L 1178 0 
L 1178 2522 
C 1523 2874 1766 3053 2125 3053 
C 2586 3053 2784 2778 2784 2125 
L 2784 0 
L 3366 0 
L 3366 2202 
C 3366 3085 3034 3565 2304 3565 
C 1830 3565 1466 3302 1139 2970 
L 1126 2970 
L 1069 3475 
L 589 3475 
L 589 0 
z
" transform="scale(0.015625)"/>
      <path id="NotoSansCJKsc-Regular-48" d="M 1760 -1600 
C 2835 -1600 3520 -1043 3520 -397 
C 3520 179 3110 429 2310 429 
L 1626 429 
C 1158 429 1018 589 1018 806 
C 1018 998 1114 1114 1242 1222 
C 1395 1146 1587 1101 1754 1101 
C 2470 1101 3027 1568 3027 2310 
C 3027 2611 2912 2867 2746 3027 
L 3456 3027 
L 3456 3475 
L 2246 3475 
C 2125 3526 1952 3565 1754 3565 
C 1056 3565 454 3085 454 2323 
C 454 1907 678 1568 909 1389 
L 909 1363 
C 723 1235 525 1005 525 717 
C 525 442 659 256 838 147 
L 838 115 
C 512 -83 326 -371 326 -672 
C 326 -1267 915 -1600 1760 -1600 
z
M 1754 1498 
C 1357 1498 1018 1818 1018 2323 
C 1018 2835 1350 3136 1754 3136 
C 2170 3136 2496 2835 2496 2323 
C 2496 1818 2157 1498 1754 1498 
z
M 1843 -1197 
C 1210 -1197 838 -960 838 -589 
C 838 -390 941 -179 1190 0 
C 1344 -38 1510 -51 1638 -51 
L 2240 -51 
C 2701 -51 2944 -166 2944 -493 
C 2944 -851 2515 -1197 1843 -1197 
z
" transform="scale(0.015625)"/>
      <path id="NotoSansCJKsc-Regular-46" d="M 1997 -83 
C 2464 -83 2835 70 3136 269 
L 2931 659 
C 2669 486 2400 384 2061 384 
C 1402 384 947 858 909 1600 
L 3251 1600 
C 3264 1690 3277 1805 3277 1933 
C 3277 2925 2778 3565 1888 3565 
C 1094 3565 333 2867 333 1734 
C 333 589 1069 -83 1997 -83 
z
M 902 2016 
C 973 2707 1408 3098 1901 3098 
C 2445 3098 2765 2720 2765 2016 
L 902 2016 
z
" transform="scale(0.015625)"/>
      <path id="NotoSansCJKsc-Regular-4f11" d="M 3034 2893 
C 3373 2400 3808 1722 4013 1331 
L 4435 1574 
C 4218 1965 3776 2618 3430 3104 
L 3034 2893 
z
M 2074 2573 
L 2074 1114 
L 979 1114 
L 979 2573 
L 2074 2573 
z
M 2074 3002 
L 979 3002 
L 979 4403 
L 2074 4403 
L 2074 3002 
z
M 518 4838 
L 518 160 
L 979 160 
L 979 678 
L 2522 678 
L 2522 4838 
L 518 4838 
z
M 4890 5344 
L 4890 4096 
L 2816 4096 
L 2816 3622 
L 4890 3622 
L 4890 211 
C 4890 83 4838 38 4710 38 
C 4570 26 4096 26 3597 45 
C 3667 -96 3744 -314 3776 -448 
C 4416 -448 4826 -442 5056 -358 
C 5286 -282 5376 -141 5376 211 
L 5376 3622 
L 6157 3622 
L 6157 4096 
L 5376 4096 
L 5376 5344 
L 4890 5344 
z
" transform="scale(0.015625)"/>
      <path id="NotoSansCJKsc-Regular-e6b2" d="M 1005 -685 
C 1677 -448 2112 77 2112 768 
C 2112 1216 1920 1504 1568 1504 
C 1306 1504 1082 1344 1082 1043 
C 1082 742 1299 589 1562 589 
L 1670 602 
C 1638 160 1357 -141 864 -346 
L 1005 -685 
z
" transform="scale(0.015625)"/>
      <path id="NotoSansCJKsc-Regular-379d" d="M 2554 3616 
C 2458 2726 2259 1997 1965 1427 
C 1696 1638 1408 1856 1139 2048 
C 1274 2502 1414 3053 1542 3616 
L 2554 3616 
z
M 608 1869 
C 966 1619 1357 1312 1722 1011 
C 1350 467 877 102 301 -122 
C 403 -218 525 -403 595 -518 
C 1197 -250 1696 134 2086 691 
C 2349 454 2573 224 2733 32 
L 3059 429 
C 2886 627 2637 870 2349 1114 
C 2726 1830 2970 2778 3066 4026 
L 2765 4077 
L 2675 4064 
L 1638 4064 
C 1728 4506 1805 4941 1862 5338 
L 1382 5370 
C 1338 4966 1261 4518 1171 4064 
L 301 4064 
L 301 3616 
L 1075 3616 
C 934 2957 762 2330 608 1869 
z
M 3405 4685 
L 3405 -352 
L 3866 -352 
L 3866 134 
L 5434 134 
L 5434 -250 
L 5914 -250 
L 5914 4685 
L 3405 4685 
z
M 3866 589 
L 3866 4230 
L 5434 4230 
L 5434 589 
L 3866 589 
z
" transform="scale(0.015625)"/>
      <path id="NotoSansCJKsc-Regular-51bd" d="M 1018 5069 
L 1018 2522 
L 2950 2522 
L 2950 1978 
L 397 1978 
L 397 1536 
L 2560 1536 
C 1984 922 1069 371 230 96 
C 339 -6 486 -179 563 -301 
C 1408 19 2330 627 2950 1331 
L 2950 -512 
L 3456 -512 
L 3456 1363 
C 4090 678 5024 58 5850 -269 
C 5920 -147 6074 32 6176 134 
C 5370 403 4442 947 3846 1536 
L 6010 1536 
L 6010 1978 
L 3456 1978 
L 3456 2522 
L 5427 2522 
L 5427 5069 
L 1018 5069 
z
M 1510 3603 
L 2950 3603 
L 2950 2938 
L 1510 2938 
L 1510 3603 
z
M 3456 3603 
L 4909 3603 
L 4909 2938 
L 3456 2938 
L 3456 3603 
z
M 1510 4653 
L 2950 4653 
L 2950 4000 
L 1510 4000 
L 1510 4653 
z
M 3456 4653 
L 4909 4653 
L 4909 4000 
L 3456 4000 
L 3456 4653 
z
" transform="scale(0.015625)"/>
      <path id="NotoSansCJKsc-Regular-2544" d="M 2944 3494 
L 2944 -506 
L 3443 -506 
L 3443 3494 
L 2944 3494 
z
M 3238 5382 
C 2598 4314 1434 3379 224 2854 
C 358 2739 499 2554 582 2413 
C 1568 2893 2515 3635 3206 4518 
C 4058 3520 4902 2906 5850 2406 
C 5926 2560 6074 2739 6202 2842 
C 5216 3322 4307 3923 3488 4902 
L 3667 5184 
L 3238 5382 
z
" transform="scale(0.015625)"/>
      <path id="NotoSansCJKsc-Regular-2fca" d="M 4032 5363 
C 3712 4467 3040 3584 2195 3021 
C 2310 2938 2470 2771 2547 2675 
C 2752 2816 2944 2976 3123 3149 
L 3123 2835 
L 5235 2835 
L 5235 3226 
C 5427 3034 5619 2874 5818 2739 
C 5894 2867 6054 3046 6170 3142 
C 5498 3514 4806 4288 4422 5056 
L 4493 5235 
L 4032 5363 
z
M 5184 3277 
L 3251 3277 
C 3635 3667 3955 4115 4205 4602 
C 4474 4115 4819 3654 5184 3277 
z
M 2810 2112 
L 2810 -531 
L 3283 -531 
L 3283 -186 
L 5030 -186 
L 5030 -512 
L 5517 -512 
L 5517 2112 
L 2810 2112 
z
M 3283 250 
L 3283 1677 
L 5030 1677 
L 5030 250 
L 3283 250 
z
M 474 4768 
L 474 576 
L 922 576 
L 922 1190 
L 2144 1190 
L 2144 4768 
L 474 4768 
z
M 922 4320 
L 1690 4320 
L 1690 1638 
L 922 1638 
L 922 4320 
z
" transform="scale(0.015625)"/>
      <path id="NotoSansCJKsc-Regular-4139" d="M 1024 4966 
C 1581 4819 2208 4621 2816 4416 
C 2106 4186 1344 4006 614 3885 
C 723 3789 870 3590 941 3482 
C 1459 3590 2010 3731 2554 3891 
C 2470 3680 2374 3469 2259 3264 
L 371 3264 
L 371 2835 
L 1997 2835 
C 1555 2189 954 1606 224 1210 
C 320 1120 467 954 544 845 
C 877 1030 1178 1254 1459 1510 
L 1459 -141 
L 1933 -141 
L 1933 1613 
L 3200 1613 
L 3200 -512 
L 3661 -512 
L 3661 1613 
L 5050 1613 
L 5050 429 
C 5050 346 5018 326 4928 320 
C 4832 320 4512 320 4147 326 
C 4205 211 4275 38 4294 -90 
C 4787 -90 5094 -90 5280 -19 
C 5478 58 5530 179 5530 422 
L 5530 2048 
L 3661 2048 
L 3661 2675 
L 3200 2675 
L 3200 2048 
L 1984 2048 
C 2195 2298 2387 2560 2560 2835 
L 6029 2835 
L 6029 3264 
L 2803 3264 
C 2912 3469 3008 3686 3091 3898 
L 2816 3974 
C 3034 4038 3238 4109 3450 4186 
C 4128 3936 4749 3674 5171 3456 
L 5530 3802 
C 5133 3994 4608 4211 4038 4422 
C 4518 4627 4966 4864 5338 5126 
L 4934 5389 
C 4538 5107 4019 4851 3437 4634 
C 2726 4870 1990 5094 1344 5261 
L 1024 4966 
z
" transform="scale(0.015625)"/>
      <path id="NotoSansCJKsc-Regular-26e4" d="M 2362 4211 
L 2362 3744 
L 5850 3744 
L 5850 4211 
L 2362 4211 
z
M 2784 3258 
C 2976 2368 3168 1184 3219 512 
L 3693 653 
C 3629 1306 3430 2458 3219 3360 
L 2784 3258 
z
M 3648 5299 
C 3770 4979 3898 4557 3949 4282 
L 4429 4422 
C 4365 4698 4224 5101 4102 5421 
L 3648 5299 
z
M 2086 218 
L 2086 -243 
L 6112 -243 
L 6112 218 
L 4787 218 
C 5024 1075 5286 2336 5459 3322 
L 4954 3405 
C 4838 2445 4582 1082 4339 218 
L 2086 218 
z
M 1830 5350 
C 1472 4378 870 3418 243 2797 
C 326 2688 467 2438 518 2323 
C 736 2547 947 2810 1152 3098 
L 1152 -499 
L 1632 -499 
L 1632 3846 
C 1882 4282 2106 4749 2285 5216 
L 1830 5350 
z
" transform="scale(0.015625)"/>
      <path id="NotoSansCJKsc-Regular-7ccc" d="M 4166 4787 
L 5248 4787 
L 5248 4211 
L 4166 4211 
L 4166 4787 
z
M 2669 4787 
L 3725 4787 
L 3725 4211 
L 2669 4211 
L 2669 4787 
z
M 1210 4787 
L 2227 4787 
L 2227 4211 
L 1210 4211 
L 1210 4787 
z
M 1216 2733 
L 1216 38 
L 365 38 
L 365 -320 
L 6048 -320 
L 6048 38 
L 5171 38 
L 5171 2733 
L 3168 2733 
L 3258 3110 
L 5901 3110 
L 5901 3488 
L 3328 3488 
L 3398 3859 
L 5728 3859 
L 5728 5133 
L 749 5133 
L 749 3859 
L 2906 3859 
L 2854 3488 
L 435 3488 
L 435 3110 
L 2790 3110 
L 2714 2733 
L 1216 2733 
z
M 1677 38 
L 1677 435 
L 4698 435 
L 4698 38 
L 1677 38 
z
M 1677 1760 
L 4698 1760 
L 4698 1389 
L 1677 1389 
L 1677 1760 
z
M 1677 2048 
L 1677 2406 
L 4698 2406 
L 4698 2048 
L 1677 2048 
z
M 1677 1101 
L 4698 1101 
L 4698 723 
L 1677 723 
L 1677 1101 
z
" transform="scale(0.015625)"/>
      <path id="NotoSansCJKsc-Regular-9f49" d="M 3251 5158 
C 3123 4851 2976 4563 2810 4288 
L 2810 4634 
L 2003 4634 
L 2003 5325 
L 1555 5325 
L 1555 4634 
L 570 4634 
L 570 4205 
L 1555 4205 
L 1555 3437 
L 275 3437 
L 275 3008 
L 1811 3008 
C 1318 2522 755 2118 134 1811 
C 224 1722 378 1523 435 1421 
C 614 1517 787 1619 954 1734 
L 954 -480 
L 1389 -480 
L 1389 -102 
L 2835 -102 
L 2835 -390 
L 3296 -390 
L 3296 2387 
L 1798 2387 
C 2016 2579 2221 2790 2413 3008 
L 3584 3008 
L 3584 3437 
L 2758 3437 
C 3123 3917 3430 4448 3686 5024 
L 3251 5158 
z
M 2003 4205 
L 2758 4205 
C 2592 3936 2406 3680 2202 3437 
L 2003 3437 
L 2003 4205 
z
M 1389 301 
L 1389 979 
L 2835 979 
L 2835 301 
L 1389 301 
z
M 1389 1363 
L 1389 1990 
L 2835 1990 
L 2835 1363 
L 1389 1363 
z
M 3859 5011 
L 3859 -512 
L 4333 -512 
L 4333 4557 
L 5530 4557 
C 5318 4045 5030 3354 4742 2810 
C 5414 2253 5619 1766 5619 1357 
C 5626 1126 5574 941 5427 851 
C 5344 806 5242 781 5126 781 
C 4986 768 4794 774 4582 794 
C 4666 659 4717 454 4723 320 
C 4928 307 5152 307 5325 326 
C 5491 346 5638 397 5760 474 
C 5990 621 6086 922 6086 1318 
C 6086 1773 5914 2278 5235 2874 
C 5549 3469 5901 4205 6163 4813 
L 5818 5030 
L 5741 5011 
L 3859 5011 
z
" transform="scale(0.015625)"/>
      <path id="NotoSansCJKsc-Regular-4f6d" d="M 1510 3885 
L 4845 3885 
L 4845 3360 
L 1510 3360 
L 1510 3885 
z
M 1510 4749 
L 4845 4749 
L 4845 4230 
L 1510 4230 
L 1510 4749 
z
M 1050 5114 
L 1050 2995 
L 5331 2995 
L 5331 5114 
L 1050 5114 
z
M 1478 1914 
C 1312 979 902 256 224 -186 
C 333 -256 518 -435 589 -518 
C 1011 -218 1344 192 1587 698 
C 2112 -186 2938 -384 4230 -384 
L 5984 -384 
C 6010 -250 6086 -38 6163 77 
C 5830 70 4493 64 4250 70 
C 3981 70 3725 77 3494 102 
L 3494 986 
L 5619 986 
L 5619 1408 
L 3494 1408 
L 3494 2125 
L 6035 2125 
L 6035 2554 
L 378 2554 
L 378 2125 
L 3014 2125 
L 3014 186 
C 2458 326 2048 627 1798 1216 
C 1862 1414 1914 1626 1958 1850 
L 1478 1914 
z
" transform="scale(0.015625)"/>
      <path id="NotoSansCJKsc-Regular-2b9f" d="M 2061 730 
C 2464 403 2976 -64 3219 -352 
L 3526 0 
C 3277 275 2758 717 2362 1030 
L 2061 730 
z
M 659 5030 
L 659 1146 
L 1107 1146 
L 1107 4595 
L 2957 4595 
L 2957 1165 
L 3424 1165 
L 3424 5030 
L 659 5030 
z
M 5338 5331 
L 5338 166 
C 5338 45 5286 6 5165 6 
C 5043 0 4640 -6 4186 13 
C 4262 -128 4339 -339 4365 -480 
C 4954 -480 5306 -467 5523 -390 
C 5722 -307 5811 -160 5811 166 
L 5811 5331 
L 5338 5331 
z
M 4141 4800 
L 4141 966 
L 4595 966 
L 4595 4800 
L 4141 4800 
z
M 1792 4160 
L 1792 2342 
C 1792 1466 1632 499 288 -160 
C 378 -237 531 -416 582 -518 
C 2016 179 2246 1350 2246 2330 
L 2246 4160 
L 1792 4160 
z
" transform="scale(0.015625)"/>
      <path id="NotoSansCJKsc-Regular-2e8e" d="M 358 4922 
L 358 4442 
L 4781 4442 
L 4781 186 
C 4781 51 4736 13 4595 0 
C 4442 0 3917 -6 3405 19 
C 3482 -122 3571 -358 3603 -499 
C 4237 -499 4685 -499 4941 -416 
C 5190 -333 5280 -166 5280 179 
L 5280 4442 
L 6067 4442 
L 6067 4922 
L 358 4922 
z
M 1478 3040 
L 3162 3040 
L 3162 1568 
L 1478 1568 
L 1478 3040 
z
M 1011 3501 
L 1011 595 
L 1478 595 
L 1478 1107 
L 3635 1107 
L 3635 3501 
L 1011 3501 
z
" transform="scale(0.015625)"/>
      <path id="NotoSansCJKsc-Regular-8007" d="M 2451 2688 
L 2451 2138 
L 1088 2138 
L 1088 2688 
L 2451 2688 
z
M 640 3098 
L 640 -506 
L 1088 -506 
L 1088 800 
L 2451 800 
L 2451 51 
C 2451 -32 2432 -58 2349 -58 
C 2253 -64 1984 -64 1683 -51 
C 1747 -179 1818 -365 1843 -493 
C 2246 -493 2522 -486 2701 -416 
C 2874 -339 2925 -205 2925 45 
L 2925 3098 
L 640 3098 
z
M 1088 1760 
L 2451 1760 
L 2451 1178 
L 1088 1178 
L 1088 1760 
z
M 5491 4896 
C 5126 4704 4550 4474 4000 4288 
L 4000 5363 
L 3526 5363 
L 3526 3238 
C 3526 2714 3686 2566 4301 2566 
C 4429 2566 5261 2566 5402 2566 
C 5907 2566 6054 2778 6106 3558 
C 5971 3590 5779 3661 5683 3744 
C 5651 3110 5606 3002 5357 3002 
C 5178 3002 4474 3002 4339 3002 
C 4051 3002 4000 3040 4000 3245 
L 4000 3898 
C 4621 4077 5306 4307 5811 4538 
L 5491 4896 
z
M 5568 2042 
C 5197 1805 4582 1555 4000 1363 
L 4000 2387 
L 3526 2387 
L 3526 224 
C 3526 -314 3693 -454 4314 -454 
C 4448 -454 5293 -454 5434 -454 
C 5971 -454 6106 -224 6163 634 
C 6035 666 5843 742 5734 819 
C 5709 96 5658 -26 5395 -26 
C 5210 -26 4499 -26 4358 -26 
C 4058 -26 4000 13 4000 218 
L 4000 966 
C 4646 1146 5382 1395 5882 1683 
L 5568 2042 
z
M 538 3539 
C 672 3597 896 3629 2650 3750 
C 2707 3629 2758 3514 2797 3411 
L 3213 3603 
C 3078 3987 2720 4563 2387 4992 
L 1997 4838 
C 2157 4621 2317 4365 2458 4115 
L 1050 4038 
C 1325 4378 1613 4806 1837 5235 
L 1338 5389 
C 1133 4890 781 4384 672 4250 
C 563 4115 467 4019 371 4000 
C 429 3872 512 3642 538 3539 
z
" transform="scale(0.015625)"/>
      <path id="NotoSansCJKsc-Regular-3c07" d="M 3923 2234 
L 3923 1702 
L 2144 1702 
L 2144 1254 
L 3923 1254 
L 3923 64 
C 3923 -26 3904 -51 3789 -58 
C 3674 -64 3290 -64 2867 -51 
C 2931 -186 2995 -371 3014 -506 
C 3565 -506 3923 -506 4141 -435 
C 4352 -358 4410 -224 4410 58 
L 4410 1254 
L 6125 1254 
L 6125 1702 
L 4410 1702 
L 4410 2074 
C 4877 2368 5376 2765 5722 3149 
L 5414 3386 
L 5318 3360 
L 2688 3360 
L 2688 2918 
L 4870 2918 
C 4595 2662 4243 2400 3923 2234 
z
M 2464 5376 
C 2387 5101 2298 4819 2189 4538 
L 403 4538 
L 403 4077 
L 1990 4077 
C 1574 3194 979 2368 198 1818 
C 275 1709 390 1504 442 1382 
C 717 1581 973 1805 1203 2048 
L 1203 -499 
L 1690 -499 
L 1690 2630 
C 2022 3078 2291 3565 2522 4077 
L 6010 4077 
L 6010 4538 
L 2714 4538 
C 2803 4774 2886 5018 2957 5254 
L 2464 5376 
z
" transform="scale(0.015625)"/>
      <path id="NotoSansCJKsc-Regular-33c7" d="M 2502 5376 
C 2413 5050 2298 4710 2163 4384 
L 403 4384 
L 403 3923 
L 1952 3923 
C 1542 3104 979 2342 243 1830 
C 320 1722 442 1517 493 1389 
C 762 1581 1011 1798 1235 2035 
L 1235 -486 
L 1715 -486 
L 1715 2605 
C 2016 3014 2278 3462 2496 3923 
L 6010 3923 
L 6010 4384 
L 2694 4384 
C 2810 4672 2912 4966 3002 5254 
L 2502 5376 
z
M 3827 3590 
L 3827 2355 
L 2387 2355 
L 2387 1907 
L 3827 1907 
L 3827 90 
L 2131 90 
L 2131 -358 
L 6003 -358 
L 6003 90 
L 4307 90 
L 4307 1907 
L 5760 1907 
L 5760 2355 
L 4307 2355 
L 4307 3590 
L 3827 3590 
z
" transform="scale(0.015625)"/>
      <path id="NotoSansCJKsc-Regular-e6ae" d="M 4448 2432 
C 4448 1184 4954 166 5722 -614 
L 6106 -416 
C 5370 346 4915 1293 4915 2432 
C 4915 3571 5370 4518 6106 5280 
L 5722 5478 
C 4954 4698 4448 3680 4448 2432 
z
" transform="scale(0.015625)"/>
      <path id="NotoSansCJKsc-Regular-966c" d="M 3181 4653 
L 5254 4653 
L 5254 3770 
L 3181 3770 
L 3181 4653 
z
M 2733 5075 
L 2733 3347 
L 5722 3347 
L 5722 5075 
L 2733 5075 
z
M 653 4902 
C 998 4602 1421 4173 1626 3898 
L 1958 4250 
C 1754 4512 1312 4922 973 5203 
L 653 4902 
z
M 2342 1632 
L 2342 1203 
L 3789 1203 
C 3578 563 3136 134 2157 -128 
C 2259 -218 2381 -403 2426 -512 
C 3411 -218 3910 237 4166 902 
C 4512 205 5088 -288 5882 -531 
C 5939 -397 6080 -218 6189 -122 
C 5382 77 4800 544 4493 1203 
L 6150 1203 
L 6150 1632 
L 4358 1632 
C 4390 1850 4416 2086 4429 2336 
L 5907 2336 
L 5907 2771 
L 2554 2771 
L 2554 2336 
L 3974 2336 
C 3962 2080 3936 1850 3898 1632 
L 2342 1632 
z
M 1210 -320 
C 1306 -205 1466 -83 2490 634 
C 2451 730 2387 909 2362 1030 
L 1658 570 
L 1658 3379 
L 282 3379 
L 282 2918 
L 1190 2918 
L 1190 595 
C 1190 333 1056 186 960 122 
C 1043 19 1171 -205 1210 -320 
z
" transform="scale(0.015625)"/>
      <path id="NotoSansCJKsc-Regular-2bae" d="M 5370 5254 
L 5370 122 
C 5370 0 5318 -38 5197 -38 
C 5075 -45 4672 -51 4218 -32 
C 4294 -173 4371 -390 4397 -518 
C 4986 -525 5344 -512 5555 -429 
C 5754 -352 5843 -205 5843 122 
L 5843 5254 
L 5370 5254 
z
M 4038 4608 
L 4038 1056 
L 4499 1056 
L 4499 4608 
L 4038 4608 
z
M 3200 5030 
C 3034 4595 2778 4096 2547 3750 
C 2656 3706 2854 3610 2950 3539 
C 3168 3898 3443 4442 3642 4909 
L 3200 5030 
z
M 467 4845 
C 704 4454 986 3930 1107 3597 
L 1530 3782 
C 1395 4109 1114 4614 870 4998 
L 467 4845 
z
M 294 1914 
L 294 1466 
L 1670 1466 
C 1517 832 1178 237 467 -211 
C 582 -288 755 -454 832 -550 
C 1658 -26 2022 691 2176 1466 
L 3642 1466 
L 3642 1914 
L 2240 1914 
C 2272 2195 2278 2483 2278 2765 
L 2278 2995 
L 3475 2995 
L 3475 3456 
L 2278 3456 
L 2278 5344 
L 1798 5344 
L 1798 3456 
L 531 3456 
L 531 2995 
L 1798 2995 
L 1798 2765 
C 1798 2483 1786 2195 1754 1914 
L 294 1914 
z
" transform="scale(0.015625)"/>
      <path id="NotoSansCJKsc-Regular-e6af" d="M 1952 2432 
C 1952 3680 1446 4698 678 5478 
L 294 5280 
C 1030 4518 1485 3571 1485 2432 
C 1485 1293 1030 346 294 -416 
L 678 -614 
C 1446 166 1952 1184 1952 2432 
z
" transform="scale(0.015625)"/>
     </defs>
     <use xlink:href="#NotoSansCJKsc-Regular-5227"/>
     <use xlink:href="#NotoSansCJKsc-Regular-965f" transform="translate(100 0)"/>
     <use xlink:href="#NotoSansCJKsc-Regular-1" transform="translate(200 0)"/>
     <use xlink:href="#NotoSansCJKsc-Regular-f686" transform="translate(222.40625 0)"/>
     <use xlink:href="#NotoSansCJKsc-Regular-50" transform="translate(269.90625 0)"/>
     <use xlink:href="#NotoSansCJKsc-Regular-53" transform="translate(330.5 0)"/>
     <use xlink:href="#NotoSansCJKsc-Regular-42" transform="translate(366.59375 0)"/>
     <use xlink:href="#NotoSansCJKsc-Regular-4f" transform="translate(422.890625 0)"/>
     <use xlink:href="#NotoSansCJKsc-Regular-48" transform="translate(483.890625 0)"/>
     <use xlink:href="#NotoSansCJKsc-Regular-46" transform="translate(538.796875 0)"/>
     <use xlink:href="#NotoSansCJKsc-Regular-f686" transform="translate(594.203125 0)"/>
     <use xlink:href="#NotoSansCJKsc-Regular-1" transform="translate(641.703125 0)"/>
     <use xlink:href="#NotoSansCJKsc-Regular-4f11" transform="translate(664.109375 0)"/>
     <use xlink:href="#NotoSansCJKsc-Regular-e6b2" transform="translate(764.109375 0)"/>
     <use xlink:href="#NotoSansCJKsc-Regular-379d" transform="translate(864.109375 0)"/>
     <use xlink:href="#NotoSansCJKsc-Regular-51bd" transform="translate(964.109375 0)"/>
     <use xlink:href="#NotoSansCJKsc-Regular-1" transform="translate(1064.109375 0)"/>
     <use xlink:href="#NotoSansCJKsc-Regular-14" transform="translate(1086.515625 0)"/>
     <use xlink:href="#NotoSansCJKsc-Regular-1" transform="translate(1142.015625 0)"/>
     <use xlink:href="#NotoSansCJKsc-Regular-2544" transform="translate(1164.421875 0)"/>
     <use xlink:href="#NotoSansCJKsc-Regular-2fca" transform="translate(1264.421875 0)"/>
     <use xlink:href="#NotoSansCJKsc-Regular-4139" transform="translate(1364.421875 0)"/>
     <use xlink:href="#NotoSansCJKsc-Regular-26e4" transform="translate(1464.421875 0)"/>
     <use xlink:href="#NotoSansCJKsc-Regular-7ccc" transform="translate(1564.421875 0)"/>
     <use xlink:href="#NotoSansCJKsc-Regular-9f49" transform="translate(1664.421875 0)"/>
     <use xlink:href="#NotoSansCJKsc-Regular-4f6d" transform="translate(1764.421875 0)"/>
     <use xlink:href="#NotoSansCJKsc-Regular-1" transform="translate(1864.421875 0)"/>
     <use xlink:href="#NotoSansCJKsc-Regular-12" transform="translate(1886.828125 0)"/>
     <use xlink:href="#NotoSansCJKsc-Regular-e6b2" transform="translate(1942.328125 0)"/>
     <use xlink:href="#NotoSansCJKsc-Regular-2b9f" transform="translate(2042.328125 0)"/>
     <use xlink:href="#NotoSansCJKsc-Regular-f686" transform="translate(2142.328125 0)"/>
     <use xlink:href="#NotoSansCJKsc-Regular-2e8e" transform="translate(2189.828125 0)"/>
     <use xlink:href="#NotoSansCJKsc-Regular-8007" transform="translate(2289.828125 0)"/>
     <use xlink:href="#NotoSansCJKsc-Regular-3c07" transform="translate(2389.828125 0)"/>
     <use xlink:href="#NotoSansCJKsc-Regular-33c7" transform="translate(2489.828125 0)"/>
     <use xlink:href="#NotoSansCJKsc-Regular-f686" transform="translate(2589.828125 0)"/>
     <use xlink:href="#NotoSansCJKsc-Regular-e6ae" transform="translate(2637.328125 0)"/>
     <use xlink:href="#NotoSansCJKsc-Regular-2e8e" transform="translate(2737.328125 0)"/>
     <use xlink:href="#NotoSansCJKsc-Regular-8007" transform="translate(2837.328125 0)"/>
     <use xlink:href="#NotoSansCJKsc-Regular-966c" transform="translate(2937.328125 0)"/>
     <use xlink:href="#NotoSansCJKsc-Regular-2bae" transform="translate(3037.328125 0)"/>
     <use xlink:href="#NotoSansCJKsc-Regular-e6af" transform="translate(3137.328125 0)"/>
    </g>
    <!-- 如果任一位置是 0，则"一定不存在"（不会漏判） -->
    <g transform="translate(321.68125 379.828437) scale(0.1 -0.1)">
     <defs>
      <path id="NotoSansCJKsc-Regular-2673" d="M 2195 198 
L 2195 -262 
L 6042 -262 
L 6042 198 
L 4333 198 
L 4333 2176 
L 6144 2176 
L 6144 2637 
L 4333 2637 
L 4333 4422 
C 4909 4531 5453 4666 5888 4813 
L 5530 5216 
C 4742 4928 3347 4678 2157 4518 
C 2208 4410 2278 4230 2298 4115 
C 2797 4173 3328 4243 3846 4333 
L 3846 2637 
L 1946 2637 
L 1946 2176 
L 3846 2176 
L 3846 198 
L 2195 198 
z
M 1888 5376 
C 1485 4371 832 3386 141 2758 
C 230 2643 384 2394 435 2278 
C 691 2528 947 2822 1190 3149 
L 1190 -512 
L 1664 -512 
L 1664 3859 
C 1926 4294 2163 4762 2349 5229 
L 1888 5376 
z
" transform="scale(0.015625)"/>
      <path id="NotoSansCJKsc-Regular-2509" d="M 282 2758 
L 282 2234 
L 6144 2234 
L 6144 2758 
L 282 2758 
z
" transform="scale(0.015625)"/>
      <path id="NotoSansCJKsc-Regular-3c8b" d="M 1434 2419 
C 1299 1261 947 346 230 -211 
C 346 -282 544 -442 621 -531 
C 1050 -160 1357 326 1581 922 
C 2170 -186 3130 -410 4467 -410 
L 5965 -410 
C 5984 -269 6074 -38 6144 77 
C 5830 70 4730 70 4493 70 
C 4115 70 3763 90 3443 147 
L 3443 1440 
L 5350 1440 
L 5350 1888 
L 3443 1888 
L 3443 2938 
L 5088 2938 
L 5088 3405 
L 1350 3405 
L 1350 2938 
L 2944 2938 
L 2944 282 
C 2419 480 2016 858 1766 1530 
C 1830 1792 1882 2074 1920 2368 
L 1434 2419 
z
M 2726 5286 
C 2835 5094 2950 4851 3021 4653 
L 525 4653 
L 525 3258 
L 998 3258 
L 998 4198 
L 5382 4198 
L 5382 3258 
L 5875 3258 
L 5875 4653 
L 3571 4653 
C 3507 4864 3341 5184 3200 5421 
L 2726 5286 
z
" transform="scale(0.015625)"/>
      <path id="NotoSansCJKsc-Regular-2518" d="M 3578 3059 
C 4339 2547 5299 1792 5754 1299 
L 6144 1670 
C 5664 2163 4691 2880 3936 3366 
L 3578 3059 
z
M 442 4928 
L 442 4435 
L 3290 4435 
C 2656 3341 1555 2259 282 1632 
C 384 1523 531 1331 608 1210 
C 1498 1677 2291 2336 2938 3078 
L 2938 -499 
L 3456 -499 
L 3456 3738 
C 3622 3962 3770 4198 3904 4435 
L 5958 4435 
L 5958 4928 
L 442 4928 
z
" transform="scale(0.015625)"/>
      <path id="NotoSansCJKsc-Regular-26a2" d="M 1005 -371 
C 1248 -282 1606 -256 4998 32 
C 5146 -160 5274 -346 5363 -506 
L 5792 -243 
C 5510 237 4902 928 4326 1440 
L 3923 1222 
C 4173 992 4429 723 4659 454 
L 1747 230 
C 2202 653 2656 1165 3053 1690 
L 5875 1690 
L 5875 2157 
L 570 2157 
L 570 1690 
L 2400 1690 
C 1984 1120 1498 614 1325 461 
C 1126 275 979 154 838 122 
C 896 -6 979 -262 1005 -371 
z
M 3226 5376 
C 2650 4518 1523 3706 269 3174 
C 384 3085 550 2880 621 2758 
C 992 2931 1350 3123 1690 3334 
L 1690 2944 
L 4742 2944 
L 4742 3392 
L 1773 3392 
C 2323 3750 2816 4154 3219 4595 
C 3603 4198 4141 3763 4742 3392 
C 5088 3174 5459 2982 5824 2835 
C 5901 2963 6061 3162 6163 3258 
C 5126 3616 4083 4314 3494 4922 
L 3686 5178 
L 3226 5376 
z
" transform="scale(0.015625)"/>
      <path id="NotoSansCJKsc-Regular-5e80" d="M 506 4979 
C 851 4768 1312 4461 1542 4269 
L 1837 4659 
C 1594 4838 1133 5120 794 5318 
L 506 4979 
z
M 250 3238 
C 614 3040 1107 2752 1350 2573 
L 1632 2963 
C 1376 3130 883 3405 525 3578 
L 250 3238 
z
M 3091 1523 
C 3296 1376 3565 1165 3706 1030 
L 3917 1293 
C 3776 1408 3507 1619 3302 1754 
L 3091 1523 
z
M 3072 640 
C 3283 474 3552 237 3686 96 
L 3910 346 
C 3776 480 3501 704 3290 851 
L 3072 640 
z
M 4557 1542 
C 4768 1395 5043 1171 5184 1037 
L 5382 1286 
C 5248 1414 4973 1626 4762 1766 
L 4557 1542 
z
M 4518 678 
C 4730 518 4998 288 5139 141 
L 5357 397 
C 5216 531 4941 742 4730 896 
L 4518 678 
z
M 320 -173 
L 755 -429 
C 1037 166 1363 954 1600 1632 
L 1216 1888 
C 954 1165 582 326 320 -173 
z
M 2061 5152 
L 2061 3296 
C 2061 2253 2003 806 1350 -218 
C 1459 -269 1651 -397 1728 -480 
C 2336 467 2477 1811 2502 2867 
L 4032 2867 
L 4032 2381 
L 2560 2381 
L 2560 -506 
L 2957 -506 
L 2957 2010 
L 4032 2010 
L 4032 -467 
L 4435 -467 
L 4435 2010 
L 5536 2010 
L 5536 -83 
C 5536 -154 5510 -173 5440 -179 
C 5376 -179 5146 -179 4883 -173 
C 4934 -269 4986 -410 5005 -512 
C 5376 -512 5619 -512 5766 -448 
C 5907 -390 5952 -288 5952 -83 
L 5952 2381 
L 4435 2381 
L 4435 2867 
L 6048 2867 
L 6048 3264 
L 2509 3264 
L 2509 3296 
L 2509 3725 
L 5843 3725 
L 5843 5152 
L 2061 5152 
z
M 2509 4749 
L 5382 4749 
L 5382 4122 
L 2509 4122 
L 2509 4749 
z
" transform="scale(0.015625)"/>
     </defs>
     <use xlink:href="#NotoSansCJKsc-Regular-379d"/>
     <use xlink:href="#NotoSansCJKsc-Regular-51bd" transform="translate(100 0)"/>
     <use xlink:href="#NotoSansCJKsc-Regular-2673" transform="translate(200 0)"/>
     <use xlink:href="#NotoSansCJKsc-Regular-2509" transform="translate(300 0)"/>
     <use xlink:href="#NotoSansCJKsc-Regular-26e4" transform="translate(400 0)"/>
     <use xlink:href="#NotoSansCJKsc-Regular-7ccc" transform="translate(500 0)"/>
     <use xlink:href="#NotoSansCJKsc-Regular-4f6d" transform="translate(600 0)"/>
     <use xlink:href="#NotoSansCJKsc-Regular-1" transform="translate(700 0)"/>
     <use xlink:href="#NotoSansCJKsc-Regular-11" transform="translate(722.40625 0)"/>
     <use xlink:href="#NotoSansCJKsc-Regular-e6b2" transform="translate(777.90625 0)"/>
     <use xlink:href="#NotoSansCJKsc-Regular-2b9f" transform="translate(877.90625 0)"/>
     <use xlink:href="#NotoSansCJKsc-Regular-f686" transform="translate(977.90625 0)"/>
     <use xlink:href="#NotoSansCJKsc-Regular-2509" transform="translate(1025.40625 0)"/>
     <use xlink:href="#NotoSansCJKsc-Regular-3c8b" transform="translate(1125.40625 0)"/>
     <use xlink:href="#NotoSansCJKsc-Regular-2518" transform="translate(1225.40625 0)"/>
     <use xlink:href="#NotoSansCJKsc-Regular-3c07" transform="translate(1325.40625 0)"/>
     <use xlink:href="#NotoSansCJKsc-Regular-33c7" transform="translate(1425.40625 0)"/>
     <use xlink:href="#NotoSansCJKsc-Regular-f686" transform="translate(1525.40625 0)"/>
     <use xlink:href="#NotoSansCJKsc-Regular-e6ae" transform="translate(1572.90625 0)"/>
     <use xlink:href="#NotoSansCJKsc-Regular-2518" transform="translate(1672.90625 0)"/>
     <use xlink:href="#NotoSansCJKsc-Regular-26a2" transform="translate(1772.90625 0)"/>
     <use xlink:href="#NotoSansCJKsc-Regular-5e80" transform="translate(1872.90625 0)"/>
     <use xlink:href="#NotoSansCJKsc-Regular-2bae" transform="translate(1972.90625 0)"/>
     <use xlink:href="#NotoSansCJKsc-Regular-e6af" transform="translate(2072.90625 0)"/>
    </g>
   </g>
   <g id="text_42">
    <!-- 布隆过滤器（Bloom Filter） -->
    <g transform="translate(325.832813 21.28) scale(0.16 -0.16)">
     <defs>
      <path id="NotoSansCJKsc-Bold-412d" d="M 2394 5453 
C 2317 5146 2221 4832 2106 4525 
L 339 4525 
L 339 3789 
L 1779 3789 
C 1376 3008 826 2291 109 1824 
C 250 1651 454 1344 550 1152 
C 845 1357 1120 1594 1363 1856 
L 1363 0 
L 2131 0 
L 2131 2093 
L 3149 2093 
L 3149 -570 
L 3923 -570 
L 3923 2093 
L 4992 2093 
L 4992 838 
C 4992 755 4960 730 4858 730 
C 4768 730 4422 723 4128 736 
C 4224 544 4333 250 4365 38 
C 4845 38 5197 51 5440 160 
C 5696 269 5766 467 5766 819 
L 5766 2822 
L 3923 2822 
L 3923 3558 
L 3149 3558 
L 3149 2822 
L 2112 2822 
C 2304 3130 2477 3456 2637 3789 
L 6074 3789 
L 6074 4525 
L 2938 4525 
C 3034 4774 3110 5024 3187 5274 
L 2394 5453 
z
" transform="scale(0.015625)"/>
      <path id="NotoSansCJKsc-Bold-e5f4" d="M 1862 5158 
L 454 5158 
L 454 -576 
L 1126 -576 
L 1126 4480 
L 1626 4480 
C 1523 4032 1382 3456 1254 3040 
C 1619 2598 1702 2195 1702 1894 
C 1702 1709 1670 1574 1594 1517 
C 1549 1485 1478 1466 1414 1459 
C 1331 1459 1248 1459 1133 1472 
C 1242 1286 1293 998 1299 813 
C 1453 806 1606 813 1722 826 
C 1862 845 1984 890 2086 966 
C 2157 1018 2214 1082 2259 1165 
C 2342 1318 2381 1530 2381 1798 
C 2381 2176 2298 2618 1901 3123 
C 2086 3629 2304 4339 2470 4902 
L 1971 5190 
L 1862 5158 
z
M 5901 1875 
L 4640 1875 
L 4640 2234 
L 3923 2234 
L 3923 1875 
L 3430 1875 
L 3546 2170 
L 2925 2317 
C 2784 1894 2547 1453 2259 1165 
C 2413 1094 2688 947 2810 851 
L 2867 922 
L 2867 493 
L 3923 493 
L 3923 160 
L 2349 160 
L 2349 -435 
L 6157 -435 
L 6157 160 
L 4640 160 
L 4640 493 
L 5773 493 
L 5773 1024 
L 4640 1024 
L 4640 1325 
L 5901 1325 
L 5901 1875 
z
M 3923 1024 
L 2950 1024 
C 3014 1114 3085 1216 3149 1325 
L 3923 1325 
L 3923 1024 
z
M 4403 5325 
L 3680 5453 
C 3430 4986 2970 4467 2272 4083 
C 2419 3987 2643 3744 2746 3584 
C 2950 3712 3142 3846 3315 3994 
C 3430 3859 3558 3738 3699 3629 
C 3245 3411 2733 3251 2227 3149 
C 2362 3008 2522 2733 2592 2560 
C 2790 2611 2989 2669 3187 2733 
L 3187 2330 
L 5414 2330 
L 5414 2765 
C 5568 2720 5728 2682 5894 2650 
C 5990 2829 6176 3110 6330 3251 
C 5818 3328 5344 3456 4922 3629 
C 5318 3936 5651 4301 5882 4730 
L 5421 4979 
L 5306 4954 
L 4179 4954 
C 4256 5075 4333 5197 4403 5325 
z
M 3744 4403 
L 4832 4397 
C 4672 4237 4493 4090 4288 3955 
C 4077 4090 3898 4237 3744 4403 
z
M 4301 3219 
C 4550 3078 4819 2957 5101 2861 
L 3546 2861 
C 3808 2963 4064 3085 4301 3219 
z
" transform="scale(0.015625)"/>
      <path id="NotoSansCJKsc-Bold-9c8b" d="M 365 4838 
C 710 4499 1120 4026 1286 3706 
L 1926 4154 
C 1741 4474 1306 4922 960 5242 
L 365 4838 
z
M 2317 2995 
C 2630 2592 3027 2042 3194 1696 
L 3853 2099 
C 3667 2445 3251 2970 2938 3347 
L 2317 2995 
z
M 1773 3066 
L 275 3066 
L 275 2349 
L 1018 2349 
L 1018 922 
C 742 800 429 563 128 250 
L 666 -531 
C 896 -154 1171 275 1357 275 
C 1504 275 1728 77 2029 -83 
C 2502 -346 3046 -416 3859 -416 
C 4518 -416 5562 -378 6010 -352 
C 6022 -122 6150 282 6246 499 
C 5600 403 4557 346 3891 346 
C 3181 346 2579 384 2144 627 
C 1990 710 1875 787 1773 851 
L 1773 3066 
z
M 4525 5395 
L 4525 4339 
L 2144 4339 
L 2144 3616 
L 4525 3616 
L 4525 1510 
C 4525 1402 4480 1363 4346 1363 
C 4218 1357 3750 1357 3341 1376 
C 3443 1165 3571 819 3603 602 
C 4198 602 4640 621 4922 736 
C 5210 858 5306 1062 5306 1504 
L 5306 3616 
L 6093 3616 
L 6093 4339 
L 5306 4339 
L 5306 5395 
L 4525 5395 
z
" transform="scale(0.015625)"/>
      <path id="NotoSansCJKsc-Bold-5e31" d="M 3418 1318 
L 3418 237 
C 3418 -288 3558 -442 4154 -442 
C 4269 -442 4762 -442 4877 -442 
C 5344 -442 5498 -250 5555 493 
C 5395 531 5158 621 5043 704 
C 5018 141 4986 58 4813 58 
C 4704 58 4320 58 4237 58 
C 4051 58 4019 77 4019 237 
L 4019 1318 
L 3418 1318 
z
M 2842 1325 
C 2765 890 2611 326 2426 -26 
L 2925 -218 
C 3110 134 3238 717 3322 1165 
L 2842 1325 
z
M 4013 1523 
C 4250 1203 4531 768 4646 493 
L 5107 774 
C 4979 1050 4698 1466 4448 1766 
L 4013 1523 
z
M 5101 1344 
C 5402 883 5696 256 5786 -141 
L 6278 90 
C 6170 486 5856 1088 5549 1542 
L 5101 1344 
z
M 467 4781 
C 806 4544 1242 4192 1440 3962 
L 1920 4467 
C 1702 4698 1261 5024 915 5235 
L 467 4781 
z
M 173 3149 
C 518 2925 966 2598 1171 2374 
L 1632 2899 
C 1408 3117 947 3418 602 3622 
L 173 3149 
z
M 307 45 
L 960 -358 
C 1242 256 1542 986 1779 1651 
L 1203 2061 
C 928 1331 563 531 307 45 
z
M 1971 4262 
L 1971 2899 
C 1971 2010 1926 742 1395 -147 
C 1530 -224 1824 -493 1933 -634 
C 2547 352 2656 1907 2656 2893 
L 2656 3693 
L 3315 3693 
L 3315 3226 
L 2829 3187 
L 2867 2650 
L 3315 2688 
L 3315 2618 
C 3315 2035 3494 1869 4211 1869 
C 4358 1869 5005 1869 5158 1869 
C 5683 1869 5869 2022 5939 2624 
C 5760 2662 5491 2752 5357 2842 
C 5331 2483 5293 2426 5088 2426 
C 4941 2426 4410 2426 4288 2426 
C 4026 2426 3981 2451 3981 2630 
L 3981 2746 
L 5146 2842 
L 5107 3366 
L 3981 3277 
L 3981 3693 
L 5453 3693 
C 5395 3501 5338 3322 5280 3187 
L 5830 3059 
C 5965 3334 6118 3789 6227 4179 
L 5773 4282 
L 5670 4262 
L 4230 4262 
L 4230 4531 
L 5882 4531 
L 5882 5088 
L 4230 5088 
L 4230 5440 
L 3507 5440 
L 3507 4262 
L 1971 4262 
z
" transform="scale(0.015625)"/>
      <path id="NotoSansCJKsc-Bold-e628" d="M 1453 4531 
L 2163 4531 
L 2163 3955 
L 1453 3955 
L 1453 4531 
z
M 4147 4531 
L 4922 4531 
L 4922 3955 
L 4147 3955 
L 4147 4531 
z
M 3878 3085 
C 4083 3002 4326 2880 4525 2758 
L 3098 2758 
C 3200 2918 3290 3085 3373 3251 
L 2893 3341 
L 2893 5178 
L 768 5178 
L 768 3309 
L 2566 3309 
C 2477 3123 2362 2938 2227 2758 
L 288 2758 
L 288 2093 
L 1555 2093 
C 1178 1792 704 1530 128 1318 
C 269 1184 461 896 538 717 
L 768 819 
L 768 -576 
L 1472 -576 
L 1472 -422 
L 2157 -422 
L 2157 -538 
L 2893 -538 
L 2893 1453 
L 1869 1453 
C 2138 1651 2374 1869 2586 2093 
L 3654 2093 
C 3853 1862 4090 1645 4346 1453 
L 3462 1453 
L 3462 -576 
L 4166 -576 
L 4166 -422 
L 4922 -422 
L 4922 -538 
L 5664 -538 
L 5664 749 
L 5830 691 
C 5939 877 6150 1165 6317 1306 
C 5690 1466 5082 1747 4621 2093 
L 6118 2093 
L 6118 2758 
L 5024 2758 
L 5222 2957 
C 5082 3072 4858 3200 4621 3309 
L 5658 3309 
L 5658 5178 
L 3456 5178 
L 3456 3309 
L 4109 3309 
L 3878 3085 
z
M 1472 237 
L 1472 794 
L 2157 794 
L 2157 237 
L 1472 237 
z
M 4166 237 
L 4166 794 
L 4922 794 
L 4922 237 
L 4166 237 
z
" transform="scale(0.015625)"/>
      <path id="NotoSansCJKsc-Bold-e6ae" d="M 4243 2432 
C 4243 1062 4813 38 5504 -640 
L 6112 -371 
C 5472 320 4966 1203 4966 2432 
C 4966 3661 5472 4544 6112 5235 
L 5504 5504 
C 4813 4826 4243 3802 4243 2432 
z
" transform="scale(0.015625)"/>
      <path id="NotoSansCJKsc-Bold-23" d="M 582 0 
L 2272 0 
C 3315 0 4102 442 4102 1395 
C 4102 2029 3731 2394 3219 2515 
L 3219 2541 
C 3622 2688 3866 3130 3866 3571 
C 3866 4454 3123 4742 2150 4742 
L 582 4742 
L 582 0 
z
M 1530 2810 
L 1530 4013 
L 2093 4013 
C 2662 4013 2944 3846 2944 3430 
C 2944 3053 2688 2810 2086 2810 
L 1530 2810 
z
M 1530 730 
L 1530 2112 
L 2189 2112 
C 2842 2112 3181 1914 3181 1453 
C 3181 960 2829 730 2189 730 
L 1530 730 
z
" transform="scale(0.015625)"/>
      <path id="NotoSansCJKsc-Bold-50" d="M 2003 -90 
C 2899 -90 3725 602 3725 1792 
C 3725 2982 2899 3674 2003 3674 
C 1101 3674 282 2982 282 1792 
C 282 602 1101 -90 2003 -90 
z
M 2003 678 
C 1510 678 1242 1114 1242 1792 
C 1242 2464 1510 2906 2003 2906 
C 2490 2906 2765 2464 2765 1792 
C 2765 1114 2490 678 2003 678 
z
" transform="scale(0.015625)"/>
      <path id="NotoSansCJKsc-Bold-4e" d="M 506 0 
L 1446 0 
L 1446 2464 
C 1696 2739 1926 2867 2131 2867 
C 2477 2867 2637 2675 2637 2118 
L 2637 0 
L 3571 0 
L 3571 2464 
C 3827 2739 4058 2867 4262 2867 
C 4602 2867 4762 2675 4762 2118 
L 4762 0 
L 5696 0 
L 5696 2234 
C 5696 3136 5350 3674 4589 3674 
C 4128 3674 3776 3392 3443 3046 
C 3277 3443 2976 3674 2464 3674 
C 1997 3674 1664 3418 1363 3104 
L 1344 3104 
L 1274 3584 
L 506 3584 
L 506 0 
z
" transform="scale(0.015625)"/>
      <path id="NotoSansCJKsc-Bold-27" d="M 582 0 
L 1530 0 
L 1530 1920 
L 3213 1920 
L 3213 2714 
L 1530 2714 
L 1530 3949 
L 3501 3949 
L 3501 4742 
L 582 4742 
L 582 0 
z
" transform="scale(0.015625)"/>
      <path id="NotoSansCJKsc-Bold-4a" d="M 506 0 
L 1446 0 
L 1446 3584 
L 506 3584 
L 506 0 
z
M 979 4166 
C 1299 4166 1523 4365 1523 4678 
C 1523 4986 1299 5190 979 5190 
C 646 5190 435 4986 435 4678 
C 435 4365 646 4166 979 4166 
z
" transform="scale(0.015625)"/>
      <path id="NotoSansCJKsc-Bold-55" d="M 1818 -90 
C 2131 -90 2381 -13 2579 45 
L 2419 730 
C 2323 691 2182 653 2067 653 
C 1747 653 1574 845 1574 1254 
L 1574 2842 
L 2464 2842 
L 2464 3584 
L 1574 3584 
L 1574 4550 
L 800 4550 
L 691 3584 
L 134 3539 
L 134 2842 
L 640 2842 
L 640 1248 
C 640 454 966 -90 1818 -90 
z
" transform="scale(0.015625)"/>
      <path id="NotoSansCJKsc-Bold-53" d="M 506 0 
L 1446 0 
L 1446 2138 
C 1651 2656 1984 2842 2259 2842 
C 2413 2842 2515 2822 2643 2784 
L 2797 3597 
C 2694 3642 2579 3674 2381 3674 
C 2010 3674 1626 3418 1363 2950 
L 1344 2950 
L 1274 3584 
L 506 3584 
L 506 0 
z
" transform="scale(0.015625)"/>
      <path id="NotoSansCJKsc-Bold-e6af" d="M 2157 2432 
C 2157 3802 1587 4826 896 5504 
L 288 5235 
C 928 4544 1434 3661 1434 2432 
C 1434 1203 928 320 288 -371 
L 896 -640 
C 1587 38 2157 1062 2157 2432 
z
" transform="scale(0.015625)"/>
     </defs>
     <use xlink:href="#NotoSansCJKsc-Bold-412d"/>
     <use xlink:href="#NotoSansCJKsc-Bold-e5f4" transform="translate(100 0)"/>
     <use xlink:href="#NotoSansCJKsc-Bold-9c8b" transform="translate(200 0)"/>
     <use xlink:href="#NotoSansCJKsc-Bold-5e31" transform="translate(300 0)"/>
     <use xlink:href="#NotoSansCJKsc-Bold-e628" transform="translate(400 0)"/>
     <use xlink:href="#NotoSansCJKsc-Bold-e6ae" transform="translate(500 0)"/>
     <use xlink:href="#NotoSansCJKsc-Bold-23" transform="translate(600 0)"/>
     <use xlink:href="#NotoSansCJKsc-Bold-4d" transform="translate(668.09375 0)"/>
     <use xlink:href="#NotoSansCJKsc-Bold-50" transform="translate(699.59375 0)"/>
     <use xlink:href="#NotoSansCJKsc-Bold-50" transform="translate(762.1875 0)"/>
     <use xlink:href="#NotoSansCJKsc-Bold-4e" transform="translate(824.78125 0)"/>
     <use xlink:href="#NotoSansCJKsc-Bold-1" transform="translate(921.1875 0)"/>
     <use xlink:href="#NotoSansCJKsc-Bold-27" transform="translate(943.890625 0)"/>
     <use xlink:href="#NotoSansCJKsc-Bold-4a" transform="translate(1002.390625 0)"/>
     <use xlink:href="#NotoSansCJKsc-Bold-4d" transform="translate(1032.796875 0)"/>
     <use xlink:href="#NotoSansCJKsc-Bold-55" transform="translate(1064.296875 0)"/>
     <use xlink:href="#NotoSansCJKsc-Bold-46" transform="translate(1104.484375 0)"/>
     <use xlink:href="#NotoSansCJKsc-Bold-53" transform="translate(1162.578125 0)"/>
     <use xlink:href="#NotoSansCJKsc-Bold-e6af" transform="translate(1206.171875 0)"/>
    </g>
   </g>
  </g>
 </g>
 <defs>
  <clipPath id="p9d5efd0f08">
   <rect x="7.2" y="41.28" width="846.253125" height="376.1125"/>
  </clipPath>
 </defs>
</svg>
