<?xml version="1.0" encoding="utf-8" standalone="no"?>
<!DOCTYPE svg PUBLIC "-//W3C//DTD SVG 1.1//EN"
  "http://www.w3.org/Graphics/SVG/1.1/DTD/svg11.dtd">
<svg xmlns:xlink="http://www.w3.org/1999/xlink" width="525.6pt" height="324pt" viewBox="0 0 525.6 324" xmlns="http://www.w3.org/2000/svg" version="1.1">
 <metadata>
  <rdf:RDF xmlns:dc="http://purl.org/dc/elements/1.1/" xmlns:cc="http://creativecommons.org/ns#" xmlns:rdf="http://www.w3.org/1999/02/22-rdf-syntax-ns#">
   <cc:Work>
    <dc:type rdf:resource="http://purl.org/dc/dcmitype/StillImage"/>
    <dc:date>2026-08-12T17:41:52.134773</dc:date>
    <dc:format>image/svg+xml</dc:format>
    <dc:creator>
     <cc:Agent>
      <dc:title>Matplotlib v3.11.1, https://matplotlib.org/</dc:title>
     </cc:Agent>
    </dc:creator>
   </cc:Work>
  </rdf:RDF>
 </metadata>
 <defs>
  <style type="text/css">*{stroke-linejoin: round; stroke-linecap: butt}</style>
 </defs>
 <g id="figure_1">
  <g id="patch_1">
   <path d="M 0 324 
L 525.6 324 
L 525.6 0 
L 0 0 
z
" style="fill: #ffffff"/>
  </g>
  <g id="axes_1">
   <g id="patch_2">
    <path d="M 68.057143 114.915 
L 226.285714 114.915 
Q 227.502857 114.915 227.502857 113.625 
L 227.502857 74.925 
Q 227.502857 73.635 226.285714 73.635 
L 68.057143 73.635 
Q 66.84 73.635 66.84 74.925 
L 66.84 113.625 
Q 66.84 114.915 68.057143 114.915 
z
" clip-path="url(#p4b8f0898d0)" style="fill: #4c72b0; stroke: #ffffff; stroke-width: 0.8; stroke-linejoin: miter"/>
   </g>
   <g id="patch_3">
    <path d="M 250.628571 114.915 
L 494.057143 114.915 
Q 495.274286 114.915 495.274286 113.625 
L 495.274286 74.925 
Q 495.274286 73.635 494.057143 73.635 
L 250.628571 73.635 
Q 249.411429 73.635 249.411429 74.925 
L 249.411429 113.625 
Q 249.411429 114.915 250.628571 114.915 
z
" clip-path="url(#p4b8f0898d0)" style="fill: #f5f5f5; stroke: #cccccc; stroke-width: 0.8; stroke-linejoin: miter"/>
   </g>
   <g id="patch_4">
    <path d="M 68.057143 163.29 
L 226.285714 163.29 
Q 227.502857 163.29 227.502857 162 
L 227.502857 123.3 
Q 227.502857 122.01 226.285714 122.01 
L 68.057143 122.01 
Q 66.84 122.01 66.84 123.3 
L 66.84 162 
Q 66.84 163.29 68.057143 163.29 
z
" clip-path="url(#p4b8f0898d0)" style="fill: #4c72b0; stroke: #ffffff; stroke-width: 0.8; stroke-linejoin: miter"/>
   </g>
   <g id="patch_5">
    <path d="M 250.628571 163.29 
L 494.057143 163.29 
Q 495.274286 163.29 495.274286 162 
L 495.274286 123.3 
Q 495.274286 122.01 494.057143 122.01 
L 250.628571 122.01 
Q 249.411429 122.01 249.411429 123.3 
L 249.411429 162 
Q 249.411429 163.29 250.628571 163.29 
z
" clip-path="url(#p4b8f0898d0)" style="fill: #f5f5f5; stroke: #cccccc; stroke-width: 0.8; stroke-linejoin: miter"/>
   </g>
   <g id="patch_6">
    <path d="M 68.057143 211.665 
L 226.285714 211.665 
Q 227.502857 211.665 227.502857 210.375 
L 227.502857 171.675 
Q 227.502857 170.385 226.285714 170.385 
L 68.057143 170.385 
Q 66.84 170.385 66.84 171.675 
L 66.84 210.375 
Q 66.84 211.665 68.057143 211.665 
z
" clip-path="url(#p4b8f0898d0)" style="fill: #4c72b0; stroke: #ffffff; stroke-width: 0.8; stroke-linejoin: miter"/>
   </g>
   <g id="patch_7">
    <path d="M 250.628571 211.665 
L 494.057143 211.665 
Q 495.274286 211.665 495.274286 210.375 
L 495.274286 171.675 
Q 495.274286 170.385 494.057143 170.385 
L 250.628571 170.385 
Q 249.411429 170.385 249.411429 171.675 
L 249.411429 210.375 
Q 249.411429 211.665 250.628571 211.665 
z
" clip-path="url(#p4b8f0898d0)" style="fill: #f5f5f5; stroke: #cccccc; stroke-width: 0.8; stroke-linejoin: miter"/>
   </g>
   <g id="patch_8">
    <path d="M 68.057143 260.04 
L 226.285714 260.04 
Q 227.502857 260.04 227.502857 258.75 
L 227.502857 220.05 
Q 227.502857 218.76 226.285714 218.76 
L 68.057143 218.76 
Q 66.84 218.76 66.84 220.05 
L 66.84 258.75 
Q 66.84 260.04 68.057143 260.04 
z
" clip-path="url(#p4b8f0898d0)" style="fill: #55a868; stroke: #ffffff; stroke-width: 0.8; stroke-linejoin: miter"/>
   </g>
   <g id="patch_9">
    <path d="M 250.628571 260.04 
L 494.057143 260.04 
Q 495.274286 260.04 495.274286 258.75 
L 495.274286 220.05 
Q 495.274286 218.76 494.057143 218.76 
L 250.628571 218.76 
Q 249.411429 218.76 249.411429 220.05 
L 249.411429 258.75 
Q 249.411429 260.04 250.628571 260.04 
z
" clip-path="url(#p4b8f0898d0)" style="fill: #f5f5f5; stroke: #cccccc; stroke-width: 0.8; stroke-linejoin: miter"/>
   </g>
   <g id="text_1">
    <!-- 递归的本质：函数调用栈（后进先出） -->
    <g transform="translate(130.371429 26.55) scale(0.12 -0.12)">
     <defs>
      <path id="NotoSansCJKsc-Bold-9d49" d="M 384 4890 
C 666 4486 986 3942 1114 3597 
L 1830 3962 
C 1683 4301 1338 4819 1056 5203 
L 384 4890 
z
M 4710 5459 
C 4608 5222 4422 4896 4256 4659 
L 3392 4659 
L 3661 4774 
C 3590 4979 3411 5280 3238 5491 
L 2618 5235 
C 2739 5062 2861 4838 2938 4659 
L 2106 4659 
L 2106 4038 
L 3616 4038 
L 3616 3642 
L 2330 3642 
C 2278 3117 2176 2477 2080 2042 
L 3238 2042 
C 2886 1696 2387 1382 1869 1178 
C 2010 1062 2227 813 2330 666 
C 2803 883 3251 1171 3616 1523 
L 3616 493 
L 4378 493 
L 4378 2042 
L 5350 2042 
C 5325 1734 5299 1600 5248 1549 
C 5203 1498 5146 1485 5062 1485 
C 4966 1485 4762 1491 4538 1510 
C 4640 1344 4710 1088 4730 890 
C 4998 883 5248 883 5402 902 
C 5574 928 5702 973 5818 1107 
C 5952 1254 6003 1626 6035 2400 
C 6042 2483 6048 2643 6048 2643 
L 4378 2643 
L 4378 3027 
L 5779 3027 
L 5779 4659 
L 5043 4659 
C 5184 4845 5331 5056 5466 5274 
L 4710 5459 
z
M 2861 2643 
L 2925 3027 
L 3616 3027 
L 3616 2643 
L 2861 2643 
z
M 4378 4038 
L 5133 4038 
L 5133 3642 
L 4378 3642 
L 4378 4038 
z
M 1734 3059 
L 256 3059 
L 256 2310 
L 992 2310 
L 992 858 
C 742 736 454 512 179 211 
L 704 -563 
C 896 -198 1146 237 1318 237 
C 1466 237 1690 38 1984 -122 
C 2464 -378 3014 -448 3834 -448 
C 4499 -448 5574 -410 6035 -378 
C 6054 -160 6176 237 6266 448 
C 5606 352 4544 288 3866 288 
C 3142 288 2541 326 2106 576 
C 1952 653 1837 730 1734 787 
L 1734 3059 
z
" transform="scale(0.015625)"/>
      <path id="NotoSansCJKsc-Bold-438d" d="M 429 4659 
L 429 1408 
L 1178 1408 
L 1178 4659 
L 429 4659 
z
M 1683 5421 
L 1683 2880 
C 1683 1760 1568 678 582 -83 
C 768 -198 1062 -474 1197 -640 
C 2317 256 2451 1562 2451 2880 
L 2451 5421 
L 1683 5421 
z
M 2822 4966 
L 2822 4211 
L 5146 4211 
L 5146 2893 
L 3002 2893 
L 3002 2125 
L 5146 2125 
L 5146 678 
L 2669 678 
L 2669 -77 
L 5146 -77 
L 5146 -531 
L 5939 -531 
L 5939 4966 
L 2822 4966 
z
" transform="scale(0.015625)"/>
      <path id="NotoSansCJKsc-Bold-6c33" d="M 3430 2598 
C 3744 2131 4141 1498 4320 1107 
L 4973 1504 
C 4774 1882 4346 2496 4032 2938 
L 3430 2598 
z
M 3744 5434 
C 3558 4672 3251 3898 2880 3347 
L 2880 4397 
L 1888 4397 
C 1997 4666 2112 4998 2214 5318 
L 1382 5440 
C 1357 5133 1280 4717 1197 4397 
L 467 4397 
L 467 -384 
L 1165 -384 
L 1165 90 
L 2880 90 
L 2880 3098 
C 3053 2989 3270 2829 3379 2726 
C 3578 3002 3770 3354 3942 3744 
L 5318 3744 
C 5254 1478 5171 512 4973 307 
C 4896 218 4826 198 4698 198 
C 4531 198 4147 198 3738 237 
C 3872 26 3974 -301 3987 -512 
C 4365 -525 4755 -531 4998 -499 
C 5261 -454 5440 -384 5613 -141 
C 5882 198 5952 1222 6035 4102 
C 6042 4192 6042 4448 6042 4448 
L 4230 4448 
C 4326 4717 4416 4992 4486 5261 
L 3744 5434 
z
M 1165 3731 
L 2189 3731 
L 2189 2688 
L 1165 2688 
L 1165 3731 
z
M 1165 762 
L 1165 2022 
L 2189 2022 
L 2189 762 
L 1165 762 
z
" transform="scale(0.015625)"/>
      <path id="NotoSansCJKsc-Bold-5117" d="M 2790 3411 
L 2790 1293 
L 1606 1293 
C 2067 1894 2458 2624 2746 3411 
L 2790 3411 
z
M 3603 3411 
L 3629 3411 
C 3917 2630 4294 1894 4755 1293 
L 3603 1293 
L 3603 3411 
z
M 2790 5434 
L 2790 4192 
L 378 4192 
L 378 3411 
L 1958 3411 
C 1555 2438 902 1517 154 1005 
C 333 858 582 576 717 384 
C 973 582 1216 819 1440 1088 
L 1440 512 
L 2790 512 
L 2790 -576 
L 3603 -576 
L 3603 512 
L 4934 512 
L 4934 1069 
C 5146 819 5370 595 5613 410 
C 5747 627 6022 928 6221 1088 
C 5472 1594 4819 2470 4416 3411 
L 6035 3411 
L 6035 4192 
L 3603 4192 
L 3603 5434 
L 2790 5434 
z
" transform="scale(0.015625)"/>
      <path id="NotoSansCJKsc-Bold-984f" d="M 3853 269 
C 4448 38 5210 -320 5632 -570 
L 6176 -58 
C 5728 160 4979 499 4384 717 
L 3853 269 
z
M 3424 2042 
L 3424 1555 
C 3424 1133 3296 467 1338 19 
C 1523 -134 1760 -410 1862 -570 
C 3942 13 4230 896 4230 1536 
L 4230 2042 
L 3424 2042 
z
M 1882 2963 
L 1882 717 
L 2650 717 
L 2650 2259 
L 4941 2259 
L 4941 666 
L 5754 666 
L 5754 2963 
L 3994 2963 
L 4058 3418 
L 6131 3418 
L 6131 4090 
L 4122 4090 
L 4160 4602 
C 4742 4672 5286 4762 5766 4864 
L 5165 5478 
C 4122 5235 2349 5082 800 5024 
L 800 3200 
C 800 2221 755 832 147 -115 
C 333 -186 672 -378 819 -499 
C 1459 518 1555 2125 1555 3200 
L 1555 3418 
L 3290 3418 
L 3251 2963 
L 1882 2963 
z
M 3328 4090 
L 1555 4090 
L 1555 4390 
C 2138 4416 2746 4454 3341 4512 
L 3328 4090 
z
" transform="scale(0.015625)"/>
      <path id="NotoSansCJKsc-Bold-f6ae" d="M 1600 3002 
C 1939 3002 2208 3258 2208 3603 
C 2208 3955 1939 4211 1600 4211 
C 1261 4211 992 3955 992 3603 
C 992 3258 1261 3002 1600 3002 
z
M 1600 -51 
C 1939 -51 2208 205 2208 550 
C 2208 902 1939 1158 1600 1158 
C 1261 1158 992 902 992 550 
C 992 205 1261 -51 1600 -51 
z
" transform="scale(0.015625)"/>
      <path id="NotoSansCJKsc-Bold-2b79" d="M 1318 3302 
C 1606 3034 1965 2643 2131 2406 
L 2630 2874 
C 2451 3104 2106 3450 1798 3706 
L 1318 3302 
z
M 448 3949 
L 448 -320 
L 5178 -320 
L 5178 -582 
L 5939 -582 
L 5939 3974 
L 5178 3974 
L 5178 371 
L 1216 371 
L 1216 3949 
L 448 3949 
z
M 2822 3936 
L 2822 2605 
C 2221 2259 1613 1907 1216 1709 
L 1574 1075 
C 1952 1325 2394 1626 2822 1933 
L 2822 1293 
C 2822 1222 2797 1197 2714 1197 
C 2630 1190 2342 1190 2099 1203 
C 2195 1011 2285 723 2317 531 
C 2739 531 3059 538 3283 640 
C 3520 749 3584 928 3584 1280 
L 3584 2086 
C 4000 1696 4397 1280 4627 986 
L 5107 1504 
C 4896 1747 4570 2074 4218 2387 
C 4499 2675 4819 3053 5114 3398 
L 4480 3738 
C 4307 3443 4038 3066 3782 2765 
L 3584 2931 
L 3584 3654 
C 4186 3981 4781 4422 5229 4838 
L 4723 5242 
L 4557 5203 
L 1152 5203 
L 1152 4506 
L 3744 4506 
C 3456 4288 3130 4083 2822 3936 
z
" transform="scale(0.015625)"/>
      <path id="NotoSansCJKsc-Bold-4e18" d="M 2714 5363 
C 2611 5120 2432 4768 2291 4544 
L 2778 4326 
C 2944 4525 3149 4819 3360 5107 
L 2714 5363 
z
M 2394 1523 
C 2278 1299 2125 1101 1952 928 
L 1427 1184 
L 1619 1523 
L 2394 1523 
z
M 512 941 
C 806 826 1120 672 1427 512 
C 1062 288 634 122 166 19 
C 294 -115 442 -384 512 -557 
C 1088 -397 1606 -166 2042 160 
C 2227 45 2394 -70 2528 -173 
L 2982 326 
C 2854 416 2694 512 2528 614 
C 2854 986 3104 1446 3264 2016 
L 2848 2170 
L 2733 2144 
L 1926 2144 
L 2029 2394 
L 1350 2515 
C 1306 2394 1254 2272 1197 2144 
L 384 2144 
L 384 1523 
L 877 1523 
C 755 1306 627 1107 512 941 
z
M 429 5101 
C 582 4851 736 4518 781 4301 
L 275 4301 
L 275 3699 
L 1222 3699 
C 928 3386 518 3104 141 2950 
C 282 2810 448 2560 538 2387 
C 858 2566 1197 2829 1491 3123 
L 1491 2554 
L 2202 2554 
L 2202 3245 
C 2445 3053 2694 2842 2835 2707 
L 3238 3238 
C 3123 3322 2771 3533 2477 3699 
L 3418 3699 
L 3418 4301 
L 2202 4301 
L 2202 5440 
L 1491 5440 
L 1491 4301 
L 832 4301 
L 1363 4531 
C 1312 4762 1146 5088 979 5331 
L 429 5101 
z
M 3917 5421 
C 3776 4269 3488 3174 2976 2509 
C 3130 2400 3418 2150 3526 2022 
C 3648 2195 3763 2387 3866 2598 
C 3987 2112 4134 1658 4320 1254 
C 3987 717 3520 314 2874 19 
C 3002 -128 3206 -448 3270 -602 
C 3872 -294 4339 90 4698 570 
C 4986 128 5344 -243 5786 -518 
C 5894 -326 6118 -51 6285 83 
C 5798 352 5414 755 5114 1254 
C 5421 1888 5613 2643 5734 3546 
L 6138 3546 
L 6138 4256 
L 4422 4256 
C 4499 4602 4570 4954 4621 5318 
L 3917 5421 
z
M 5018 3546 
C 4954 3002 4858 2515 4710 2093 
C 4538 2541 4410 3027 4320 3546 
L 5018 3546 
z
" transform="scale(0.015625)"/>
      <path id="NotoSansCJKsc-Bold-9680" d="M 512 4877 
C 864 4570 1318 4128 1517 3840 
L 2042 4371 
C 1824 4653 1357 5062 1005 5344 
L 512 4877 
z
M 224 3462 
L 224 2726 
L 979 2726 
L 979 883 
C 979 486 742 179 582 32 
C 710 -64 960 -314 1043 -461 
C 1146 -326 1318 -166 2125 538 
C 2048 288 1939 58 1798 -154 
C 1946 -230 2234 -448 2342 -570 
C 2957 294 3046 1709 3046 2714 
L 3046 4538 
L 5293 4538 
L 5293 243 
C 5293 154 5261 122 5178 115 
C 5088 115 4806 109 4531 128 
C 4634 -51 4736 -378 4755 -563 
C 5197 -570 5491 -550 5696 -435 
C 5914 -314 5971 -109 5971 230 
L 5971 5203 
L 2381 5203 
L 2381 2714 
C 2381 2176 2368 1542 2240 954 
C 2176 1094 2112 1254 2067 1382 
L 1728 1094 
L 1728 3462 
L 224 3462 
z
M 3859 4416 
L 3859 3994 
L 3341 3994 
L 3341 3450 
L 3859 3450 
L 3859 3014 
L 3226 3014 
L 3226 2470 
L 5139 2470 
L 5139 3014 
L 4454 3014 
L 4454 3450 
L 5011 3450 
L 5011 3994 
L 4454 3994 
L 4454 4416 
L 3859 4416 
z
M 3270 2086 
L 3270 205 
L 3827 205 
L 3827 486 
L 5005 486 
L 5005 2086 
L 3270 2086 
z
M 3827 1549 
L 4448 1549 
L 4448 1024 
L 3827 1024 
L 3827 1549 
z
" transform="scale(0.015625)"/>
      <path id="NotoSansCJKsc-Bold-69ab" d="M 909 5011 
L 909 2714 
C 909 1811 851 666 147 -109 
C 320 -205 634 -467 755 -608 
C 1216 -109 1453 595 1562 1299 
L 2880 1299 
L 2880 -493 
L 3654 -493 
L 3654 1299 
L 5005 1299 
L 5005 339 
C 5005 224 4960 186 4845 186 
C 4723 186 4301 179 3936 198 
C 4038 0 4160 -333 4186 -538 
C 4768 -544 5158 -525 5421 -403 
C 5683 -288 5773 -77 5773 333 
L 5773 5011 
L 909 5011 
z
M 1664 4275 
L 2880 4275 
L 2880 3533 
L 1664 3533 
L 1664 4275 
z
M 5005 4275 
L 5005 3533 
L 3654 3533 
L 3654 4275 
L 5005 4275 
z
M 1664 2816 
L 2880 2816 
L 2880 2022 
L 1645 2022 
C 1658 2266 1664 2496 1664 2707 
L 1664 2816 
z
M 5005 2816 
L 5005 2022 
L 3654 2022 
L 3654 2816 
L 5005 2816 
z
" transform="scale(0.015625)"/>
      <path id="NotoSansCJKsc-Bold-525e" d="M 5478 2291 
C 5267 1965 5005 1670 4691 1408 
C 4627 1645 4563 1907 4512 2195 
L 6067 2502 
L 5920 3194 
L 4397 2893 
L 4326 3437 
L 5837 3667 
L 5709 4365 
L 5178 4288 
L 5594 4646 
C 5421 4845 5082 5139 4819 5331 
L 4346 4941 
C 4582 4742 4883 4461 5050 4269 
L 4269 4154 
C 4243 4570 4230 4998 4237 5427 
L 3469 5427 
C 3469 4966 3488 4499 3520 4038 
L 2560 3898 
L 2682 3181 
L 3578 3322 
L 3648 2752 
L 2509 2528 
L 2662 1824 
L 3763 2042 
C 3840 1645 3930 1267 4038 941 
C 3501 608 2886 352 2246 166 
C 2419 -6 2618 -275 2714 -480 
C 3277 -282 3821 -38 4314 262 
C 4582 -262 4922 -576 5338 -576 
C 5888 -576 6118 -320 6240 717 
C 6054 794 5798 966 5638 1133 
C 5606 442 5536 173 5408 173 
C 5248 173 5088 365 4941 691 
C 5408 1062 5818 1491 6138 1984 
L 5478 2291 
z
M 1062 5440 
L 1062 4243 
L 314 4243 
L 314 3533 
L 1037 3533 
C 858 2771 518 1888 134 1395 
C 256 1190 429 838 499 621 
C 704 928 896 1370 1062 1856 
L 1062 -570 
L 1773 -570 
L 1773 2368 
C 1894 2112 2010 1843 2080 1664 
L 2528 2182 
C 2419 2368 1939 3117 1773 3334 
L 1773 3533 
L 2419 3533 
L 2419 4243 
L 1773 4243 
L 1773 5440 
L 1062 5440 
z
" transform="scale(0.015625)"/>
      <path id="NotoSansCJKsc-Bold-e6ae" d="M 4243 2432 
C 4243 1062 4813 38 5504 -640 
L 6112 -371 
C 5472 320 4966 1203 4966 2432 
C 4966 3661 5472 4544 6112 5235 
L 5504 5504 
C 4813 4826 4243 3802 4243 2432 
z
" transform="scale(0.015625)"/>
      <path id="NotoSansCJKsc-Bold-2eb5" d="M 883 4896 
L 883 3136 
C 883 2176 826 845 134 -64 
C 307 -160 640 -429 774 -589 
C 1510 352 1664 1869 1683 2944 
L 6195 2944 
L 6195 3674 
L 1683 3674 
L 1683 4256 
C 3098 4333 4627 4506 5792 4794 
L 5171 5421 
C 4134 5152 2419 4979 883 4896 
z
M 2022 2234 
L 2022 -570 
L 2797 -570 
L 2797 -282 
L 4947 -282 
L 4947 -550 
L 5766 -550 
L 5766 2234 
L 2022 2234 
z
M 2797 429 
L 2797 1523 
L 4947 1523 
L 4947 429 
L 2797 429 
z
" transform="scale(0.015625)"/>
      <path id="NotoSansCJKsc-Bold-9cbd" d="M 384 4890 
C 730 4563 1171 4096 1363 3802 
L 1952 4288 
C 1741 4576 1280 5018 934 5318 
L 384 4890 
z
M 4467 5261 
L 4467 4339 
L 3738 4339 
L 3738 5267 
L 2982 5267 
L 2982 4339 
L 2176 4339 
L 2176 3597 
L 2982 3597 
L 2982 3187 
C 2982 3034 2982 2874 2970 2707 
L 2125 2707 
L 2125 1971 
L 2848 1971 
C 2739 1606 2547 1254 2208 973 
C 2368 870 2675 582 2784 435 
C 3258 832 3507 1395 3629 1971 
L 4467 1971 
L 4467 531 
L 5229 531 
L 5229 1971 
L 6093 1971 
L 6093 2707 
L 5229 2707 
L 5229 3597 
L 5965 3597 
L 5965 4339 
L 5229 4339 
L 5229 5261 
L 4467 5261 
z
M 3738 3597 
L 4467 3597 
L 4467 2707 
L 3725 2707 
C 3731 2874 3738 3027 3738 3181 
L 3738 3597 
z
M 1773 3110 
L 275 3110 
L 275 2400 
L 1018 2400 
L 1018 832 
C 749 710 442 474 147 166 
L 659 -563 
C 890 -186 1171 237 1363 237 
C 1510 237 1728 38 2022 -122 
C 2490 -378 3040 -448 3846 -448 
C 4506 -448 5568 -410 6022 -384 
C 6029 -166 6157 211 6240 416 
C 5600 320 4557 269 3878 269 
C 3162 269 2573 301 2138 550 
C 1990 627 1869 704 1773 768 
L 1773 3110 
z
" transform="scale(0.015625)"/>
      <path id="NotoSansCJKsc-Bold-2a5d" d="M 2816 5440 
L 2816 4570 
L 1990 4570 
C 2061 4781 2125 4992 2176 5190 
L 1395 5344 
C 1261 4691 954 3821 538 3296 
C 723 3226 1037 3072 1216 2950 
C 1402 3194 1568 3501 1715 3834 
L 2816 3834 
L 2816 2790 
L 352 2790 
L 352 2048 
L 1869 2048 
C 1766 1203 1530 480 250 70 
C 422 -90 640 -403 730 -608 
C 2208 -45 2541 909 2675 2048 
L 3610 2048 
L 3610 486 
C 3610 -237 3782 -474 4506 -474 
C 4646 -474 5101 -474 5248 -474 
C 5843 -474 6048 -198 6125 819 
C 5920 877 5581 998 5427 1126 
C 5402 365 5370 250 5178 250 
C 5062 250 4704 250 4614 250 
C 4416 250 4384 282 4384 493 
L 4384 2048 
L 6067 2048 
L 6067 2790 
L 3597 2790 
L 3597 3834 
L 5562 3834 
L 5562 4570 
L 3597 4570 
L 3597 5440 
L 2816 5440 
z
" transform="scale(0.015625)"/>
      <path id="NotoSansCJKsc-Bold-2b74" d="M 544 2221 
L 544 -224 
L 4966 -224 
L 4966 -570 
L 5824 -570 
L 5824 2221 
L 4966 2221 
L 4966 544 
L 3603 544 
L 3603 2560 
L 5568 2560 
L 5568 4896 
L 4710 4896 
L 4710 3302 
L 3603 3302 
L 3603 5434 
L 2752 5434 
L 2752 3302 
L 1690 3302 
L 1690 4890 
L 877 4890 
L 877 2560 
L 2752 2560 
L 2752 544 
L 1408 544 
L 1408 2221 
L 544 2221 
z
" transform="scale(0.015625)"/>
      <path id="NotoSansCJKsc-Bold-e6af" d="M 2157 2432 
C 2157 3802 1587 4826 896 5504 
L 288 5235 
C 928 4544 1434 3661 1434 2432 
C 1434 1203 928 320 288 -371 
L 896 -640 
C 1587 38 2157 1062 2157 2432 
z
" transform="scale(0.015625)"/>
     </defs>
     <use xlink:href="#NotoSansCJKsc-Bold-9d49"/>
     <use xlink:href="#NotoSansCJKsc-Bold-438d" transform="translate(100 0)"/>
     <use xlink:href="#NotoSansCJKsc-Bold-6c33" transform="translate(200 0)"/>
     <use xlink:href="#NotoSansCJKsc-Bold-5117" transform="translate(300 0)"/>
     <use xlink:href="#NotoSansCJKsc-Bold-984f" transform="translate(400 0)"/>
     <use xlink:href="#NotoSansCJKsc-Bold-f6ae" transform="translate(500 0)"/>
     <use xlink:href="#NotoSansCJKsc-Bold-2b79" transform="translate(600 0)"/>
     <use xlink:href="#NotoSansCJKsc-Bold-4e18" transform="translate(700 0)"/>
     <use xlink:href="#NotoSansCJKsc-Bold-9680" transform="translate(800 0)"/>
     <use xlink:href="#NotoSansCJKsc-Bold-69ab" transform="translate(900 0)"/>
     <use xlink:href="#NotoSansCJKsc-Bold-525e" transform="translate(1000 0)"/>
     <use xlink:href="#NotoSansCJKsc-Bold-e6ae" transform="translate(1100 0)"/>
     <use xlink:href="#NotoSansCJKsc-Bold-2eb5" transform="translate(1200 0)"/>
     <use xlink:href="#NotoSansCJKsc-Bold-9cbd" transform="translate(1300 0)"/>
     <use xlink:href="#NotoSansCJKsc-Bold-2a5d" transform="translate(1400 0)"/>
     <use xlink:href="#NotoSansCJKsc-Bold-2b74" transform="translate(1500 0)"/>
     <use xlink:href="#NotoSansCJKsc-Bold-e6af" transform="translate(1600 0)"/>
    </g>
   </g>
   <g id="text_2">
    <!-- 每调用一次自己，就往栈顶压一层；返程时逐层弹出 -->
    <g style="fill: #555555" transform="translate(123.121429 58.8) scale(0.095 -0.095)">
     <defs>
      <path id="NotoSansCJKsc-Regular-5937" d="M 2502 2931 
C 2906 2746 3386 2445 3635 2208 
L 1722 2208 
L 1856 3219 
L 4800 3219 
L 4762 2208 
L 3674 2208 
L 3942 2490 
C 3693 2726 3187 3021 2778 3200 
L 2502 2931 
z
M 275 2221 
L 275 1786 
L 1184 1786 
C 1101 1242 1018 723 934 333 
L 1197 333 
L 4608 326 
C 4570 128 4531 13 4480 -45 
C 4422 -122 4365 -141 4250 -141 
C 4122 -141 3827 -134 3507 -109 
C 3571 -218 3616 -384 3622 -493 
C 3936 -512 4262 -518 4448 -506 
C 4646 -486 4781 -435 4902 -269 
C 4979 -173 5037 6 5088 326 
L 5914 326 
L 5914 755 
L 5139 755 
C 5171 1030 5190 1370 5216 1786 
L 6138 1786 
L 6138 2221 
L 5235 2221 
L 5280 3411 
C 5280 3475 5286 3648 5286 3648 
L 1427 3648 
C 1382 3219 1318 2720 1248 2221 
L 275 2221 
z
M 4666 755 
L 3610 755 
L 3834 998 
C 3571 1254 3059 1581 2618 1792 
L 4742 1792 
C 4723 1363 4698 1018 4666 755 
z
M 2336 1523 
C 2746 1325 3219 1011 3488 755 
L 1504 755 
L 1664 1792 
L 2598 1792 
L 2336 1523 
z
M 1734 5414 
C 1395 4602 845 3776 250 3264 
C 371 3194 582 3053 678 2976 
C 1024 3322 1382 3789 1696 4294 
L 5920 4294 
L 5920 4730 
L 1946 4730 
C 2042 4909 2131 5088 2214 5274 
L 1734 5414 
z
" transform="scale(0.015625)"/>
      <path id="NotoSansCJKsc-Regular-9680" d="M 672 4941 
C 1018 4646 1446 4218 1638 3936 
L 1978 4275 
C 1773 4544 1338 4954 986 5235 
L 672 4941 
z
M 275 3366 
L 275 2906 
L 1178 2906 
L 1178 685 
C 1178 346 947 96 819 -6 
C 909 -77 1062 -237 1120 -333 
C 1203 -224 1357 -96 2208 582 
C 2118 282 1990 0 1811 -250 
C 1907 -301 2093 -435 2163 -506 
C 2790 365 2880 1715 2880 2701 
L 2880 4659 
L 5478 4659 
L 5478 70 
C 5478 -26 5446 -58 5350 -58 
C 5261 -64 4960 -64 4627 -51 
C 4691 -173 4762 -371 4781 -493 
C 5235 -493 5510 -486 5683 -416 
C 5856 -333 5914 -192 5914 64 
L 5914 5088 
L 2451 5088 
L 2451 2701 
C 2451 2093 2432 1382 2253 723 
C 2202 819 2144 954 2112 1050 
L 1645 691 
L 1645 3366 
L 275 3366 
z
M 3968 4467 
L 3968 3930 
L 3277 3930 
L 3277 3558 
L 3968 3558 
L 3968 2906 
L 3136 2906 
L 3136 2541 
L 5235 2541 
L 5235 2906 
L 4358 2906 
L 4358 3558 
L 5075 3558 
L 5075 3930 
L 4358 3930 
L 4358 4467 
L 3968 4467 
z
M 3277 2016 
L 3277 224 
L 3648 224 
L 3648 518 
L 4998 518 
L 4998 2016 
L 3277 2016 
z
M 3648 1658 
L 4627 1658 
L 4627 883 
L 3648 883 
L 3648 1658 
z
" transform="scale(0.015625)"/>
      <path id="NotoSansCJKsc-Regular-69ab" d="M 979 4928 
L 979 2605 
C 979 1702 915 570 205 -230 
C 314 -288 506 -448 576 -544 
C 1069 0 1286 736 1382 1453 
L 2989 1453 
L 2989 -454 
L 3475 -454 
L 3475 1453 
L 5203 1453 
L 5203 141 
C 5203 26 5158 -13 5030 -19 
C 4909 -26 4474 -32 4026 -13 
C 4090 -141 4166 -352 4192 -474 
C 4794 -480 5165 -474 5382 -397 
C 5600 -320 5677 -173 5677 141 
L 5677 4928 
L 979 4928 
z
M 1453 4467 
L 2989 4467 
L 2989 3437 
L 1453 3437 
L 1453 4467 
z
M 5203 4467 
L 5203 3437 
L 3475 3437 
L 3475 4467 
L 5203 4467 
z
M 1453 2982 
L 2989 2982 
L 2989 1907 
L 1427 1907 
C 1446 2150 1453 2387 1453 2605 
L 1453 2982 
z
M 5203 2982 
L 5203 1907 
L 3475 1907 
L 3475 2982 
L 5203 2982 
z
" transform="scale(0.015625)"/>
      <path id="NotoSansCJKsc-Regular-2509" d="M 282 2758 
L 282 2234 
L 6144 2234 
L 6144 2758 
L 282 2758 
z
" transform="scale(0.015625)"/>
      <path id="NotoSansCJKsc-Regular-57e0" d="M 365 4589 
C 800 4346 1344 3962 1600 3699 
L 1907 4090 
C 1638 4352 1088 4704 653 4934 
L 365 4589 
z
M 269 467 
L 710 134 
C 1107 710 1594 1453 1971 2106 
L 1600 2426 
C 1184 1728 640 934 269 467 
z
M 2906 5376 
C 2701 4352 2342 3354 1850 2726 
C 1978 2669 2214 2534 2310 2458 
C 2566 2822 2797 3290 2995 3814 
L 5357 3814 
C 5235 3373 5037 2886 4883 2579 
C 4998 2528 5190 2432 5293 2374 
C 5517 2816 5798 3494 5965 4122 
L 5613 4314 
L 5517 4288 
L 3155 4288 
C 3258 4608 3347 4941 3418 5280 
L 2906 5376 
z
M 3642 3501 
L 3642 3104 
C 3642 2189 3501 794 1536 -166 
C 1658 -250 1824 -422 1901 -538 
C 3162 96 3718 915 3968 1696 
C 4326 672 4902 -77 5830 -467 
C 5894 -339 6042 -141 6150 -45 
C 5037 358 4429 1344 4141 2630 
C 4147 2797 4154 2950 4154 3098 
L 4154 3501 
L 3642 3501 
z
" transform="scale(0.015625)"/>
      <path id="NotoSansCJKsc-Regular-8205" d="M 1530 2630 
L 4954 2630 
L 4954 1690 
L 1530 1690 
L 1530 2630 
z
M 1530 3085 
L 1530 4038 
L 4954 4038 
L 4954 3085 
L 1530 3085 
z
M 1530 1242 
L 4954 1242 
L 4954 294 
L 1530 294 
L 1530 1242 
z
M 2912 5389 
C 2861 5133 2758 4781 2662 4499 
L 1043 4499 
L 1043 -518 
L 1530 -518 
L 1530 -160 
L 4954 -160 
L 4954 -486 
L 5459 -486 
L 5459 4499 
L 3149 4499 
C 3258 4742 3366 5037 3469 5312 
L 2912 5389 
z
" transform="scale(0.015625)"/>
      <path id="NotoSansCJKsc-Regular-4115" d="M 979 2906 
L 979 518 
C 979 -205 1312 -371 2342 -371 
C 2573 -371 4518 -371 4768 -371 
C 5805 -371 6010 -70 6125 1082 
C 5978 1107 5766 1190 5638 1274 
C 5562 294 5459 102 4774 102 
C 4339 102 2656 102 2323 102 
C 1613 102 1472 179 1472 518 
L 1472 2438 
L 4806 2438 
L 4806 2035 
L 5312 2035 
L 5312 4998 
L 896 4998 
L 896 4512 
L 4806 4512 
L 4806 2906 
L 979 2906 
z
" transform="scale(0.015625)"/>
      <path id="NotoSansCJKsc-Regular-e6b2" d="M 1005 -685 
C 1677 -448 2112 77 2112 768 
C 2112 1216 1920 1504 1568 1504 
C 1306 1504 1082 1344 1082 1043 
C 1082 742 1299 589 1562 589 
L 1670 602 
C 1638 160 1357 -141 864 -346 
L 1005 -685 
z
" transform="scale(0.015625)"/>
      <path id="NotoSansCJKsc-Regular-3da9" d="M 1114 3251 
L 2554 3251 
L 2554 2483 
L 1114 2483 
L 1114 3251 
z
M 4614 2765 
L 4614 333 
C 4614 -70 4659 -173 4762 -256 
C 4864 -333 5024 -358 5158 -358 
C 5242 -358 5478 -358 5568 -358 
C 5690 -358 5843 -346 5933 -294 
C 6035 -256 6099 -173 6144 -45 
C 6176 83 6202 422 6214 710 
C 6086 749 5926 832 5837 915 
C 5830 589 5824 326 5805 218 
C 5786 115 5760 58 5715 38 
C 5677 13 5594 6 5523 6 
C 5440 6 5306 6 5248 6 
C 5184 6 5133 19 5088 38 
C 5056 64 5043 147 5043 282 
L 5043 2765 
L 4614 2765 
z
M 909 1754 
C 787 1222 589 691 320 333 
C 416 282 589 160 666 96 
C 928 486 1171 1088 1312 1664 
L 909 1754 
z
M 2342 1670 
C 2547 1318 2733 838 2803 525 
L 3168 698 
C 3098 1005 2899 1472 2688 1824 
L 2342 1670 
z
M 4915 4890 
C 5178 4602 5453 4192 5562 3930 
L 5907 4147 
C 5786 4403 5504 4800 5242 5075 
L 4915 4890 
z
M 691 3648 
L 691 2093 
L 1651 2093 
L 1651 13 
C 1651 -51 1632 -70 1568 -70 
C 1504 -77 1293 -77 1056 -70 
C 1120 -186 1184 -352 1203 -474 
C 1536 -474 1754 -467 1901 -403 
C 2048 -333 2086 -211 2086 0 
L 2086 2093 
L 3002 2093 
L 3002 3648 
L 691 3648 
z
M 1421 5286 
C 1523 5075 1638 4813 1709 4589 
L 346 4589 
L 346 4160 
L 3270 4160 
L 3270 4589 
L 2208 4589 
C 2131 4819 1990 5139 1862 5389 
L 1421 5286 
z
M 4218 5363 
C 4218 4851 4218 4288 4186 3718 
L 3328 3718 
L 3328 3277 
L 4154 3277 
C 4045 1920 3725 576 2797 -230 
C 2918 -301 3072 -422 3149 -518 
C 4128 371 4474 1824 4602 3277 
L 6106 3277 
L 6106 3718 
L 4634 3718 
C 4666 4288 4672 4845 4678 5363 
L 4218 5363 
z
" transform="scale(0.015625)"/>
      <path id="NotoSansCJKsc-Regular-43e2" d="M 1594 5363 
C 1325 4909 774 4371 282 4045 
C 358 3949 486 3757 538 3648 
C 1094 4032 1683 4634 2048 5184 
L 1594 5363 
z
M 3507 5242 
C 3725 4909 3949 4461 4038 4179 
L 4506 4365 
C 4410 4646 4166 5075 3942 5402 
L 3507 5242 
z
M 1722 3936 
C 1363 3277 768 2618 198 2195 
C 282 2080 416 1830 461 1722 
C 685 1907 909 2131 1133 2374 
L 1133 -512 
L 1626 -512 
L 1626 2970 
C 1824 3232 2003 3501 2150 3770 
L 1722 3936 
z
M 2234 4154 
L 2234 3699 
L 3859 3699 
L 3859 2253 
L 2464 2253 
L 2464 1798 
L 3859 1798 
L 3859 147 
L 2048 147 
L 2048 -314 
L 6131 -314 
L 6131 147 
L 4358 147 
L 4358 1798 
L 5760 1798 
L 5760 2253 
L 4358 2253 
L 4358 3699 
L 5965 3699 
L 5965 4154 
L 2234 4154 
z
" transform="scale(0.015625)"/>
      <path id="NotoSansCJKsc-Regular-525e" d="M 4352 4941 
C 4614 4723 4947 4416 5101 4218 
L 5421 4493 
C 5261 4691 4928 4986 4666 5184 
L 4352 4941 
z
M 5638 2246 
C 5376 1850 5030 1485 4621 1171 
C 4512 1485 4416 1850 4333 2253 
L 5984 2573 
L 5888 3008 
L 4250 2694 
C 4205 2963 4166 3245 4134 3546 
L 5773 3802 
L 5690 4230 
L 4090 3987 
C 4058 4429 4038 4896 4038 5370 
L 3558 5370 
C 3565 4877 3590 4390 3629 3917 
L 2579 3757 
L 2650 3309 
L 3674 3469 
C 3706 3174 3744 2880 3789 2605 
L 2566 2368 
L 2662 1926 
L 3866 2163 
C 3962 1683 4077 1254 4211 877 
C 3642 506 2982 205 2285 0 
C 2394 -109 2515 -282 2573 -403 
C 3226 -186 3840 102 4390 454 
C 4672 -147 5030 -512 5446 -512 
C 5894 -512 6061 -224 6144 742 
C 6029 787 5856 890 5760 992 
C 5728 243 5645 -38 5485 -38 
C 5248 -38 5005 243 4787 736 
C 5293 1114 5722 1555 6048 2048 
L 5638 2246 
z
M 1222 5376 
L 1222 4141 
L 397 4141 
L 397 3693 
L 1190 3693 
C 992 2854 608 1882 218 1370 
C 307 1248 422 1037 474 902 
C 749 1299 1018 1933 1222 2592 
L 1222 -506 
L 1677 -506 
L 1677 2848 
C 1850 2534 2054 2157 2138 1952 
L 2432 2291 
C 2323 2477 1837 3219 1677 3443 
L 1677 3693 
L 2394 3693 
L 2394 4141 
L 1677 4141 
L 1677 5376 
L 1222 5376 
z
" transform="scale(0.015625)"/>
      <path id="NotoSansCJKsc-Regular-ac75" d="M 4237 3174 
L 4237 1888 
C 4237 1222 4128 371 2547 -134 
C 2643 -237 2784 -403 2842 -512 
C 4448 96 4710 1075 4710 1882 
L 4710 3174 
L 4237 3174 
z
M 4525 576 
C 4986 250 5562 -218 5837 -525 
L 6163 -160 
C 5875 141 5293 589 4832 890 
L 4525 576 
z
M 3046 4019 
L 3046 992 
L 3501 992 
L 3501 3565 
L 5427 3565 
L 5427 1005 
L 5894 1005 
L 5894 4019 
L 4429 4019 
L 4672 4666 
L 6150 4666 
L 6150 5094 
L 2784 5094 
L 2784 4666 
L 4147 4666 
C 4102 4454 4038 4218 3974 4019 
L 3046 4019 
z
M 288 4922 
L 288 4467 
L 1325 4467 
L 1325 326 
C 1325 224 1293 198 1184 192 
C 1082 186 736 186 346 198 
C 422 64 499 -154 525 -282 
C 1037 -288 1350 -269 1536 -186 
C 1734 -109 1805 32 1805 326 
L 1805 4467 
L 2662 4467 
L 2662 4922 
L 288 4922 
z
" transform="scale(0.015625)"/>
      <path id="NotoSansCJKsc-Regular-2ded" d="M 4378 1734 
C 4723 1434 5107 1005 5280 723 
L 5651 998 
C 5466 1274 5082 1670 4730 1965 
L 4378 1734 
z
M 736 5069 
L 736 3002 
C 736 2029 698 698 205 -250 
C 314 -294 518 -435 602 -512 
C 1120 480 1197 1978 1197 3002 
L 1197 4608 
L 6118 4608 
L 6118 5069 
L 736 5069 
z
M 3398 4256 
L 3398 2880 
L 1651 2880 
L 1651 2426 
L 3398 2426 
L 3398 218 
L 1229 218 
L 1229 -237 
L 6093 -237 
L 6093 218 
L 3885 218 
L 3885 2426 
L 5786 2426 
L 5786 2880 
L 3885 2880 
L 3885 4256 
L 3398 4256 
z
" transform="scale(0.015625)"/>
      <path id="NotoSansCJKsc-Regular-3dc4" d="M 1946 2918 
L 1946 2490 
L 5587 2490 
L 5587 2918 
L 1946 2918 
z
M 1338 4653 
L 5190 4653 
L 5190 3885 
L 1338 3885 
L 1338 4653 
z
M 851 5069 
L 851 3194 
C 851 2176 794 749 198 -256 
C 320 -301 531 -422 627 -499 
C 1248 550 1338 2118 1338 3194 
L 1338 3469 
L 5670 3469 
L 5670 5069 
L 851 5069 
z
M 1843 -410 
C 2042 -333 2349 -307 5139 -122 
C 5235 -288 5325 -448 5389 -570 
L 5830 -352 
C 5613 38 5158 717 4806 1210 
L 4390 1037 
C 4557 806 4736 531 4902 262 
L 2432 115 
C 2771 474 3117 928 3411 1395 
L 6035 1395 
L 6035 1818 
L 1530 1818 
L 1530 1395 
L 2803 1395 
C 2522 909 2163 461 2048 333 
C 1907 173 1779 58 1670 38 
C 1728 -83 1811 -314 1843 -410 
z
" transform="scale(0.015625)"/>
      <path id="NotoSansCJKsc-Regular-f6af" d="M 1600 3110 
C 1856 3110 2086 3296 2086 3584 
C 2086 3878 1856 4070 1600 4070 
C 1344 4070 1114 3878 1114 3584 
C 1114 3296 1344 3110 1600 3110 
z
M 1082 -1030 
C 1766 -768 2189 -230 2189 512 
C 2189 992 1990 1293 1638 1293 
C 1382 1293 1152 1133 1152 832 
C 1152 525 1370 371 1632 371 
L 1747 384 
C 1728 -122 1453 -461 934 -698 
L 1082 -1030 
z
" transform="scale(0.015625)"/>
      <path id="NotoSansCJKsc-Regular-9cae" d="M 474 4902 
C 774 4576 1165 4128 1357 3866 
L 1766 4147 
C 1568 4410 1158 4838 858 5146 
L 474 4902 
z
M 1594 2989 
L 301 2989 
L 301 2534 
L 1114 2534 
L 1114 704 
C 845 608 525 358 205 32 
L 531 -410 
C 819 -38 1114 314 1318 314 
C 1459 314 1670 122 1952 -26 
C 2413 -269 2976 -333 3744 -333 
C 4390 -333 5523 -294 6010 -269 
C 6016 -128 6093 109 6150 237 
C 5504 160 4518 115 3757 115 
C 3046 115 2477 154 2054 378 
C 1850 486 1715 589 1594 659 
L 1594 2989 
z
M 3078 2624 
C 3398 2368 3763 2074 4109 1773 
C 3693 1382 3206 1094 2701 915 
C 2797 819 2925 640 2976 518 
C 3514 736 4019 1050 4461 1466 
C 4851 1120 5203 781 5440 525 
L 5811 870 
C 5562 1126 5184 1459 4774 1798 
C 5203 2291 5536 2906 5734 3642 
L 5446 3750 
L 5357 3731 
L 2938 3731 
L 2938 4499 
C 3981 4550 5152 4678 5946 4890 
L 5542 5274 
C 4838 5082 3552 4960 2464 4909 
L 2464 3507 
C 2464 2720 2387 1658 1773 902 
C 1888 851 2093 710 2176 621 
C 2778 1370 2918 2458 2938 3296 
L 5152 3296 
C 4979 2842 4730 2438 4422 2093 
C 4077 2374 3725 2656 3418 2899 
L 3078 2624 
z
" transform="scale(0.015625)"/>
      <path id="NotoSansCJKsc-Regular-720a" d="M 3405 4691 
L 5338 4691 
L 5338 3514 
L 3405 3514 
L 3405 4691 
z
M 2957 5107 
L 2957 3098 
L 5805 3098 
L 5805 5107 
L 2957 5107 
z
M 2867 1338 
L 2867 922 
L 4122 922 
L 4122 83 
L 2438 83 
L 2438 -339 
L 6163 -339 
L 6163 83 
L 4595 83 
L 4595 922 
L 5882 922 
L 5882 1338 
L 4595 1338 
L 4595 2112 
L 6022 2112 
L 6022 2534 
L 2720 2534 
L 2720 2112 
L 4122 2112 
L 4122 1338 
L 2867 1338 
z
M 2310 5286 
C 1837 5069 992 4883 275 4762 
C 333 4659 397 4499 416 4397 
C 717 4435 1037 4493 1357 4557 
L 1357 3571 
L 314 3571 
L 314 3123 
L 1293 3123 
C 1037 2387 595 1555 179 1101 
C 262 986 378 794 429 659 
C 755 1056 1094 1690 1357 2336 
L 1357 -499 
L 1830 -499 
L 1830 2259 
C 2048 1990 2304 1645 2413 1466 
L 2701 1843 
C 2573 1990 2016 2566 1830 2726 
L 1830 3123 
L 2630 3123 
L 2630 3571 
L 1830 3571 
L 1830 4666 
C 2131 4736 2413 4819 2643 4915 
L 2310 5286 
z
" transform="scale(0.015625)"/>
      <path id="NotoSansCJKsc-Regular-4f11" d="M 3034 2893 
C 3373 2400 3808 1722 4013 1331 
L 4435 1574 
C 4218 1965 3776 2618 3430 3104 
L 3034 2893 
z
M 2074 2573 
L 2074 1114 
L 979 1114 
L 979 2573 
L 2074 2573 
z
M 2074 3002 
L 979 3002 
L 979 4403 
L 2074 4403 
L 2074 3002 
z
M 518 4838 
L 518 160 
L 979 160 
L 979 678 
L 2522 678 
L 2522 4838 
L 518 4838 
z
M 4890 5344 
L 4890 4096 
L 2816 4096 
L 2816 3622 
L 4890 3622 
L 4890 211 
C 4890 83 4838 38 4710 38 
C 4570 26 4096 26 3597 45 
C 3667 -96 3744 -314 3776 -448 
C 4416 -448 4826 -442 5056 -358 
C 5286 -282 5376 -141 5376 211 
L 5376 3622 
L 6157 3622 
L 6157 4096 
L 5376 4096 
L 5376 5344 
L 4890 5344 
z
" transform="scale(0.015625)"/>
      <path id="NotoSansCJKsc-Regular-9d44" d="M 397 4864 
C 742 4550 1152 4096 1331 3802 
L 1722 4090 
C 1530 4384 1114 4813 762 5120 
L 397 4864 
z
M 1587 3091 
L 307 3091 
L 307 2643 
L 1126 2643 
L 1126 659 
C 851 544 544 294 243 -6 
L 544 -410 
C 877 -13 1203 326 1427 326 
C 1574 326 1779 134 2048 -13 
C 2502 -269 3046 -333 3814 -333 
C 4435 -333 5568 -301 6035 -269 
C 6048 -134 6118 90 6170 211 
C 5542 141 4576 96 3821 96 
C 3123 96 2573 134 2157 371 
C 1888 512 1734 646 1587 704 
L 1587 3091 
z
M 5485 4122 
C 5235 3821 4819 3418 4461 3123 
C 4288 3501 4045 3853 3718 4134 
C 3898 4288 4064 4454 4211 4627 
L 5978 4627 
L 5978 5037 
L 1958 5037 
L 1958 4627 
L 3642 4627 
C 3155 4147 2470 3744 1792 3482 
C 1894 3398 2054 3219 2118 3130 
C 2554 3328 3008 3590 3418 3898 
C 3552 3776 3661 3642 3763 3501 
C 3334 3072 2592 2630 2003 2413 
C 2093 2330 2221 2176 2285 2080 
C 2822 2317 3494 2746 3962 3181 
C 4045 3027 4109 2867 4160 2707 
C 3661 2074 2701 1478 1830 1210 
C 1926 1120 2054 960 2118 858 
C 2880 1126 3712 1651 4275 2253 
C 4378 1677 4294 1165 4083 966 
C 3955 832 3827 819 3654 819 
C 3514 819 3328 826 3136 851 
C 3213 730 3245 544 3251 422 
C 3437 403 3610 397 3744 403 
C 4038 403 4224 454 4422 653 
C 4736 934 4851 1632 4704 2368 
C 5126 1990 5530 1574 5747 1261 
L 6086 1568 
C 5811 1946 5274 2458 4749 2874 
C 5114 3155 5549 3533 5888 3872 
L 5485 4122 
z
" transform="scale(0.015625)"/>
      <path id="NotoSansCJKsc-Regular-435e" d="M 2918 5152 
C 3149 4838 3411 4403 3526 4128 
L 3930 4333 
C 3808 4608 3546 5018 3302 5325 
L 2918 5152 
z
M 467 3667 
C 467 3059 435 2278 397 1792 
L 1709 1792 
C 1638 614 1574 147 1459 32 
C 1395 -32 1338 -38 1235 -38 
C 1114 -38 806 -38 486 -6 
C 570 -134 627 -333 640 -474 
C 947 -486 1254 -493 1421 -480 
C 1613 -461 1728 -416 1837 -288 
C 2010 -83 2093 486 2170 2003 
C 2176 2074 2176 2214 2176 2214 
L 845 2214 
L 877 3226 
L 2163 3226 
L 2163 5075 
L 371 5075 
L 371 4640 
L 1702 4640 
L 1702 3667 
L 467 3667 
z
M 3078 2643 
L 3987 2643 
L 3987 2035 
L 3078 2035 
L 3078 2643 
z
M 4480 2643 
L 5408 2643 
L 5408 2035 
L 4480 2035 
L 4480 2643 
z
M 3078 3622 
L 3987 3622 
L 3987 3021 
L 3078 3021 
L 3078 3622 
z
M 4480 3622 
L 5408 3622 
L 5408 3021 
L 4480 3021 
L 4480 3622 
z
M 2266 1114 
L 2266 678 
L 3987 678 
L 3987 -512 
L 4480 -512 
L 4480 678 
L 6144 678 
L 6144 1114 
L 4480 1114 
L 4480 1645 
L 5875 1645 
L 5875 4013 
L 4928 4013 
C 5158 4358 5421 4806 5626 5210 
L 5146 5357 
C 4986 4954 4685 4384 4435 4013 
L 2637 4013 
L 2637 1645 
L 3987 1645 
L 3987 1114 
L 2266 1114 
z
" transform="scale(0.015625)"/>
      <path id="NotoSansCJKsc-Regular-2b74" d="M 666 2182 
L 666 -134 
L 5210 -134 
L 5210 -499 
L 5728 -499 
L 5728 2182 
L 5210 2182 
L 5210 346 
L 3450 346 
L 3450 2586 
L 5472 2586 
L 5472 4800 
L 4954 4800 
L 4954 3053 
L 3450 3053 
L 3450 5370 
L 2925 5370 
L 2925 3053 
L 1459 3053 
L 1459 4794 
L 960 4794 
L 960 2586 
L 2925 2586 
L 2925 346 
L 1197 346 
L 1197 2182 
L 666 2182 
z
" transform="scale(0.015625)"/>
     </defs>
     <use xlink:href="#NotoSansCJKsc-Regular-5937"/>
     <use xlink:href="#NotoSansCJKsc-Regular-9680" transform="translate(100 0)"/>
     <use xlink:href="#NotoSansCJKsc-Regular-69ab" transform="translate(200 0)"/>
     <use xlink:href="#NotoSansCJKsc-Regular-2509" transform="translate(300 0)"/>
     <use xlink:href="#NotoSansCJKsc-Regular-57e0" transform="translate(400 0)"/>
     <use xlink:href="#NotoSansCJKsc-Regular-8205" transform="translate(500 0)"/>
     <use xlink:href="#NotoSansCJKsc-Regular-4115" transform="translate(600 0)"/>
     <use xlink:href="#NotoSansCJKsc-Regular-e6b2" transform="translate(700 0)"/>
     <use xlink:href="#NotoSansCJKsc-Regular-3da9" transform="translate(800 0)"/>
     <use xlink:href="#NotoSansCJKsc-Regular-43e2" transform="translate(900 0)"/>
     <use xlink:href="#NotoSansCJKsc-Regular-525e" transform="translate(1000 0)"/>
     <use xlink:href="#NotoSansCJKsc-Regular-ac75" transform="translate(1100 0)"/>
     <use xlink:href="#NotoSansCJKsc-Regular-2ded" transform="translate(1200 0)"/>
     <use xlink:href="#NotoSansCJKsc-Regular-2509" transform="translate(1300 0)"/>
     <use xlink:href="#NotoSansCJKsc-Regular-3dc4" transform="translate(1400 0)"/>
     <use xlink:href="#NotoSansCJKsc-Regular-f6af" transform="translate(1500 0)"/>
     <use xlink:href="#NotoSansCJKsc-Regular-9cae" transform="translate(1600 0)"/>
     <use xlink:href="#NotoSansCJKsc-Regular-720a" transform="translate(1700 0)"/>
     <use xlink:href="#NotoSansCJKsc-Regular-4f11" transform="translate(1800 0)"/>
     <use xlink:href="#NotoSansCJKsc-Regular-9d44" transform="translate(1900 0)"/>
     <use xlink:href="#NotoSansCJKsc-Regular-3dc4" transform="translate(2000 0)"/>
     <use xlink:href="#NotoSansCJKsc-Regular-435e" transform="translate(2100 0)"/>
     <use xlink:href="#NotoSansCJKsc-Regular-2b74" transform="translate(2200 0)"/>
    </g>
   </g>
   <g id="text_3">
    <!-- fact(3) -->
    <g style="fill: #ffffff" transform="translate(131.867522 97.495352) scale(0.095 -0.095)">
     <defs>
      <path id="NotoSansCJKsc-Bold-47" d="M 179 2842 
L 666 2842 
L 666 0 
L 1600 0 
L 1600 2842 
L 2285 2842 
L 2285 3584 
L 1600 3584 
L 1600 3891 
C 1600 4288 1760 4454 2035 4454 
C 2163 4454 2298 4429 2419 4371 
L 2592 5075 
C 2432 5139 2189 5197 1907 5197 
C 1011 5197 666 4614 666 3872 
L 666 3578 
L 179 3539 
L 179 2842 
z
" transform="scale(0.015625)"/>
      <path id="NotoSansCJKsc-Bold-42" d="M 1382 -90 
C 1798 -90 2157 109 2464 384 
L 2496 384 
L 2560 0 
L 3328 0 
L 3328 2093 
C 3328 3130 2861 3674 1952 3674 
C 1389 3674 877 3456 461 3200 
L 794 2573 
C 1126 2771 1446 2918 1779 2918 
C 2221 2918 2374 2650 2387 2298 
C 947 2144 326 1741 326 979 
C 326 365 742 -90 1382 -90 
z
M 1696 646 
C 1421 646 1222 768 1222 1050 
C 1222 1376 1510 1613 2387 1715 
L 2387 998 
C 2163 774 1965 646 1696 646 
z
" transform="scale(0.015625)"/>
      <path id="NotoSansCJKsc-Bold-44" d="M 2029 -90 
C 2426 -90 2861 45 3200 346 
L 2829 966 
C 2630 800 2394 678 2131 678 
C 1613 678 1242 1114 1242 1792 
C 1242 2464 1613 2906 2163 2906 
C 2362 2906 2528 2822 2707 2675 
L 3155 3270 
C 2893 3507 2554 3674 2112 3674 
C 1139 3674 282 2982 282 1792 
C 282 602 1043 -90 2029 -90 
z
" transform="scale(0.015625)"/>
      <path id="NotoSansCJKsc-Bold-55" d="M 1818 -90 
C 2131 -90 2381 -13 2579 45 
L 2419 730 
C 2323 691 2182 653 2067 653 
C 1747 653 1574 845 1574 1254 
L 1574 2842 
L 2464 2842 
L 2464 3584 
L 1574 3584 
L 1574 4550 
L 800 4550 
L 691 3584 
L 134 3539 
L 134 2842 
L 640 2842 
L 640 1248 
C 640 454 966 -90 1818 -90 
z
" transform="scale(0.015625)"/>
      <path id="NotoSansCJKsc-Bold-9" d="M 1504 -1293 
L 2086 -1043 
C 1549 -109 1306 966 1306 2016 
C 1306 3066 1549 4147 2086 5082 
L 1504 5331 
C 896 4339 544 3296 544 2016 
C 544 736 896 -307 1504 -1293 
z
" transform="scale(0.015625)"/>
      <path id="NotoSansCJKsc-Bold-14" d="M 1747 -90 
C 2656 -90 3418 410 3418 1280 
C 3418 1907 3008 2304 2477 2451 
L 2477 2483 
C 2976 2682 3264 3053 3264 3565 
C 3264 4378 2643 4826 1728 4826 
C 1171 4826 717 4602 307 4250 
L 794 3667 
C 1069 3930 1344 4083 1683 4083 
C 2086 4083 2317 3866 2317 3494 
C 2317 3066 2035 2771 1171 2771 
L 1171 2093 
C 2195 2093 2470 1805 2470 1338 
C 2470 915 2144 678 1664 678 
C 1229 678 890 890 608 1165 
L 166 570 
C 499 192 1005 -90 1747 -90 
z
" transform="scale(0.015625)"/>
      <path id="NotoSansCJKsc-Bold-a" d="M 915 -1293 
C 1523 -307 1875 736 1875 2016 
C 1875 3296 1523 4339 915 5331 
L 333 5082 
C 870 4147 1114 3066 1114 2016 
C 1114 966 870 -109 333 -1043 
L 915 -1293 
z
" transform="scale(0.015625)"/>
     </defs>
     <use xlink:href="#NotoSansCJKsc-Bold-47"/>
     <use xlink:href="#NotoSansCJKsc-Bold-42" transform="translate(34.90625 0)"/>
     <use xlink:href="#NotoSansCJKsc-Bold-44" transform="translate(94 0)"/>
     <use xlink:href="#NotoSansCJKsc-Bold-55" transform="translate(145.5 0)"/>
     <use xlink:href="#NotoSansCJKsc-Bold-9" transform="translate(187.59375 0)"/>
     <use xlink:href="#NotoSansCJKsc-Bold-14" transform="translate(225.390625 0)"/>
     <use xlink:href="#NotoSansCJKsc-Bold-a" transform="translate(284.390625 0)"/>
    </g>
   </g>
   <g id="text_4">
    <!-- return 3*fact(2) -->
    <g style="fill: #555555" transform="translate(342.077545 97.182266) scale(0.085 -0.085)">
     <defs>
      <path id="NotoSansCJKsc-Regular-53" d="M 589 0 
L 1178 0 
L 1178 2234 
C 1408 2822 1760 3040 2048 3040 
C 2195 3040 2272 3021 2387 2982 
L 2496 3488 
C 2387 3546 2278 3565 2125 3565 
C 1741 3565 1382 3283 1139 2842 
L 1126 2842 
L 1069 3475 
L 589 3475 
L 589 0 
z
" transform="scale(0.015625)"/>
      <path id="NotoSansCJKsc-Regular-46" d="M 1997 -83 
C 2464 -83 2835 70 3136 269 
L 2931 659 
C 2669 486 2400 384 2061 384 
C 1402 384 947 858 909 1600 
L 3251 1600 
C 3264 1690 3277 1805 3277 1933 
C 3277 2925 2778 3565 1888 3565 
C 1094 3565 333 2867 333 1734 
C 333 589 1069 -83 1997 -83 
z
M 902 2016 
C 973 2707 1408 3098 1901 3098 
C 2445 3098 2765 2720 2765 2016 
L 902 2016 
z
" transform="scale(0.015625)"/>
      <path id="NotoSansCJKsc-Regular-55" d="M 1677 -83 
C 1894 -83 2125 -19 2323 45 
L 2208 486 
C 2093 435 1939 390 1811 390 
C 1408 390 1274 634 1274 1056 
L 1274 3002 
L 2221 3002 
L 2221 3475 
L 1274 3475 
L 1274 4454 
L 787 4454 
L 723 3475 
L 173 3443 
L 173 3002 
L 691 3002 
L 691 1075 
C 691 378 941 -83 1677 -83 
z
" transform="scale(0.015625)"/>
      <path id="NotoSansCJKsc-Regular-56" d="M 1606 -83 
C 2080 -83 2426 166 2752 544 
L 2771 544 
L 2816 0 
L 3302 0 
L 3302 3475 
L 2720 3475 
L 2720 1011 
C 2387 602 2138 422 1779 422 
C 1318 422 1126 698 1126 1344 
L 1126 3475 
L 538 3475 
L 538 1274 
C 538 384 870 -83 1606 -83 
z
" transform="scale(0.015625)"/>
      <path id="NotoSansCJKsc-Regular-4f" d="M 589 0 
L 1178 0 
L 1178 2522 
C 1523 2874 1766 3053 2125 3053 
C 2586 3053 2784 2778 2784 2125 
L 2784 0 
L 3366 0 
L 3366 2202 
C 3366 3085 3034 3565 2304 3565 
C 1830 3565 1466 3302 1139 2970 
L 1126 2970 
L 1069 3475 
L 589 3475 
L 589 0 
z
" transform="scale(0.015625)"/>
      <path id="NotoSansCJKsc-Regular-1" transform="scale(0.015625)"/>
      <path id="NotoSansCJKsc-Regular-14" d="M 1683 -83 
C 2522 -83 3194 416 3194 1254 
C 3194 1901 2752 2310 2202 2445 
L 2202 2477 
C 2701 2650 3034 3034 3034 3603 
C 3034 4346 2458 4774 1664 4774 
C 1126 4774 710 4538 358 4218 
L 672 3846 
C 941 4115 1267 4301 1645 4301 
C 2138 4301 2438 4006 2438 3558 
C 2438 3053 2112 2662 1139 2662 
L 1139 2214 
C 2227 2214 2598 1843 2598 1274 
C 2598 736 2208 403 1645 403 
C 1114 403 762 659 486 941 
L 186 563 
C 493 224 954 -83 1683 -83 
z
" transform="scale(0.015625)"/>
      <path id="NotoSansCJKsc-Regular-b" d="M 986 3014 
L 1498 3622 
L 1997 3014 
L 2278 3213 
L 1869 3885 
L 2566 4179 
L 2458 4506 
L 1728 4326 
L 1664 5094 
L 1318 5094 
L 1254 4320 
L 525 4506 
L 416 4179 
L 1107 3885 
L 704 3213 
L 986 3014 
z
" transform="scale(0.015625)"/>
      <path id="NotoSansCJKsc-Regular-47" d="M 211 3002 
L 685 3002 
L 685 0 
L 1267 0 
L 1267 3002 
L 2003 3002 
L 2003 3475 
L 1267 3475 
L 1267 4026 
C 1267 4474 1427 4710 1760 4710 
C 1882 4710 2022 4678 2150 4614 
L 2278 5069 
C 2118 5133 1914 5178 1696 5178 
C 1005 5178 685 4736 685 4032 
L 685 3475 
L 211 3443 
L 211 3002 
z
" transform="scale(0.015625)"/>
      <path id="NotoSansCJKsc-Regular-42" d="M 1389 -83 
C 1818 -83 2208 141 2541 416 
L 2560 416 
L 2611 0 
L 3091 0 
L 3091 2138 
C 3091 3002 2739 3565 1888 3565 
C 1325 3565 838 3315 525 3110 
L 749 2707 
C 1024 2893 1389 3078 1792 3078 
C 2362 3078 2509 2650 2509 2202 
C 1030 2035 378 1658 378 902 
C 378 275 806 -83 1389 -83 
z
M 1555 390 
C 1210 390 941 544 941 941 
C 941 1389 1338 1677 2509 1811 
L 2509 845 
C 2170 544 1888 390 1555 390 
z
" transform="scale(0.015625)"/>
      <path id="NotoSansCJKsc-Regular-44" d="M 1958 -83 
C 2374 -83 2771 83 3085 352 
L 2829 749 
C 2611 557 2330 403 2010 403 
C 1370 403 934 934 934 1734 
C 934 2534 1395 3072 2029 3072 
C 2298 3072 2522 2950 2720 2771 
L 3014 3155 
C 2771 3373 2458 3565 2003 3565 
C 1107 3565 333 2893 333 1734 
C 333 582 1037 -83 1958 -83 
z
" transform="scale(0.015625)"/>
      <path id="NotoSansCJKsc-Regular-9" d="M 1530 -1254 
L 1888 -1094 
C 1338 -186 1075 902 1075 1990 
C 1075 3072 1338 4154 1888 5069 
L 1530 5235 
C 941 4275 589 3245 589 1990 
C 589 730 941 -301 1530 -1254 
z
" transform="scale(0.015625)"/>
      <path id="NotoSansCJKsc-Regular-13" d="M 282 0 
L 3232 0 
L 3232 506 
L 1933 506 
C 1696 506 1408 480 1165 461 
C 2266 1504 3008 2458 3008 3398 
C 3008 4230 2477 4774 1638 4774 
C 1043 4774 634 4506 256 4090 
L 595 3757 
C 858 4070 1184 4301 1568 4301 
C 2150 4301 2432 3910 2432 3373 
C 2432 2566 1754 1632 282 346 
L 282 0 
z
" transform="scale(0.015625)"/>
      <path id="NotoSansCJKsc-Regular-a" d="M 634 -1254 
C 1222 -301 1574 730 1574 1990 
C 1574 3245 1222 4275 634 5235 
L 269 5069 
C 819 4154 1094 3072 1094 1990 
C 1094 902 819 -186 269 -1094 
L 634 -1254 
z
" transform="scale(0.015625)"/>
     </defs>
     <use xlink:href="#NotoSansCJKsc-Regular-53"/>
     <use xlink:href="#NotoSansCJKsc-Regular-46" transform="translate(37.703125 0)"/>
     <use xlink:href="#NotoSansCJKsc-Regular-55" transform="translate(92.015625 0)"/>
     <use xlink:href="#NotoSansCJKsc-Regular-56" transform="translate(129.71875 0)"/>
     <use xlink:href="#NotoSansCJKsc-Regular-53" transform="translate(190.421875 0)"/>
     <use xlink:href="#NotoSansCJKsc-Regular-4f" transform="translate(229.21875 0)"/>
     <use xlink:href="#NotoSansCJKsc-Regular-1" transform="translate(290.21875 0)"/>
     <use xlink:href="#NotoSansCJKsc-Regular-14" transform="translate(312.625 0)"/>
     <use xlink:href="#NotoSansCJKsc-Regular-b" transform="translate(368.125 0)"/>
     <use xlink:href="#NotoSansCJKsc-Regular-47" transform="translate(414.828125 0)"/>
     <use xlink:href="#NotoSansCJKsc-Regular-42" transform="translate(445.125 0)"/>
     <use xlink:href="#NotoSansCJKsc-Regular-44" transform="translate(501.421875 0)"/>
     <use xlink:href="#NotoSansCJKsc-Regular-55" transform="translate(551.328125 0)"/>
     <use xlink:href="#NotoSansCJKsc-Regular-9" transform="translate(589.03125 0)"/>
     <use xlink:href="#NotoSansCJKsc-Regular-13" transform="translate(622.828125 0)"/>
     <use xlink:href="#NotoSansCJKsc-Regular-a" transform="translate(678.328125 0)"/>
    </g>
   </g>
   <g id="text_5">
    <!-- fact(2) -->
    <g style="fill: #ffffff" transform="translate(131.867522 145.870352) scale(0.095 -0.095)">
     <defs>
      <path id="NotoSansCJKsc-Bold-13" d="M 275 0 
L 3450 0 
L 3450 794 
L 2426 794 
C 2202 794 1888 768 1645 736 
C 2509 1587 3226 2509 3226 3366 
C 3226 4250 2630 4826 1734 4826 
C 1088 4826 666 4576 224 4102 
L 749 3597 
C 986 3859 1267 4083 1613 4083 
C 2067 4083 2323 3789 2323 3322 
C 2323 2586 1568 1696 275 544 
L 275 0 
z
" transform="scale(0.015625)"/>
     </defs>
     <use xlink:href="#NotoSansCJKsc-Bold-47"/>
     <use xlink:href="#NotoSansCJKsc-Bold-42" transform="translate(34.90625 0)"/>
     <use xlink:href="#NotoSansCJKsc-Bold-44" transform="translate(94 0)"/>
     <use xlink:href="#NotoSansCJKsc-Bold-55" transform="translate(145.5 0)"/>
     <use xlink:href="#NotoSansCJKsc-Bold-9" transform="translate(187.59375 0)"/>
     <use xlink:href="#NotoSansCJKsc-Bold-13" transform="translate(225.390625 0)"/>
     <use xlink:href="#NotoSansCJKsc-Bold-a" transform="translate(284.390625 0)"/>
    </g>
   </g>
   <g id="text_6">
    <!-- return 2*fact(1) -->
    <g style="fill: #555555" transform="translate(342.077545 145.557266) scale(0.085 -0.085)">
     <defs>
      <path id="NotoSansCJKsc-Regular-12" d="M 563 0 
L 3136 0 
L 3136 486 
L 2195 486 
L 2195 4691 
L 1747 4691 
C 1491 4544 1190 4435 774 4358 
L 774 3987 
L 1613 3987 
L 1613 486 
L 563 486 
L 563 0 
z
" transform="scale(0.015625)"/>
     </defs>
     <use xlink:href="#NotoSansCJKsc-Regular-53"/>
     <use xlink:href="#NotoSansCJKsc-Regular-46" transform="translate(37.703125 0)"/>
     <use xlink:href="#NotoSansCJKsc-Regular-55" transform="translate(92.015625 0)"/>
     <use xlink:href="#NotoSansCJKsc-Regular-56" transform="translate(129.71875 0)"/>
     <use xlink:href="#NotoSansCJKsc-Regular-53" transform="translate(190.421875 0)"/>
     <use xlink:href="#NotoSansCJKsc-Regular-4f" transform="translate(229.21875 0)"/>
     <use xlink:href="#NotoSansCJKsc-Regular-1" transform="translate(290.21875 0)"/>
     <use xlink:href="#NotoSansCJKsc-Regular-13" transform="translate(312.625 0)"/>
     <use xlink:href="#NotoSansCJKsc-Regular-b" transform="translate(368.125 0)"/>
     <use xlink:href="#NotoSansCJKsc-Regular-47" transform="translate(414.828125 0)"/>
     <use xlink:href="#NotoSansCJKsc-Regular-42" transform="translate(445.125 0)"/>
     <use xlink:href="#NotoSansCJKsc-Regular-44" transform="translate(501.421875 0)"/>
     <use xlink:href="#NotoSansCJKsc-Regular-55" transform="translate(551.328125 0)"/>
     <use xlink:href="#NotoSansCJKsc-Regular-9" transform="translate(589.03125 0)"/>
     <use xlink:href="#NotoSansCJKsc-Regular-12" transform="translate(622.828125 0)"/>
     <use xlink:href="#NotoSansCJKsc-Regular-a" transform="translate(678.328125 0)"/>
    </g>
   </g>
   <g id="text_7">
    <!-- fact(1) -->
    <g style="fill: #ffffff" transform="translate(131.867522 194.245352) scale(0.095 -0.095)">
     <defs>
      <path id="NotoSansCJKsc-Bold-12" d="M 525 0 
L 3373 0 
L 3373 768 
L 2483 768 
L 2483 4742 
L 1786 4742 
C 1485 4550 1165 4429 685 4346 
L 685 3757 
L 1549 3757 
L 1549 768 
L 525 768 
L 525 0 
z
" transform="scale(0.015625)"/>
     </defs>
     <use xlink:href="#NotoSansCJKsc-Bold-47"/>
     <use xlink:href="#NotoSansCJKsc-Bold-42" transform="translate(34.90625 0)"/>
     <use xlink:href="#NotoSansCJKsc-Bold-44" transform="translate(94 0)"/>
     <use xlink:href="#NotoSansCJKsc-Bold-55" transform="translate(145.5 0)"/>
     <use xlink:href="#NotoSansCJKsc-Bold-9" transform="translate(187.59375 0)"/>
     <use xlink:href="#NotoSansCJKsc-Bold-12" transform="translate(225.390625 0)"/>
     <use xlink:href="#NotoSansCJKsc-Bold-a" transform="translate(284.390625 0)"/>
    </g>
   </g>
   <g id="text_8">
    <!-- return 1*fact(0) -->
    <g style="fill: #555555" transform="translate(342.077545 193.932266) scale(0.085 -0.085)">
     <defs>
      <path id="NotoSansCJKsc-Regular-11" d="M 1779 -83 
C 2669 -83 3238 723 3238 2362 
C 3238 3987 2669 4774 1779 4774 
C 883 4774 320 3987 320 2362 
C 320 723 883 -83 1779 -83 
z
M 1779 390 
C 1248 390 883 986 883 2362 
C 883 3731 1248 4314 1779 4314 
C 2310 4314 2675 3731 2675 2362 
C 2675 986 2310 390 1779 390 
z
" transform="scale(0.015625)"/>
     </defs>
     <use xlink:href="#NotoSansCJKsc-Regular-53"/>
     <use xlink:href="#NotoSansCJKsc-Regular-46" transform="translate(37.703125 0)"/>
     <use xlink:href="#NotoSansCJKsc-Regular-55" transform="translate(92.015625 0)"/>
     <use xlink:href="#NotoSansCJKsc-Regular-56" transform="translate(129.71875 0)"/>
     <use xlink:href="#NotoSansCJKsc-Regular-53" transform="translate(190.421875 0)"/>
     <use xlink:href="#NotoSansCJKsc-Regular-4f" transform="translate(229.21875 0)"/>
     <use xlink:href="#NotoSansCJKsc-Regular-1" transform="translate(290.21875 0)"/>
     <use xlink:href="#NotoSansCJKsc-Regular-12" transform="translate(312.625 0)"/>
     <use xlink:href="#NotoSansCJKsc-Regular-b" transform="translate(368.125 0)"/>
     <use xlink:href="#NotoSansCJKsc-Regular-47" transform="translate(414.828125 0)"/>
     <use xlink:href="#NotoSansCJKsc-Regular-42" transform="translate(445.125 0)"/>
     <use xlink:href="#NotoSansCJKsc-Regular-44" transform="translate(501.421875 0)"/>
     <use xlink:href="#NotoSansCJKsc-Regular-55" transform="translate(551.328125 0)"/>
     <use xlink:href="#NotoSansCJKsc-Regular-9" transform="translate(589.03125 0)"/>
     <use xlink:href="#NotoSansCJKsc-Regular-11" transform="translate(622.828125 0)"/>
     <use xlink:href="#NotoSansCJKsc-Regular-a" transform="translate(678.328125 0)"/>
    </g>
   </g>
   <g id="text_9">
    <!-- fact(0) -->
    <g style="fill: #ffffff" transform="translate(131.867522 242.620352) scale(0.095 -0.095)">
     <defs>
      <path id="NotoSansCJKsc-Bold-11" d="M 1888 -90 
C 2854 -90 3494 755 3494 2394 
C 3494 4019 2854 4826 1888 4826 
C 922 4826 282 4026 282 2394 
C 282 755 922 -90 1888 -90 
z
M 1888 646 
C 1478 646 1171 1056 1171 2394 
C 1171 3712 1478 4102 1888 4102 
C 2298 4102 2598 3712 2598 2394 
C 2598 1056 2298 646 1888 646 
z
" transform="scale(0.015625)"/>
     </defs>
     <use xlink:href="#NotoSansCJKsc-Bold-47"/>
     <use xlink:href="#NotoSansCJKsc-Bold-42" transform="translate(34.90625 0)"/>
     <use xlink:href="#NotoSansCJKsc-Bold-44" transform="translate(94 0)"/>
     <use xlink:href="#NotoSansCJKsc-Bold-55" transform="translate(145.5 0)"/>
     <use xlink:href="#NotoSansCJKsc-Bold-9" transform="translate(187.59375 0)"/>
     <use xlink:href="#NotoSansCJKsc-Bold-11" transform="translate(225.390625 0)"/>
     <use xlink:href="#NotoSansCJKsc-Bold-a" transform="translate(284.390625 0)"/>
    </g>
   </g>
   <g id="text_10">
    <!-- return 1 -->
    <g style="fill: #555555" transform="translate(356.697545 238.057266) scale(0.085 -0.085)">
     <use xlink:href="#NotoSansCJKsc-Regular-53"/>
     <use xlink:href="#NotoSansCJKsc-Regular-46" transform="translate(37.703125 0)"/>
     <use xlink:href="#NotoSansCJKsc-Regular-55" transform="translate(92.015625 0)"/>
     <use xlink:href="#NotoSansCJKsc-Regular-56" transform="translate(129.71875 0)"/>
     <use xlink:href="#NotoSansCJKsc-Regular-53" transform="translate(190.421875 0)"/>
     <use xlink:href="#NotoSansCJKsc-Regular-4f" transform="translate(229.21875 0)"/>
     <use xlink:href="#NotoSansCJKsc-Regular-1" transform="translate(290.21875 0)"/>
     <use xlink:href="#NotoSansCJKsc-Regular-12" transform="translate(312.625 0)"/>
    </g>
    <!-- (基准情况, 停止) -->
    <g style="fill: #555555" transform="translate(341.83649 246.557266) scale(0.085 -0.085)">
     <defs>
      <path id="NotoSansCJKsc-Regular-34f9" d="M 4378 5370 
L 4378 4755 
L 2048 4755 
L 2048 5376 
L 1568 5376 
L 1568 4755 
L 589 4755 
L 589 4352 
L 1568 4352 
L 1568 2298 
L 294 2298 
L 294 1888 
L 1690 1888 
C 1318 1434 755 1030 230 819 
C 333 730 474 563 544 448 
C 1165 742 1818 1286 2214 1888 
L 4237 1888 
C 4627 1318 5254 787 5869 525 
C 5946 640 6086 813 6189 902 
C 5651 1094 5107 1466 4742 1888 
L 6112 1888 
L 6112 2298 
L 4864 2298 
L 4864 4352 
L 5830 4352 
L 5830 4755 
L 4864 4755 
L 4864 5370 
L 4378 5370 
z
M 2048 4352 
L 4378 4352 
L 4378 3923 
L 2048 3923 
L 2048 4352 
z
M 2944 1683 
L 2944 1146 
L 1632 1146 
L 1632 749 
L 2944 749 
L 2944 70 
L 794 70 
L 794 -339 
L 5645 -339 
L 5645 70 
L 3430 70 
L 3430 749 
L 4774 749 
L 4774 1146 
L 3430 1146 
L 3430 1683 
L 2944 1683 
z
M 2048 3565 
L 4378 3565 
L 4378 3117 
L 2048 3117 
L 2048 3565 
z
M 2048 2752 
L 4378 2752 
L 4378 2298 
L 2048 2298 
L 2048 2752 
z
" transform="scale(0.015625)"/>
      <path id="NotoSansCJKsc-Regular-2b22" d="M 307 4896 
C 627 4448 1005 3827 1171 3443 
L 1619 3680 
C 1446 4058 1056 4653 723 5094 
L 307 4896 
z
M 307 13 
L 794 -211 
C 1094 397 1446 1222 1715 1939 
L 1293 2170 
C 998 1408 595 538 307 13 
z
M 2784 2528 
L 4134 2528 
L 4134 1677 
L 2784 1677 
L 2784 2528 
z
M 2784 2950 
L 2784 3814 
L 4134 3814 
L 4134 2950 
L 2784 2950 
z
M 3885 5152 
C 4064 4870 4269 4486 4358 4230 
L 2893 4230 
C 3046 4544 3181 4877 3296 5210 
L 2848 5318 
C 2528 4333 1984 3379 1350 2771 
C 1453 2694 1632 2522 1702 2432 
C 1926 2662 2138 2931 2336 3238 
L 2336 -512 
L 2784 -512 
L 2784 -58 
L 6106 -58 
L 6106 378 
L 4602 378 
L 4602 1254 
L 5837 1254 
L 5837 1677 
L 4602 1677 
L 4602 2528 
L 5843 2528 
L 5843 2950 
L 4602 2950 
L 4602 3814 
L 5978 3814 
L 5978 4230 
L 4390 4230 
L 4800 4435 
C 4698 4678 4493 5050 4288 5331 
L 3885 5152 
z
M 2784 1254 
L 4134 1254 
L 4134 378 
L 2784 378 
L 2784 1254 
z
" transform="scale(0.015625)"/>
      <path id="NotoSansCJKsc-Regular-45ef" d="M 973 5376 
L 973 -506 
L 1408 -506 
L 1408 5376 
L 973 5376 
z
M 467 4141 
C 429 3642 326 2931 173 2496 
L 550 2368 
C 698 2848 800 3590 826 4096 
L 467 4141 
z
M 1466 4314 
C 1600 4013 1747 3610 1805 3366 
L 2144 3533 
C 2080 3763 1926 4147 1786 4442 
L 1466 4314 
z
M 2854 1344 
L 5171 1344 
L 5171 858 
L 2854 858 
L 2854 1344 
z
M 2854 1709 
L 2854 2189 
L 5171 2189 
L 5171 1709 
L 2854 1709 
z
M 3776 5376 
L 3776 4877 
L 2138 4877 
L 2138 4506 
L 3776 4506 
L 3776 4096 
L 2291 4096 
L 2291 3744 
L 3776 3744 
L 3776 3302 
L 1946 3302 
L 1946 2931 
L 6131 2931 
L 6131 3302 
L 4250 3302 
L 4250 3744 
L 5779 3744 
L 5779 4096 
L 4250 4096 
L 4250 4506 
L 5939 4506 
L 5939 4877 
L 4250 4877 
L 4250 5376 
L 3776 5376 
z
M 2406 2560 
L 2406 -506 
L 2854 -506 
L 2854 493 
L 5171 493 
L 5171 32 
C 5171 -45 5139 -70 5056 -77 
C 4966 -83 4659 -83 4333 -70 
C 4390 -186 4454 -365 4474 -486 
C 4928 -486 5216 -486 5395 -410 
C 5574 -339 5626 -211 5626 26 
L 5626 2560 
L 2406 2560 
z
" transform="scale(0.015625)"/>
      <path id="NotoSansCJKsc-Regular-2b05" d="M 454 4698 
C 858 4378 1325 3904 1536 3584 
L 1894 3942 
C 1670 4256 1190 4704 787 5011 
L 454 4698 
z
M 256 570 
L 640 230 
C 1030 826 1504 1645 1856 2330 
L 1530 2656 
C 1139 1926 614 1069 256 570 
z
M 2810 4614 
L 5254 4614 
L 5254 2880 
L 2810 2880 
L 2810 4614 
z
M 2349 5075 
L 2349 2419 
L 3085 2419 
C 3014 1133 2803 307 1555 -134 
C 1664 -224 1798 -397 1856 -512 
C 3213 6 3482 960 3571 2419 
L 4326 2419 
L 4326 237 
C 4326 -269 4448 -416 4934 -416 
C 5030 -416 5485 -416 5594 -416 
C 6035 -416 6150 -160 6195 819 
C 6067 858 5869 928 5766 1011 
C 5747 160 5722 19 5542 19 
C 5446 19 5069 19 4998 19 
C 4826 19 4787 51 4787 243 
L 4787 2419 
L 5741 2419 
L 5741 5075 
L 2349 5075 
z
" transform="scale(0.015625)"/>
      <path id="NotoSansCJKsc-Regular-d" d="M 480 -1216 
C 1056 -973 1414 -493 1414 122 
C 1414 550 1229 806 922 806 
C 685 806 480 653 480 397 
C 480 141 678 -13 909 -13 
L 979 -6 
C 973 -390 736 -698 339 -870 
L 480 -1216 
z
" transform="scale(0.015625)"/>
      <path id="NotoSansCJKsc-Regular-28a6" d="M 2989 3699 
L 5088 3699 
L 5088 3162 
L 2989 3162 
L 2989 3699 
z
M 2547 4045 
L 2547 2816 
L 5549 2816 
L 5549 4045 
L 2547 4045 
z
M 1978 2413 
L 1978 1370 
L 2400 1370 
L 2400 2016 
L 5651 2016 
L 5651 1370 
L 6086 1370 
L 6086 2413 
L 1978 2413 
z
M 3610 5280 
C 3699 5139 3789 4960 3859 4800 
L 2080 4800 
L 2080 4390 
L 6086 4390 
L 6086 4800 
L 4378 4800 
C 4301 4986 4166 5229 4045 5408 
L 3610 5280 
z
M 2547 1536 
L 2547 1146 
L 3802 1146 
L 3802 32 
C 3802 -45 3776 -70 3674 -77 
C 3578 -77 3219 -77 2835 -70 
C 2899 -192 2963 -358 2989 -486 
C 3488 -486 3814 -486 4026 -429 
C 4230 -358 4282 -230 4282 19 
L 4282 1146 
L 5504 1146 
L 5504 1536 
L 2547 1536 
z
M 1683 5363 
C 1350 4397 794 3437 205 2810 
C 288 2701 422 2451 474 2336 
C 659 2541 845 2778 1018 3040 
L 1018 -506 
L 1459 -506 
L 1459 3763 
C 1715 4230 1939 4730 2125 5229 
L 1683 5363 
z
" transform="scale(0.015625)"/>
      <path id="NotoSansCJKsc-Regular-585b" d="M 1203 3962 
L 1203 282 
L 314 282 
L 314 -192 
L 6074 -192 
L 6074 282 
L 3693 282 
L 3693 2752 
L 5792 2752 
L 5792 3232 
L 3693 3232 
L 3693 5357 
L 3194 5357 
L 3194 282 
L 1696 282 
L 1696 3962 
L 1203 3962 
z
" transform="scale(0.015625)"/>
     </defs>
     <use xlink:href="#NotoSansCJKsc-Regular-9"/>
     <use xlink:href="#NotoSansCJKsc-Regular-34f9" transform="translate(33.796875 0)"/>
     <use xlink:href="#NotoSansCJKsc-Regular-2b22" transform="translate(133.796875 0)"/>
     <use xlink:href="#NotoSansCJKsc-Regular-45ef" transform="translate(233.796875 0)"/>
     <use xlink:href="#NotoSansCJKsc-Regular-2b05" transform="translate(333.796875 0)"/>
     <use xlink:href="#NotoSansCJKsc-Regular-d" transform="translate(433.796875 0)"/>
     <use xlink:href="#NotoSansCJKsc-Regular-1" transform="translate(461.59375 0)"/>
     <use xlink:href="#NotoSansCJKsc-Regular-28a6" transform="translate(484 0)"/>
     <use xlink:href="#NotoSansCJKsc-Regular-585b" transform="translate(584 0)"/>
     <use xlink:href="#NotoSansCJKsc-Regular-a" transform="translate(684 0)"/>
    </g>
   </g>
   <g id="patch_10">
    <path d="M 147.171429 115.623894 
Q 147.171429 137.811339 147.171429 157.762717 
" style="fill: none; stroke: #dd8452; stroke-width: 2; stroke-linecap: round"/>
    <path d="M 149.171429 153.762717 
L 147.171429 157.762717 
L 145.171429 153.762717 
z
" style="fill: #dd8452; stroke: #dd8452; stroke-width: 2; stroke-linecap: round"/>
   </g>
   <g id="text_11">
    <!-- 压入(push) -->
    <g style="fill: #dd8452" transform="translate(163.773839 139.425) scale(0.08 -0.08)">
     <defs>
      <path id="NotoSansCJKsc-Regular-2a8d" d="M 1888 4832 
C 2310 4538 2637 4179 2918 3782 
C 2502 1958 1702 659 262 -83 
C 390 -173 614 -371 704 -467 
C 2003 288 2822 1466 3309 3142 
C 4013 1850 4467 371 5933 -448 
C 5958 -294 6086 -38 6170 96 
C 4038 1370 4230 3776 2182 5242 
L 1888 4832 
z
" transform="scale(0.015625)"/>
      <path id="NotoSansCJKsc-Regular-51" d="M 589 -1466 
L 1178 -1466 
L 1178 -288 
L 1158 320 
C 1472 58 1805 -83 2118 -83 
C 2912 -83 3629 602 3629 1792 
C 3629 2867 3142 3565 2246 3565 
C 1843 3565 1453 3334 1139 3072 
L 1126 3072 
L 1069 3475 
L 589 3475 
L 589 -1466 
z
M 2022 410 
C 1792 410 1485 499 1178 768 
L 1178 2598 
C 1510 2906 1811 3072 2099 3072 
C 2765 3072 3021 2560 3021 1786 
C 3021 928 2598 410 2022 410 
z
" transform="scale(0.015625)"/>
      <path id="NotoSansCJKsc-Regular-54" d="M 1498 -83 
C 2317 -83 2758 384 2758 947 
C 2758 1606 2208 1811 1702 2003 
C 1312 2150 954 2278 954 2605 
C 954 2880 1158 3110 1600 3110 
C 1907 3110 2150 2976 2387 2803 
L 2669 3168 
C 2406 3386 2022 3565 1594 3565 
C 832 3565 397 3130 397 2579 
C 397 1984 922 1754 1408 1574 
C 1792 1434 2202 1267 2202 915 
C 2202 614 1978 371 1517 371 
C 1101 371 794 538 486 787 
L 205 397 
C 531 122 1005 -83 1498 -83 
z
" transform="scale(0.015625)"/>
      <path id="NotoSansCJKsc-Regular-49" d="M 589 0 
L 1178 0 
L 1178 2522 
C 1523 2874 1766 3053 2125 3053 
C 2586 3053 2784 2778 2784 2125 
L 2784 0 
L 3366 0 
L 3366 2202 
C 3366 3085 3034 3565 2304 3565 
C 1830 3565 1472 3302 1152 2982 
L 1178 3699 
L 1178 5094 
L 589 5094 
L 589 0 
z
" transform="scale(0.015625)"/>
     </defs>
     <use xlink:href="#NotoSansCJKsc-Regular-2ded"/>
     <use xlink:href="#NotoSansCJKsc-Regular-2a8d" transform="translate(100 0)"/>
     <use xlink:href="#NotoSansCJKsc-Regular-9" transform="translate(200 0)"/>
     <use xlink:href="#NotoSansCJKsc-Regular-51" transform="translate(233.796875 0)"/>
     <use xlink:href="#NotoSansCJKsc-Regular-56" transform="translate(295.796875 0)"/>
     <use xlink:href="#NotoSansCJKsc-Regular-54" transform="translate(356.5 0)"/>
     <use xlink:href="#NotoSansCJKsc-Regular-49" transform="translate(403.296875 0)"/>
     <use xlink:href="#NotoSansCJKsc-Regular-a" transform="translate(464 0)"/>
    </g>
   </g>
   <g id="text_12">
    <!-- 栈顶 -->
    <g style="fill: #c44e52" transform="translate(35.214286 94.275) scale(0.085 -0.085)">
     <use xlink:href="#NotoSansCJKsc-Regular-525e"/>
     <use xlink:href="#NotoSansCJKsc-Regular-ac75" transform="translate(100 0)"/>
    </g>
   </g>
   <g id="text_13">
    <!-- 栈底 -->
    <g style="fill: #555555" transform="translate(35.214286 287.775) scale(0.085 -0.085)">
     <defs>
      <path id="NotoSansCJKsc-Regular-4214" d="M 3283 1011 
C 3526 557 3795 -38 3910 -397 
L 4301 -218 
C 4173 128 3885 710 3648 1152 
L 3283 1011 
z
M 1837 -442 
C 1946 -352 2131 -275 3373 154 
C 3354 250 3341 435 3347 557 
L 2381 256 
L 2381 1824 
L 3987 1824 
C 4269 493 4806 -448 5485 -448 
C 5888 -448 6061 -192 6131 704 
C 6016 742 5850 832 5747 928 
C 5728 288 5664 13 5517 13 
C 5126 13 4704 736 4461 1824 
L 5894 1824 
L 5894 2253 
L 4378 2253 
C 4320 2611 4282 2995 4262 3398 
C 4768 3456 5248 3526 5638 3610 
L 5267 3981 
C 4493 3808 3104 3693 1933 3648 
L 1933 320 
C 1933 77 1773 0 1664 -38 
C 1728 -134 1805 -326 1837 -442 
z
M 3910 2253 
L 2381 2253 
L 2381 3264 
C 2842 3283 3322 3315 3795 3354 
C 3814 2970 3853 2605 3910 2253 
z
M 3053 5254 
C 3155 5101 3258 4909 3334 4730 
L 774 4730 
L 774 2880 
C 774 1952 730 646 198 -269 
C 314 -320 518 -454 602 -538 
C 1158 435 1242 1888 1242 2880 
L 1242 4294 
L 6093 4294 
L 6093 4730 
L 3866 4730 
C 3782 4941 3642 5197 3501 5395 
L 3053 5254 
z
" transform="scale(0.015625)"/>
     </defs>
     <use xlink:href="#NotoSansCJKsc-Regular-525e"/>
     <use xlink:href="#NotoSansCJKsc-Regular-4214" transform="translate(100 0)"/>
    </g>
   </g>
   <g id="text_14">
    <g id="patch_11">
     <path d="M 64.927132 312.173437 
L 399.815725 312.173437 
Q 403.415725 312.173437 403.415725 308.573437 
L 403.415725 299.205 
Q 403.415725 295.605 399.815725 295.605 
L 64.927132 295.605 
Q 61.327132 295.605 61.327132 299.205 
L 61.327132 308.573437 
Q 61.327132 312.173437 64.927132 312.173437 
z
" style="fill: #fff3f0; stroke: #c44e52; stroke-linejoin: miter"/>
    </g>
    <!-- 关键：递归必须有「基准情况」终止；否则栈会无限增长（栈溢出 Stack Overflow） -->
    <g style="fill: #2a2a2a" transform="translate(64.927132 307.125) scale(0.09 -0.09)">
     <defs>
      <path id="NotoSansCJKsc-Regular-2aa9" d="M 1434 5114 
C 1696 4774 1965 4320 2074 4013 
L 826 4013 
L 826 3533 
L 2950 3533 
L 2950 2752 
C 2950 2637 2944 2515 2938 2394 
L 435 2394 
L 435 1920 
L 2842 1920 
C 2637 1229 2029 493 307 -83 
C 435 -192 595 -397 653 -506 
C 2304 70 3008 813 3296 1555 
C 3834 563 4666 -134 5805 -474 
C 5882 -326 6029 -115 6144 -6 
C 4973 282 4096 973 3616 1920 
L 5984 1920 
L 5984 2394 
L 3482 2394 
L 3494 2746 
L 3494 3533 
L 5638 3533 
L 5638 4013 
L 4371 4013 
C 4602 4358 4858 4794 5069 5178 
L 4550 5350 
C 4390 4954 4096 4397 3840 4013 
L 2086 4013 
L 2509 4243 
C 2387 4544 2112 4992 1837 5318 
L 1434 5114 
z
" transform="scale(0.015625)"/>
      <path id="NotoSansCJKsc-Regular-a704" d="M 326 2214 
L 326 1779 
L 1056 1779 
L 1056 531 
C 1056 230 845 6 736 -77 
C 819 -160 947 -333 998 -435 
C 1088 -314 1242 -198 2240 499 
C 2189 576 2125 742 2093 864 
L 1466 442 
L 1466 1779 
L 2176 1779 
L 2176 2214 
L 1466 2214 
L 1466 3085 
L 2112 3085 
L 2112 3507 
L 589 3507 
C 742 3718 883 3955 1011 4218 
L 2138 4218 
L 2138 4659 
L 1203 4659 
C 1286 4864 1363 5075 1421 5286 
L 998 5395 
C 826 4749 525 4128 166 3712 
C 256 3622 397 3418 448 3328 
L 570 3482 
L 570 3085 
L 1056 3085 
L 1056 2214 
L 326 2214 
z
M 3699 4870 
L 3699 4518 
L 4461 4518 
L 4461 4006 
L 3539 4006 
L 3539 3635 
L 4461 3635 
L 4461 3117 
L 3699 3117 
L 3699 2758 
L 4461 2758 
L 4461 2272 
L 3680 2272 
L 3680 1894 
L 4461 1894 
L 4461 1370 
L 3520 1370 
L 3520 992 
L 4461 992 
L 4461 205 
L 4845 205 
L 4845 992 
L 6029 992 
L 6029 1370 
L 4845 1370 
L 4845 1894 
L 5888 1894 
L 5888 2272 
L 4845 2272 
L 4845 2758 
L 5786 2758 
L 5786 3635 
L 6176 3635 
L 6176 4006 
L 5786 4006 
L 5786 4870 
L 4845 4870 
L 4845 5357 
L 4461 5357 
L 4461 4870 
L 3699 4870 
z
M 4845 3635 
L 5427 3635 
L 5427 3117 
L 4845 3117 
L 4845 3635 
z
M 4845 4006 
L 4845 4518 
L 5427 4518 
L 5427 4006 
L 4845 4006 
z
M 2349 2611 
C 2349 2643 2394 2682 2445 2720 
L 3123 2720 
C 3072 2202 2989 1747 2874 1357 
C 2778 1581 2688 1837 2618 2138 
L 2291 2003 
C 2406 1555 2547 1184 2707 883 
C 2496 384 2208 26 1850 -205 
C 1933 -294 2035 -442 2093 -544 
C 2451 -294 2739 38 2963 486 
C 3533 -250 4307 -422 5190 -422 
L 6029 -422 
C 6054 -307 6112 -115 6176 -6 
C 5965 -13 5370 -13 5216 -13 
C 4410 -13 3661 147 3136 890 
C 3341 1466 3475 2189 3533 3104 
L 3296 3136 
L 3226 3130 
L 2822 3130 
C 3091 3622 3360 4256 3578 4890 
L 3309 5069 
L 3181 5005 
L 2259 5005 
L 2259 4557 
L 3027 4557 
C 2842 4006 2598 3494 2509 3341 
C 2406 3142 2259 2970 2150 2944 
C 2214 2861 2310 2694 2349 2611 
z
" transform="scale(0.015625)"/>
      <path id="NotoSansCJKsc-Regular-f6ae" d="M 1600 3110 
C 1856 3110 2086 3296 2086 3584 
C 2086 3878 1856 4070 1600 4070 
C 1344 4070 1114 3878 1114 3584 
C 1114 3296 1344 3110 1600 3110 
z
M 1600 -26 
C 1856 -26 2086 166 2086 454 
C 2086 749 1856 934 1600 934 
C 1344 934 1114 749 1114 454 
C 1114 166 1344 -26 1600 -26 
z
" transform="scale(0.015625)"/>
      <path id="NotoSansCJKsc-Regular-9d49" d="M 518 4902 
C 806 4544 1146 4051 1299 3750 
L 1734 3974 
C 1574 4288 1222 4755 928 5101 
L 518 4902 
z
M 4826 5382 
C 4717 5133 4512 4800 4333 4550 
L 3322 4550 
L 3610 4691 
C 3533 4890 3341 5184 3149 5395 
L 2765 5229 
C 2925 5024 3098 4749 3174 4550 
L 2157 4550 
L 2157 4147 
L 3776 4147 
L 3776 3558 
L 2394 3558 
C 2349 3110 2272 2547 2189 2176 
L 3514 2176 
C 3162 1728 2573 1331 1926 1062 
C 2022 986 2170 832 2234 749 
C 2842 1018 3379 1395 3776 1850 
L 3776 442 
L 4250 442 
L 4250 2176 
L 5523 2176 
C 5485 1709 5440 1510 5382 1440 
C 5338 1395 5286 1389 5197 1389 
C 5107 1389 4890 1395 4646 1414 
C 4710 1306 4762 1139 4768 1011 
C 5011 998 5254 998 5382 1011 
C 5542 1024 5638 1056 5734 1158 
C 5856 1293 5920 1619 5965 2394 
C 5971 2451 5978 2566 5978 2566 
L 4250 2566 
L 4250 3155 
L 5722 3155 
L 5722 4550 
L 4832 4550 
C 4986 4755 5146 5011 5299 5254 
L 4826 5382 
z
M 2682 2566 
L 2778 3155 
L 3776 3155 
L 3776 2566 
L 2682 2566 
z
M 4250 4147 
L 5306 4147 
L 5306 3558 
L 4250 3558 
L 4250 4147 
z
M 1638 2982 
L 320 2982 
L 320 2515 
L 1178 2515 
L 1178 813 
C 915 704 614 435 307 83 
L 634 -365 
C 915 51 1197 435 1389 435 
C 1530 435 1741 224 2003 58 
C 2451 -218 2995 -282 3789 -282 
C 4403 -282 5568 -250 6035 -218 
C 6048 -77 6125 160 6182 294 
C 5549 218 4570 166 3802 166 
C 3078 166 2528 211 2112 467 
C 1901 595 1760 710 1638 787 
L 1638 2982 
z
" transform="scale(0.015625)"/>
      <path id="NotoSansCJKsc-Regular-438d" d="M 582 4595 
L 582 1472 
L 1056 1472 
L 1056 4595 
L 582 4595 
z
M 1882 5370 
L 1882 2829 
C 1882 1664 1754 595 710 -192 
C 826 -262 1005 -435 1088 -538 
C 2214 326 2355 1530 2355 2829 
L 2355 5370 
L 1882 5370 
z
M 2886 4800 
L 2886 4339 
L 5344 4339 
L 5344 2739 
L 3078 2739 
L 3078 2266 
L 5344 2266 
L 5344 512 
L 2758 512 
L 2758 38 
L 5344 38 
L 5344 -410 
L 5830 -410 
L 5830 4800 
L 2886 4800 
z
" transform="scale(0.015625)"/>
      <path id="NotoSansCJKsc-Regular-4452" d="M 1984 5018 
C 2522 4653 3219 4115 3597 3789 
L 3917 4173 
C 3546 4474 2842 4998 2298 5357 
L 1984 5018 
z
M 941 3443 
C 819 2739 563 1869 198 1318 
L 659 1133 
C 1018 1690 1254 2611 1395 3322 
L 941 3443 
z
M 4730 3027 
C 5152 2387 5587 1523 5754 954 
L 6214 1178 
C 6035 1741 5600 2586 5158 3219 
L 4730 3027 
z
M 5062 4998 
C 4480 3814 3597 2643 2470 1690 
L 2470 3821 
L 1971 3821 
L 1971 1293 
C 1427 890 838 538 205 250 
C 307 154 448 -19 518 -134 
C 1030 109 1517 397 1971 710 
L 1971 390 
C 1971 -282 2170 -454 2867 -454 
C 3021 -454 4006 -454 4166 -454 
C 4864 -454 5018 -115 5094 1037 
C 4954 1069 4742 1165 4621 1254 
C 4576 230 4512 19 4141 19 
C 3917 19 3078 19 2906 19 
C 2541 19 2470 83 2470 384 
L 2470 1082 
C 3789 2112 4819 3418 5542 4800 
L 5062 4998 
z
" transform="scale(0.015625)"/>
      <path id="NotoSansCJKsc-Regular-ac7a" d="M 3981 3123 
L 3981 1843 
C 3981 1178 3872 339 2214 -166 
C 2310 -262 2458 -429 2522 -525 
C 4192 77 4461 1043 4461 1837 
L 4461 3123 
L 3981 3123 
z
M 4403 576 
C 4922 262 5581 -205 5901 -512 
L 6163 -115 
C 5837 179 5165 614 4653 915 
L 4403 576 
z
M 1734 5261 
C 1427 4794 851 4301 371 4013 
C 493 3930 627 3789 717 3686 
C 1235 4026 1811 4544 2189 5082 
L 1734 5261 
z
M 1914 3565 
C 1562 3066 896 2534 346 2227 
C 467 2138 602 1997 685 1894 
C 1267 2246 1933 2810 2355 3379 
L 1914 3565 
z
M 2035 1747 
C 1664 1069 966 442 250 83 
C 371 -13 512 -173 589 -288 
C 1350 134 2054 813 2477 1581 
L 2035 1747 
z
M 2733 4019 
L 2733 960 
L 3206 960 
L 3206 3565 
L 5197 3565 
L 5197 973 
L 5696 973 
L 5696 4019 
L 4198 4019 
C 4275 4211 4352 4429 4422 4640 
L 5978 4640 
L 5978 5094 
L 2432 5094 
L 2432 4640 
L 3878 4640 
C 3834 4435 3776 4211 3718 4019 
L 2733 4019 
z
" transform="scale(0.015625)"/>
      <path id="NotoSansCJKsc-Regular-50d7" d="M 2502 5376 
C 2426 5101 2336 4819 2221 4544 
L 403 4544 
L 403 4096 
L 2022 4096 
C 1613 3251 1024 2470 256 1946 
C 346 1856 499 1683 563 1574 
C 966 1862 1325 2208 1632 2598 
L 1632 -506 
L 2106 -506 
L 2106 762 
L 4787 762 
L 4787 96 
C 4787 0 4755 -38 4646 -38 
C 4525 -45 4134 -51 3712 -32 
C 3776 -166 3846 -365 3872 -493 
C 4422 -493 4774 -493 4986 -422 
C 5197 -339 5261 -192 5261 90 
L 5261 3354 
L 2150 3354 
C 2298 3597 2426 3840 2541 4096 
L 6010 4096 
L 6010 4544 
L 2733 4544 
C 2829 4781 2912 5024 2989 5261 
L 2502 5376 
z
M 2106 1850 
L 4787 1850 
L 4787 1178 
L 2106 1178 
L 2106 1850 
z
M 2106 2259 
L 2106 2918 
L 4787 2918 
L 4787 2259 
L 2106 2259 
z
" transform="scale(0.015625)"/>
      <path id="NotoSansCJKsc-Regular-580" d="M 4160 5414 
L 4160 1274 
L 4634 1274 
L 4634 4973 
L 6182 4973 
L 6182 5414 
L 4160 5414 
z
" transform="scale(0.015625)"/>
      <path id="NotoSansCJKsc-Regular-581" d="M 2240 -550 
L 2240 3590 
L 1766 3590 
L 1766 -109 
L 218 -109 
L 218 -550 
L 2240 -550 
z
" transform="scale(0.015625)"/>
      <path id="NotoSansCJKsc-Regular-7bf3" d="M 224 339 
L 307 -128 
C 928 0 1760 166 2554 339 
L 2515 762 
C 1677 602 806 429 224 339 
z
M 3616 1690 
C 4077 1510 4653 1197 4954 966 
L 5242 1306 
C 4934 1530 4365 1824 3898 2003 
L 3616 1690 
z
M 2906 506 
C 3782 269 4845 -166 5421 -506 
L 5702 -122 
C 5114 198 4051 627 3194 851 
L 2906 506 
z
M 3731 5376 
C 3494 4806 3040 4102 2381 3571 
L 2496 3763 
L 2093 4006 
C 1971 3770 1830 3533 1683 3309 
L 858 3232 
C 1242 3789 1619 4499 1914 5197 
L 1453 5382 
C 1184 4614 717 3782 570 3571 
C 435 3354 320 3200 198 3174 
C 256 3053 333 2816 358 2714 
C 454 2758 608 2797 1402 2886 
C 1120 2477 864 2157 749 2035 
C 544 1798 390 1645 250 1619 
C 307 1498 378 1274 403 1178 
C 544 1254 762 1299 2426 1562 
C 2413 1658 2406 1843 2406 1971 
L 1056 1779 
C 1517 2298 1971 2918 2368 3552 
C 2477 3488 2630 3341 2707 3238 
C 2957 3443 3174 3667 3366 3898 
C 3558 3590 3789 3296 4045 3027 
C 3558 2630 3002 2323 2432 2118 
C 2534 2029 2682 1837 2739 1722 
C 3302 1952 3866 2285 4365 2707 
C 4838 2285 5376 1939 5933 1715 
C 6003 1837 6144 2022 6253 2118 
C 5702 2310 5165 2624 4704 3014 
C 5139 3450 5510 3962 5760 4550 
L 5459 4730 
L 5376 4710 
L 3930 4710 
C 4045 4909 4147 5101 4230 5293 
L 3731 5376 
z
M 3661 4282 
L 5114 4282 
C 4922 3930 4666 3603 4371 3315 
C 4077 3603 3827 3923 3642 4250 
L 3661 4282 
z
" transform="scale(0.015625)"/>
      <path id="NotoSansCJKsc-Regular-2ed6" d="M 3706 3616 
C 4442 3309 5331 2790 5792 2419 
L 6138 2784 
C 5664 3136 4781 3642 4051 3936 
L 3706 3616 
z
M 1133 1907 
L 1133 -512 
L 1626 -512 
L 1626 -205 
L 4800 -205 
L 4800 -499 
L 5318 -499 
L 5318 1907 
L 1133 1907 
z
M 1626 224 
L 1626 1485 
L 4800 1485 
L 4800 224 
L 1626 224 
z
M 422 5011 
L 422 4557 
L 3258 4557 
C 2515 3776 1363 3142 224 2778 
C 333 2682 493 2458 563 2342 
C 1389 2656 2234 3098 2950 3648 
L 2950 2093 
L 3437 2093 
L 3437 4058 
C 3603 4218 3763 4384 3904 4557 
L 5978 4557 
L 5978 5011 
L 422 5011 
z
" transform="scale(0.015625)"/>
      <path id="NotoSansCJKsc-Regular-2b9f" d="M 2061 730 
C 2464 403 2976 -64 3219 -352 
L 3526 0 
C 3277 275 2758 717 2362 1030 
L 2061 730 
z
M 659 5030 
L 659 1146 
L 1107 1146 
L 1107 4595 
L 2957 4595 
L 2957 1165 
L 3424 1165 
L 3424 5030 
L 659 5030 
z
M 5338 5331 
L 5338 166 
C 5338 45 5286 6 5165 6 
C 5043 0 4640 -6 4186 13 
C 4262 -128 4339 -339 4365 -480 
C 4954 -480 5306 -467 5523 -390 
C 5722 -307 5811 -160 5811 166 
L 5811 5331 
L 5338 5331 
z
M 4141 4800 
L 4141 966 
L 4595 966 
L 4595 4800 
L 4141 4800 
z
M 1792 4160 
L 1792 2342 
C 1792 1466 1632 499 288 -160 
C 378 -237 531 -416 582 -518 
C 2016 179 2246 1350 2246 2330 
L 2246 4160 
L 1792 4160 
z
" transform="scale(0.015625)"/>
      <path id="NotoSansCJKsc-Regular-26a2" d="M 1005 -371 
C 1248 -282 1606 -256 4998 32 
C 5146 -160 5274 -346 5363 -506 
L 5792 -243 
C 5510 237 4902 928 4326 1440 
L 3923 1222 
C 4173 992 4429 723 4659 454 
L 1747 230 
C 2202 653 2656 1165 3053 1690 
L 5875 1690 
L 5875 2157 
L 570 2157 
L 570 1690 
L 2400 1690 
C 1984 1120 1498 614 1325 461 
C 1126 275 979 154 838 122 
C 896 -6 979 -262 1005 -371 
z
M 3226 5376 
C 2650 4518 1523 3706 269 3174 
C 384 3085 550 2880 621 2758 
C 992 2931 1350 3123 1690 3334 
L 1690 2944 
L 4742 2944 
L 4742 3392 
L 1773 3392 
C 2323 3750 2816 4154 3219 4595 
C 3603 4198 4141 3763 4742 3392 
C 5088 3174 5459 2982 5824 2835 
C 5901 2963 6061 3162 6163 3258 
C 5126 3616 4083 4314 3494 4922 
L 3686 5178 
L 3226 5376 
z
" transform="scale(0.015625)"/>
      <path id="NotoSansCJKsc-Regular-4ef0" d="M 730 4947 
L 730 4474 
L 2854 4474 
C 2835 4019 2816 3533 2739 3053 
L 333 3053 
L 333 2586 
L 2650 2586 
C 2387 1485 1766 454 250 -122 
C 371 -218 512 -390 576 -512 
C 2227 147 2867 1331 3136 2586 
L 3270 2586 
L 3270 384 
C 3270 -198 3450 -365 4115 -365 
C 4250 -365 5165 -365 5312 -365 
C 5926 -365 6080 -96 6144 928 
C 6003 960 5792 1043 5677 1133 
C 5645 256 5594 109 5280 109 
C 5082 109 4314 109 4160 109 
C 3834 109 3770 154 3770 384 
L 3770 2586 
L 6086 2586 
L 6086 3053 
L 3219 3053 
C 3290 3533 3322 4013 3334 4474 
L 5722 4474 
L 5722 4947 
L 730 4947 
z
" transform="scale(0.015625)"/>
      <path id="NotoSansCJKsc-Regular-a87f" d="M 589 5114 
L 589 -499 
L 1018 -499 
L 1018 4678 
L 1946 4678 
C 1811 4250 1626 3686 1440 3232 
C 1901 2720 2016 2278 2016 1926 
C 2016 1728 1978 1549 1882 1478 
C 1824 1446 1754 1427 1683 1421 
C 1581 1414 1453 1421 1306 1427 
C 1382 1306 1427 1120 1427 1005 
C 1568 998 1734 998 1856 1018 
C 1990 1030 2106 1069 2189 1133 
C 2374 1267 2445 1536 2445 1882 
C 2445 2285 2336 2746 1875 3283 
C 2086 3795 2323 4422 2509 4947 
L 2195 5133 
L 2125 5114 
L 589 5114 
z
M 5190 3494 
L 5190 2701 
L 3302 2701 
L 3302 3494 
L 5190 3494 
z
M 5190 3898 
L 3302 3898 
L 3302 4672 
L 5190 4672 
L 5190 3898 
z
M 2810 -512 
C 2931 -429 3136 -358 4454 0 
C 4442 102 4429 301 4435 435 
L 3302 160 
L 3302 2278 
L 3917 2278 
C 4237 1005 4845 19 5850 -467 
C 5920 -333 6067 -147 6176 -51 
C 5664 160 5248 518 4934 973 
C 5286 1184 5709 1466 6035 1734 
L 5722 2074 
C 5466 1837 5062 1536 4723 1318 
C 4563 1606 4435 1933 4339 2278 
L 5651 2278 
L 5651 5094 
L 2829 5094 
L 2829 339 
C 2829 70 2694 -58 2598 -115 
C 2669 -211 2771 -403 2810 -512 
z
" transform="scale(0.015625)"/>
      <path id="NotoSansCJKsc-Regular-360d" d="M 2982 3814 
C 3174 3526 3354 3142 3418 2893 
L 3712 3014 
C 3648 3264 3456 3642 3258 3917 
L 2982 3814 
z
M 4922 3917 
C 4813 3642 4589 3232 4422 2982 
L 4672 2874 
C 4845 3110 5062 3475 5248 3789 
L 4922 3917 
z
M 262 826 
L 416 352 
C 934 557 1587 813 2208 1062 
L 2125 1498 
L 1478 1254 
L 1478 3366 
L 2125 3366 
L 2125 3814 
L 1478 3814 
L 1478 5299 
L 1030 5299 
L 1030 3814 
L 339 3814 
L 339 3366 
L 1030 3366 
L 1030 1094 
L 262 826 
z
M 2829 5190 
C 3002 4960 3194 4646 3277 4448 
L 3706 4653 
C 3610 4845 3418 5146 3232 5363 
L 2829 5190 
z
M 2387 4448 
L 2387 2323 
L 5805 2323 
L 5805 4448 
L 4928 4448 
C 5101 4672 5293 4954 5466 5216 
L 4966 5389 
C 4851 5107 4614 4710 4435 4448 
L 2387 4448 
z
M 2784 4102 
L 3910 4102 
L 3910 2669 
L 2784 2669 
L 2784 4102 
z
M 4282 4102 
L 5389 4102 
L 5389 2669 
L 4282 2669 
L 4282 4102 
z
M 3162 659 
L 5050 659 
L 5050 186 
L 3162 186 
L 3162 659 
z
M 3162 1018 
L 3162 1555 
L 5050 1555 
L 5050 1018 
L 3162 1018 
z
M 2720 1920 
L 2720 -493 
L 3162 -493 
L 3162 -186 
L 5050 -186 
L 5050 -493 
L 5504 -493 
L 5504 1920 
L 2720 1920 
z
" transform="scale(0.015625)"/>
      <path id="NotoSansCJKsc-Regular-a75a" d="M 4922 5235 
C 4365 4570 3430 3962 2528 3590 
C 2650 3501 2842 3309 2931 3200 
C 3795 3629 4768 4294 5402 5030 
L 4922 5235 
z
M 358 2874 
L 358 2394 
L 1587 2394 
L 1587 352 
C 1587 96 1440 0 1325 -45 
C 1402 -147 1491 -358 1523 -474 
C 1677 -378 1920 -301 3674 173 
C 3648 275 3629 480 3629 621 
L 2086 243 
L 2086 2394 
L 3091 2394 
C 3610 1069 4518 122 5850 -326 
C 5920 -179 6074 19 6189 128 
C 4960 480 4064 1293 3590 2394 
L 6042 2394 
L 6042 2874 
L 2086 2874 
L 2086 5344 
L 1587 5344 
L 1587 2874 
L 358 2874 
z
" transform="scale(0.015625)"/>
      <path id="NotoSansCJKsc-Regular-e6ae" d="M 4448 2432 
C 4448 1184 4954 166 5722 -614 
L 6106 -416 
C 5370 346 4915 1293 4915 2432 
C 4915 3571 5370 4518 6106 5280 
L 5722 5478 
C 4954 4698 4448 3680 4448 2432 
z
" transform="scale(0.015625)"/>
      <path id="NotoSansCJKsc-Regular-5daf" d="M 4947 5350 
C 4813 5024 4557 4563 4358 4275 
L 4742 4102 
C 4947 4371 5210 4787 5427 5158 
L 4947 5350 
z
M 2355 5190 
C 2579 4851 2848 4384 2970 4096 
L 3386 4314 
C 3251 4595 2982 5037 2752 5370 
L 2355 5190 
z
M 1779 3987 
L 1779 3552 
L 5997 3552 
L 5997 3987 
L 1779 3987 
z
M 4218 3072 
C 4742 2778 5434 2330 5773 2042 
L 6010 2394 
C 5651 2675 4954 3104 4442 3379 
L 4218 3072 
z
M 467 4979 
C 832 4723 1267 4339 1478 4090 
L 1798 4410 
C 1581 4659 1133 5018 774 5261 
L 467 4979 
z
M 250 3270 
C 621 3021 1075 2662 1286 2419 
L 1600 2758 
C 1382 3002 922 3341 550 3571 
L 250 3270 
z
M 435 -102 
L 832 -326 
C 1069 262 1344 1069 1542 1734 
L 1184 1958 
C 966 1242 659 397 435 -102 
z
M 3168 3366 
C 2861 3008 2221 2586 1728 2374 
C 1837 2285 1958 2118 2022 2003 
C 2528 2266 3168 2746 3507 3136 
L 3168 3366 
z
M 1581 173 
L 1581 -256 
L 6150 -256 
L 6150 173 
L 5619 173 
L 5619 2042 
L 2195 2042 
L 2195 173 
L 1581 173 
z
M 2592 173 
L 2592 1638 
L 3219 1638 
L 3219 173 
L 2592 173 
z
M 3571 173 
L 3571 1638 
L 4211 1638 
L 4211 173 
L 3571 173 
z
M 4563 173 
L 4563 1638 
L 5197 1638 
L 5197 173 
L 4563 173 
z
" transform="scale(0.015625)"/>
      <path id="NotoSansCJKsc-Regular-34" d="M 1946 -83 
C 2925 -83 3539 506 3539 1248 
C 3539 1946 3117 2266 2573 2502 
L 1907 2790 
C 1542 2944 1126 3117 1126 3578 
C 1126 3994 1472 4256 2003 4256 
C 2438 4256 2784 4090 3072 3821 
L 3379 4198 
C 3053 4538 2560 4774 2003 4774 
C 1152 4774 525 4256 525 3533 
C 525 2848 1043 2515 1478 2330 
L 2150 2035 
C 2598 1837 2938 1683 2938 1197 
C 2938 742 2573 435 1952 435 
C 1466 435 992 666 659 1018 
L 307 608 
C 710 186 1280 -83 1946 -83 
z
" transform="scale(0.015625)"/>
      <path id="NotoSansCJKsc-Regular-4c" d="M 589 0 
L 1165 0 
L 1165 915 
L 1818 1677 
L 2835 0 
L 3469 0 
L 2157 2074 
L 3315 3475 
L 2662 3475 
L 1190 1645 
L 1165 1645 
L 1165 5094 
L 589 5094 
L 589 0 
z
" transform="scale(0.015625)"/>
      <path id="NotoSansCJKsc-Regular-30" d="M 2374 -83 
C 3552 -83 4378 858 4378 2362 
C 4378 3866 3552 4774 2374 4774 
C 1197 4774 371 3866 371 2362 
C 371 858 1197 -83 2374 -83 
z
M 2374 435 
C 1530 435 979 1190 979 2362 
C 979 3533 1530 4256 2374 4256 
C 3219 4256 3770 3533 3770 2362 
C 3770 1190 3219 435 2374 435 
z
" transform="scale(0.015625)"/>
      <path id="NotoSansCJKsc-Regular-57" d="M 1338 0 
L 2022 0 
L 3251 3475 
L 2675 3475 
L 2016 1498 
C 1914 1158 1798 806 1696 474 
L 1664 474 
C 1562 806 1453 1158 1344 1498 
L 691 3475 
L 83 3475 
L 1338 0 
z
" transform="scale(0.015625)"/>
      <path id="NotoSansCJKsc-Regular-e660" d="M 3290 -83 
C 3443 -83 3539 -58 3622 -32 
L 3546 416 
C 3482 403 3450 403 3418 403 
C 3334 403 3258 474 3258 653 
L 3258 5094 
L 2669 5094 
L 2669 691 
C 2669 198 2854 -83 3290 -83 
z
M 211 3002 
L 685 3002 
L 685 0 
L 1267 0 
L 1267 3002 
L 2003 3002 
L 2003 3475 
L 1267 3475 
L 1267 4026 
C 1267 4474 1427 4710 1760 4710 
C 1882 4710 2022 4678 2150 4614 
L 2278 5069 
C 2118 5133 1914 5178 1696 5178 
C 1005 5178 685 4736 685 4032 
L 685 3475 
L 211 3443 
L 211 3002 
z
" transform="scale(0.015625)"/>
      <path id="NotoSansCJKsc-Regular-50" d="M 1939 -83 
C 2790 -83 3546 582 3546 1734 
C 3546 2893 2790 3565 1939 3565 
C 1088 3565 333 2893 333 1734 
C 333 582 1088 -83 1939 -83 
z
M 1939 403 
C 1338 403 934 934 934 1734 
C 934 2534 1338 3072 1939 3072 
C 2541 3072 2950 2534 2950 1734 
C 2950 934 2541 403 1939 403 
z
" transform="scale(0.015625)"/>
      <path id="NotoSansCJKsc-Regular-58" d="M 1139 0 
L 1818 0 
L 2310 1862 
C 2400 2195 2470 2522 2547 2874 
L 2579 2874 
C 2662 2522 2726 2202 2816 1875 
L 3315 0 
L 4026 0 
L 4966 3475 
L 4403 3475 
L 3898 1466 
C 3821 1133 3757 819 3686 499 
L 3654 499 
C 3571 819 3494 1133 3411 1466 
L 2867 3475 
L 2298 3475 
L 1754 1466 
C 1670 1133 1594 819 1523 499 
L 1491 499 
C 1421 819 1357 1133 1286 1466 
L 768 3475 
L 173 3475 
L 1139 0 
z
" transform="scale(0.015625)"/>
      <path id="NotoSansCJKsc-Regular-e6af" d="M 1952 2432 
C 1952 3680 1446 4698 678 5478 
L 294 5280 
C 1030 4518 1485 3571 1485 2432 
C 1485 1293 1030 346 294 -416 
L 678 -614 
C 1446 166 1952 1184 1952 2432 
z
" transform="scale(0.015625)"/>
     </defs>
     <use xlink:href="#NotoSansCJKsc-Regular-2aa9"/>
     <use xlink:href="#NotoSansCJKsc-Regular-a704" transform="translate(100 0)"/>
     <use xlink:href="#NotoSansCJKsc-Regular-f6ae" transform="translate(200 0)"/>
     <use xlink:href="#NotoSansCJKsc-Regular-9d49" transform="translate(300 0)"/>
     <use xlink:href="#NotoSansCJKsc-Regular-438d" transform="translate(400 0)"/>
     <use xlink:href="#NotoSansCJKsc-Regular-4452" transform="translate(500 0)"/>
     <use xlink:href="#NotoSansCJKsc-Regular-ac7a" transform="translate(600 0)"/>
     <use xlink:href="#NotoSansCJKsc-Regular-50d7" transform="translate(700 0)"/>
     <use xlink:href="#NotoSansCJKsc-Regular-580" transform="translate(800 0)"/>
     <use xlink:href="#NotoSansCJKsc-Regular-34f9" transform="translate(900 0)"/>
     <use xlink:href="#NotoSansCJKsc-Regular-2b22" transform="translate(1000 0)"/>
     <use xlink:href="#NotoSansCJKsc-Regular-45ef" transform="translate(1100 0)"/>
     <use xlink:href="#NotoSansCJKsc-Regular-2b05" transform="translate(1200 0)"/>
     <use xlink:href="#NotoSansCJKsc-Regular-581" transform="translate(1300 0)"/>
     <use xlink:href="#NotoSansCJKsc-Regular-7bf3" transform="translate(1400 0)"/>
     <use xlink:href="#NotoSansCJKsc-Regular-585b" transform="translate(1500 0)"/>
     <use xlink:href="#NotoSansCJKsc-Regular-f6af" transform="translate(1600 0)"/>
     <use xlink:href="#NotoSansCJKsc-Regular-2ed6" transform="translate(1700 0)"/>
     <use xlink:href="#NotoSansCJKsc-Regular-2b9f" transform="translate(1800 0)"/>
     <use xlink:href="#NotoSansCJKsc-Regular-525e" transform="translate(1900 0)"/>
     <use xlink:href="#NotoSansCJKsc-Regular-26a2" transform="translate(2000 0)"/>
     <use xlink:href="#NotoSansCJKsc-Regular-4ef0" transform="translate(2100 0)"/>
     <use xlink:href="#NotoSansCJKsc-Regular-a87f" transform="translate(2200 0)"/>
     <use xlink:href="#NotoSansCJKsc-Regular-360d" transform="translate(2300 0)"/>
     <use xlink:href="#NotoSansCJKsc-Regular-a75a" transform="translate(2400 0)"/>
     <use xlink:href="#NotoSansCJKsc-Regular-e6ae" transform="translate(2500 0)"/>
     <use xlink:href="#NotoSansCJKsc-Regular-525e" transform="translate(2600 0)"/>
     <use xlink:href="#NotoSansCJKsc-Regular-5daf" transform="translate(2700 0)"/>
     <use xlink:href="#NotoSansCJKsc-Regular-2b74" transform="translate(2800 0)"/>
     <use xlink:href="#NotoSansCJKsc-Regular-1" transform="translate(2900 0)"/>
     <use xlink:href="#NotoSansCJKsc-Regular-34" transform="translate(2922.40625 0)"/>
     <use xlink:href="#NotoSansCJKsc-Regular-55" transform="translate(2979.296875 0)"/>
     <use xlink:href="#NotoSansCJKsc-Regular-42" transform="translate(3014.59375 0)"/>
     <use xlink:href="#NotoSansCJKsc-Regular-44" transform="translate(3070.890625 0)"/>
     <use xlink:href="#NotoSansCJKsc-Regular-4c" transform="translate(3121.890625 0)"/>
     <use xlink:href="#NotoSansCJKsc-Regular-1" transform="translate(3177.09375 0)"/>
     <use xlink:href="#NotoSansCJKsc-Regular-30" transform="translate(3199.5 0)"/>
     <use xlink:href="#NotoSansCJKsc-Regular-57" transform="translate(3273.703125 0)"/>
     <use xlink:href="#NotoSansCJKsc-Regular-46" transform="translate(3325.390625 0)"/>
     <use xlink:href="#NotoSansCJKsc-Regular-53" transform="translate(3380.796875 0)"/>
     <use xlink:href="#NotoSansCJKsc-Regular-e660" transform="translate(3419.59375 0)"/>
     <use xlink:href="#NotoSansCJKsc-Regular-50" transform="translate(3480.59375 0)"/>
     <use xlink:href="#NotoSansCJKsc-Regular-58" transform="translate(3540.78125 0)"/>
     <use xlink:href="#NotoSansCJKsc-Regular-e6af" transform="translate(3620.984375 0)"/>
    </g>
   </g>
  </g>
 </g>
 <defs>
  <clipPath id="p4b8f0898d0">
   <rect x="7.2" y="7.2" width="511.2" height="309.6"/>
  </clipPath>
 </defs>
</svg>
